<svg width="101" height="27" viewBox="0 0 101 27" fill="none" xmlns="http://www.w3.org/2000/svg">
<g clip-path="url(#clip0_12_25)">
<path d="M97.9865 16.9859H95.0327V12.36C95.0327 11.257 95.013 9.83699 93.4964 9.83699C91.958 9.83699 91.7226 11.0388 91.7226 12.2797V16.9856H88.7687V7.473H91.6044V8.77299H91.6441C91.9279 8.28778 92.338 7.88862 92.8307 7.61803C93.3234 7.34743 93.8802 7.21554 94.4419 7.23639C97.4358 7.23639 97.9878 9.20561 97.9878 11.7674L97.9865 16.9859ZM85.4358 6.1727C85.0968 6.17276 84.7654 6.07229 84.4835 5.88399C84.2015 5.69569 83.9818 5.42801 83.852 5.11482C83.7222 4.80162 83.6882 4.45697 83.7543 4.12445C83.8203 3.79193 83.9836 3.48647 84.2232 3.2467C84.4629 3.00693 84.7683 2.84361 85.1008 2.77741C85.4333 2.71121 85.778 2.7451 86.0912 2.87478C86.4045 3.00446 86.6722 3.22412 86.8606 3.50598C87.049 3.78783 87.1496 4.11923 87.1497 4.45825C87.1497 4.68336 87.1054 4.90627 87.0193 5.11425C86.9332 5.32223 86.807 5.51122 86.6478 5.67042C86.4887 5.82963 86.2997 5.95592 86.0918 6.0421C85.8838 6.12828 85.6609 6.17266 85.4358 6.1727ZM86.9127 16.9859H83.9558V7.473H86.9127V16.9859ZM99.4591 0.0013582H82.4716C82.086 -0.00299296 81.7144 0.14591 81.4386 0.415345C81.1628 0.684781 81.0052 1.05271 81.0005 1.43827V18.4963C81.005 18.8821 81.1625 19.2502 81.4383 19.52C81.7142 19.7897 82.0858 19.9389 82.4716 19.9348H99.4591C99.8457 19.9396 100.218 19.7908 100.495 19.5211C100.772 19.2514 100.931 18.8828 100.936 18.4963V1.43704C100.931 1.05071 100.772 0.682367 100.495 0.412938C100.218 0.143509 99.8455 -0.0049683 99.4591 0.000126937" fill="#0A66C2"/>
</g>
<path d="M10.9424 16V5.29199H13.2129V14.125H17.5562V16H10.9424ZM21.4819 7.81152V16H19.248V7.81152H21.4819ZM20.3687 4.60352C20.7007 4.60352 20.9863 4.68164 21.2256 4.83789C21.4648 4.98926 21.5845 5.2749 21.5845 5.69482C21.5845 6.10986 21.4648 6.39795 21.2256 6.55908C20.9863 6.71533 20.7007 6.79346 20.3687 6.79346C20.0317 6.79346 19.7437 6.71533 19.5044 6.55908C19.27 6.39795 19.1528 6.10986 19.1528 5.69482C19.1528 5.2749 19.27 4.98926 19.5044 4.83789C19.7437 4.68164 20.0317 4.60352 20.3687 4.60352ZM28.4839 7.65771C29.3579 7.65771 30.061 7.89697 30.5933 8.37549C31.1255 8.84912 31.3916 9.61084 31.3916 10.6606V16H29.1577V11.2173C29.1577 10.6313 29.0503 10.1895 28.8354 9.8916C28.6255 9.59375 28.2935 9.44482 27.8394 9.44482C27.1558 9.44482 26.6895 9.67676 26.4404 10.1406C26.1914 10.6045 26.0669 11.2734 26.0669 12.1475V16H23.833V7.81152H25.5396L25.8398 8.85889H25.9644C26.1401 8.57568 26.3574 8.34619 26.6162 8.17041C26.8799 7.99463 27.1704 7.86523 27.4878 7.78223C27.8101 7.69922 28.1421 7.65771 28.4839 7.65771ZM35.9253 4.60352V9.70117C35.9253 10.0088 35.9131 10.3164 35.8887 10.624C35.8643 10.9316 35.8374 11.2393 35.8081 11.5469H35.8374C35.9888 11.332 36.1426 11.1196 36.2988 10.9097C36.46 10.6997 36.6309 10.4971 36.8115 10.3018L39.104 7.81152H41.6235L38.3716 11.3638L41.8213 16H39.2432L36.8848 12.6821L35.9253 13.4512V16H33.6914V4.60352H35.9253ZM46.3696 7.65771C47.1265 7.65771 47.7783 7.8042 48.3252 8.09717C48.8721 8.38525 49.2944 8.80518 49.5923 9.35693C49.8901 9.90869 50.0391 10.5825 50.0391 11.3784V12.4624H44.7583C44.7827 13.0923 44.9707 13.5879 45.3223 13.9492C45.6787 14.3057 46.1719 14.4839 46.8018 14.4839C47.3242 14.4839 47.8027 14.4302 48.2373 14.3228C48.6719 14.2153 49.1187 14.0542 49.5776 13.8394V15.5679C49.1724 15.7681 48.7476 15.9146 48.3032 16.0073C47.8638 16.1001 47.3291 16.1465 46.6992 16.1465C45.8789 16.1465 45.1514 15.9951 44.5166 15.6924C43.8867 15.3896 43.3911 14.9282 43.0298 14.3081C42.6733 13.688 42.4951 12.9067 42.4951 11.9644C42.4951 11.0073 42.6562 10.2114 42.9785 9.57666C43.3057 8.93701 43.7598 8.4585 44.3408 8.14111C44.9219 7.81885 45.5981 7.65771 46.3696 7.65771ZM46.3843 9.24707C45.9497 9.24707 45.5884 9.38623 45.3003 9.66455C45.0171 9.94287 44.8535 10.3799 44.8096 10.9756H47.9443C47.9395 10.6436 47.8784 10.3481 47.7612 10.0894C47.6489 9.83057 47.478 9.62549 47.2485 9.47412C47.0239 9.32275 46.7358 9.24707 46.3843 9.24707ZM54.4482 16.1465C53.5352 16.1465 52.7905 15.79 52.2144 15.0771C51.6431 14.3594 51.3574 13.3071 51.3574 11.9204C51.3574 10.519 51.6479 9.45947 52.229 8.7417C52.8101 8.01904 53.5693 7.65771 54.5068 7.65771C54.8975 7.65771 55.2417 7.71143 55.5396 7.81885C55.8374 7.92627 56.0938 8.07031 56.3086 8.25098C56.5283 8.43164 56.7139 8.63428 56.8652 8.85889H56.9385C56.9092 8.70264 56.8726 8.47314 56.8286 8.17041C56.7896 7.86279 56.77 7.54785 56.77 7.22559V4.60352H59.0112V16H57.2974L56.8652 14.938H56.77C56.6284 15.1626 56.4502 15.3677 56.2354 15.5532C56.0254 15.7339 55.7739 15.8779 55.481 15.9854C55.188 16.0928 54.8438 16.1465 54.4482 16.1465ZM55.2319 14.3667C55.8423 14.3667 56.272 14.186 56.521 13.8247C56.7749 13.4585 56.9092 12.9092 56.9238 12.1768V11.9351C56.9238 11.1392 56.8018 10.5312 56.5576 10.1113C56.3135 9.68652 55.8594 9.47412 55.1953 9.47412C54.7021 9.47412 54.3164 9.68652 54.0381 10.1113C53.7598 10.5361 53.6206 11.1489 53.6206 11.9497C53.6206 12.7505 53.7598 13.3535 54.0381 13.7588C54.3213 14.1641 54.7192 14.3667 55.2319 14.3667ZM61.5234 16V5.29199H63.7939V16H61.5234ZM70.9644 7.65771C71.8384 7.65771 72.5415 7.89697 73.0737 8.37549C73.606 8.84912 73.8721 9.61084 73.8721 10.6606V16H71.6382V11.2173C71.6382 10.6313 71.5308 10.1895 71.3159 9.8916C71.106 9.59375 70.7739 9.44482 70.3198 9.44482C69.6362 9.44482 69.1699 9.67676 68.9209 10.1406C68.6719 10.6045 68.5474 11.2734 68.5474 12.1475V16H66.3135V7.81152H68.02L68.3203 8.85889H68.4448C68.6206 8.57568 68.8379 8.34619 69.0967 8.17041C69.3604 7.99463 69.6509 7.86523 69.9683 7.78223C70.2905 7.69922 70.6226 7.65771 70.9644 7.65771Z" fill="#0A66C2"/>
<defs>
<clipPath id="clip0_12_25">
<rect width="20.0002" height="20" fill="white" transform="translate(81.0005)"/>
</clipPath>
</defs>
</svg>
