<?xml version="1.0" encoding="UTF-8"?>
<svg width="16px" height="19px" viewBox="0 0 16 19" version="1.1" xmlns="http://www.w3.org/2000/svg" xmlns:xlink="http://www.w3.org/1999/xlink">
    <title>38BDBBD4-639E-4265-B490-A1E4991ED981</title>
    <g id="Desktop" stroke="none" stroke-width="1" fill="none" fill-rule="evenodd">
        <g id="11.6---Standard-Content-Page" transform="translate(-229.000000, -2673.000000)" fill="#333333" fill-rule="nonzero">
            <g id="StandardContentPage/StandardContentPage-Content" transform="translate(0.000000, 670.000000)">
                <g id="Handover/Image-Gallery-Carousel" transform="translate(0.000000, 1512.114541)">
                    <g id="Image-With-Caption" transform="translate(210.000000, 0.000000)">
                        <g id="CTA/Zoom_Grey" transform="translate(0.000000, 475.320877)">
                            <g id="Shape" transform="translate(19.000000, 16.834281)">
                                <path d="M12.5239245,11.3515185 L15.5533008,14.3513639 L14.4926407,15.4016846 L11.4632643,12.4018392 C10.3085112,13.3165554 8.84376027,13.8635256 7.25,13.8635256 C3.52207794,13.8635256 0.5,10.8709074 0.5,7.17932575 C0.5,3.48774412 3.52207794,0.495125914 7.25,0.495125914 C10.977922,0.495125914 14,3.48774412 14,7.17932575 C14,8.75754978 13.4476453,10.2080221 12.5239245,11.3515185 Z M7.25,12.3781478 C10.1494949,12.3781478 12.5,10.0505559 12.5,7.17932575 C12.5,4.30809559 10.1494949,1.98050366 7.25,1.98050366 C4.35050506,1.98050366 2,4.30809559 2,7.17932575 C2,10.0505559 4.35050506,12.3781478 7.25,12.3781478 Z M8,6.43663688 L10.25,6.43663688 L10.25,7.92201462 L8,7.92201462 L8,10.1500812 L6.5,10.1500812 L6.5,7.92201462 L4.25,7.92201462 L4.25,6.43663688 L6.5,6.43663688 L6.5,4.20857027 L8,4.20857027 L8,6.43663688 Z"></path>
                            </g>
                        </g>
                    </g>
                </g>
            </g>
        </g>
    </g>
</svg>