<svg width="18" height="14" viewBox="0 0 18 14" fill="none" xmlns="http://www.w3.org/2000/svg">
<path d="M16.3125 0.25H1.6875C0.755508 0.25 0 1.00551 0 1.9375V12.0625C0 12.9945 0.755508 13.75 1.6875 13.75H16.3125C17.2445 13.75 18 12.9945 18 12.0625V1.9375C18 1.00551 17.2445 0.25 16.3125 0.25ZM16.3125 1.9375V3.37205C15.5242 4.01397 14.2675 5.01213 11.5809 7.11584C10.9889 7.58156 9.81605 8.7004 9 8.68736C8.18409 8.70054 7.01089 7.58138 6.41907 7.11584C3.73289 5.01244 2.47588 4.01407 1.6875 3.37205V1.9375H16.3125ZM1.6875 12.0625V5.53743C2.49307 6.17907 3.63547 7.07945 5.37673 8.44295C6.14514 9.04782 7.49081 10.3831 9 10.375C10.5018 10.3831 11.8304 9.06719 12.623 8.44323C14.3642 7.07977 15.5069 6.17914 16.3125 5.53747V12.0625H1.6875Z" fill="white"/>
</svg>
