<svg xmlns="http://www.w3.org/2000/svg" xmlns:xlink="http://www.w3.org/1999/xlink" width="47" height="47" viewBox="0 0 47 47">
    <defs>
        <circle id="3uxhs90xya" cx="23.5" cy="23.5" r="23.5"/>
    </defs>
    <g fill="none" fill-rule="evenodd">
        <g>
            <g>
                <g transform="translate(-303 -3121) translate(30 3014) translate(273 107)">
                    <mask id="5c9jljaz1b" fill="#fff">
                        <use xlink:href="#3uxhs90xya"/>
                    </mask>
                    <use fill="#DEDEDE" xlink:href="#3uxhs90xya"/>
                    <path fill="#333" d="M17.608 36.56c.14.142.331.222.531.223.2.002.392-.08.531-.223L31.19 24.04c.142-.14.223-.332.223-.531 0-.2-.081-.391-.223-.531L18.67 10.455c-.14-.148-.333-.234-.536-.238-.204-.003-.4.076-.545.22-.144.144-.222.34-.22.544.004.204.09.397.24.536l11.987 11.992-11.988 11.989c-.142.14-.22.332-.22.53 0 .2.078.39.22.532z" mask="url(#5c9jljaz1b)"/>
                </g>
            </g>
        </g>
    </g>
</svg>
