<svg xmlns="http://www.w3.org/2000/svg" width="17" height="15" viewBox="0 0 17 15">
    <path fill="#666" d="M14.59 4.333c.01.148.01.297.01.445 0 4.52-3.353 9.73-9.482 9.73-1.888 0-3.642-.562-5.118-1.536.268.032.526.043.805.043 1.558 0 2.992-.54 4.138-1.461-1.466-.032-2.694-1.017-3.117-2.372.207.032.413.053.63.053.299 0 .598-.042.877-.116C1.806 8.8.66 7.425.66 5.762V5.72c.444.254.96.413 1.507.434C1.269 5.54.68 4.492.68 3.306c0-.635.165-1.217.454-1.725 1.64 2.075 4.107 3.43 6.872 3.578-.052-.254-.083-.519-.083-.783 0-1.885 1.486-3.42 3.333-3.42.96 0 1.827.413 2.435 1.08.754-.148 1.476-.434 2.116-.826-.248.794-.774 1.461-1.465 1.884.67-.074 1.32-.264 1.919-.529-.454.678-1.022 1.281-1.672 1.768z"/>
</svg>
