<?xml version="1.0" encoding="UTF-8"?>
<svg viewBox="0 0 25 31" version="1.1" xmlns="http://www.w3.org/2000/svg" xmlns:xlink="http://www.w3.org/1999/xlink">
    <title>horizontal-scroll</title>
    <g id="Welcome" stroke="none" stroke-width="1" fill="none" fill-rule="evenodd">
        <g id="Calc---Mobile" transform="translate(-373.000000, -644.000000)" fill-rule="nonzero">
            <g id="horizontal-scroll" transform="translate(373.000000, 644.000000)">
                <path d="M18.8590053,3.42692151 L22.0682718,3.42692151 C21.7411094,3.78962589 21.7434285,4.36950799 22.076088,4.72850469 C22.243835,4.90943977 22.4636324,5 22.6834299,5 C22.9032274,5 23.1231108,4.90943977 23.2907718,4.72850469 L24.748444,3.1554262 C25.083852,2.79346335 25.083852,2.20653665 24.748444,1.84448111 L23.2907718,0.271402618 C22.9553638,-0.0904675392 22.411496,-0.0904675392 22.0760021,0.271402618 C21.7433426,0.630399318 21.7411094,1.21028141 22.0681859,1.5729858 L18.8589194,1.5729858 C18.3845382,1.5729858 18,1.98796856 18,2.49990731 C18.0000859,3.01193875 18.38471,3.42692151 18.8590053,3.42692151 Z" id="Path" fill="#0000FF"></path>
                <path d="M24.1411559,6.5729858 L20.93185,6.5729858 C21.2590165,6.21028141 21.2566973,5.63039932 20.9240338,5.27140262 C20.5886216,4.90953246 20.0447472,4.90953246 19.7092491,5.27140262 L18.2515591,6.84448111 C17.916147,7.20644396 17.916147,7.79337066 18.2515591,8.1554262 L19.7092491,9.72850469 C19.8769982,9.90943977 20.0967983,10 20.3165985,10 C20.5363987,10 20.7562848,9.90943977 20.9239479,9.72850469 C21.2566115,9.36950799 21.2588447,8.78962589 20.9317641,8.42692151 L24.14107,8.42692151 C24.615457,8.42692151 25,8.01193875 25,7.5 C25.0000859,6.98796856 24.615457,6.5729858 24.1411559,6.5729858 Z" id="Path" fill="#0000FF"></path>
                <path d="M20.3118509,12.9743823 C19.85047,12.9743823 19.3829629,13.0645844 18.9451768,13.232283 C18.3365978,12.0180041 17.0953484,11.1843916 15.6664173,11.1843916 C15.157019,11.1843916 14.6717123,11.2824191 14.2305319,11.4596259 C13.6101141,10.2811922 12.3864987,9.47736668 10.9815762,9.47736668 C10.6296419,9.47736668 10.2849102,9.52734809 9.95557719,9.62402929 C9.95582556,9.28703344 9.95607392,8.94170736 9.95632229,8.59503497 L9.95880594,5.0846405 C9.95946825,4.11488341 9.95971662,3.6818795 9.9562395,3.46554584 L9.95971662,3.46554584 C9.95971662,1.58703589 8.28225411,0 6.29673524,0 C4.26659332,0 2.61496085,1.67866847 2.61496085,3.74204231 L2.61496085,15.1493308 C1.25929761,15.6103546 0.0626712573,16.8820196 0.0124185802,18.69759 C-0.0662305849,21.5376109 0.162845457,25.1313919 2.65287802,27.7343798 C4.75488045,29.9317947 8.04465084,31 12.7101193,31 C16.9062592,31 20.0095897,29.7455845 21.9340106,27.2715048 C23.2856172,25.5338516 24,23.1922143 24,20.4996132 L23.9935425,16.7135637 C23.9935425,14.6530508 22.34191,12.9743823 20.3118509,12.9743823 Z M12.7101193,29.3170402 C2.83269485,29.3170402 1.51569389,24.2282767 1.66752817,18.7448788 C1.70412073,17.4223909 2.82276022,16.6412842 3.73724304,16.6412842 L3.73724304,19.0665604 C3.73724304,19.3715817 3.94537357,19.4070903 4.00746501,19.4070903 C4.06955646,19.4070903 4.27073275,19.3724231 4.27073275,19.0673177 C4.27073275,18.7728986 4.27073275,3.74204231 4.27073275,3.74204231 C4.27073275,2.60483908 5.17776459,1.68287565 6.29673524,1.68287565 C7.3233966,1.68287565 8.30402751,2.48922552 8.30402751,3.46571412 C8.30460703,3.46950059 8.29872904,11.0268744 8.29765279,12.8861996 C8.29757,12.8900702 8.29657654,12.8936884 8.29657654,12.897559 L8.29657654,13.2860509 C8.29657654,13.4712513 8.44435418,13.6213638 8.62657188,13.6213638 C8.80870678,13.6213638 8.95640164,13.4712513 8.95640164,13.2860509 L8.95640164,13.1855832 C8.97436676,12.0641148 9.87394764,11.1604948 10.981659,11.1604948 C12.1005469,11.1604948 13.0076615,12.0824582 13.0076615,13.2197456 L13.0092345,14.7108575 C13.0092345,14.8932813 13.1546941,15.0411219 13.3341797,15.0411219 C13.5135826,15.0411219 13.6589594,14.8932813 13.6589594,14.7108575 L13.6582971,14.6255357 C13.6582971,13.5901465 14.6481175,12.8674355 15.6664173,12.8674355 C16.7854707,12.8674355 17.6882803,13.7893148 17.6882803,14.9266022 L17.692337,16.4358892 C17.692337,16.6133485 17.8339055,16.7572343 18.0085066,16.7572343 C18.1831077,16.7572343 18.3245935,16.6133485 18.3245935,16.4358892 L18.3234344,16.321033 C18.3234344,15.379464 19.3258387,14.6575104 20.3117681,14.6575104 C21.4305732,14.6575104 22.3377706,15.5794738 22.3377706,16.716677 L22.3442281,20.4997815 C22.3442281,24.0180013 20.99792,29.3170402 12.7101193,29.3170402 Z" id="Shape" fill="#0000FF"></path>
                <path d="M12.7101193,29.3170402 C2.83269485,29.3170402 1.51569389,24.2282767 1.66752817,18.7448788 C1.70412073,17.4223909 2.82276022,16.6412842 3.73724304,16.6412842 L3.73724304,19.0665604 C3.73724304,19.3715817 3.94537357,19.4070903 4.00746501,19.4070903 C4.06955646,19.4070903 4.27073275,19.3724231 4.27073275,19.0673177 C4.27073275,18.7728986 4.27073275,3.74204231 4.27073275,3.74204231 C4.27073275,2.60483908 5.17776459,1.68287565 6.29673524,1.68287565 C7.3233966,1.68287565 8.30402751,2.48922552 8.30402751,3.46571412 C8.30460703,3.46950059 8.29872904,11.0268744 8.29765279,12.8861996 C8.29757,12.8900702 8.29657654,12.8936884 8.29657654,12.897559 L8.29657654,13.2860509 C8.29657654,13.4712513 8.44435418,13.6213638 8.62657188,13.6213638 C8.80870678,13.6213638 8.95640164,13.4712513 8.95640164,13.2860509 L8.95640164,13.1855832 C8.97436676,12.0641148 9.87394764,11.1604948 10.981659,11.1604948 C12.1005469,11.1604948 13.0076615,12.0824582 13.0076615,13.2197456 L13.0092345,14.7108575 C13.0092345,14.8932813 13.1546941,15.0411219 13.3341797,15.0411219 C13.5135826,15.0411219 13.6589594,14.8932813 13.6589594,14.7108575 L13.6582971,14.6255357 C13.6582971,13.5901465 14.6481175,12.8674355 15.6664173,12.8674355 C16.7854707,12.8674355 17.6882803,13.7893148 17.6882803,14.9266022 L17.692337,16.4358892 C17.692337,16.6133485 17.8339055,16.7572343 18.0085066,16.7572343 C18.1831077,16.7572343 18.3245935,16.6133485 18.3245935,16.4358892 L18.3234344,16.321033 C18.3234344,15.379464 19.3258387,14.6575104 20.3117681,14.6575104 C21.4305732,14.6575104 22.3377706,15.5794738 22.3377706,16.716677 L22.3442281,20.4997815 C22.3442281,24.0180013 20.99792,29.3170402 12.7101193,29.3170402 Z" id="Path" fill="#FFFFFF"></path>
            </g>
        </g>
    </g>
</svg>