<svg xmlns="http://www.w3.org/2000/svg" width="7" height="8" viewBox="0 0 7 8">
    <g fill="none" fill-rule="evenodd">
        <g fill="#FFFFFF">
            <path d="M166 297v8l.102-.095c.687-.655 1.423-1.251 2.235-1.755 1.002-.62 2.074-1.077 3.233-1.33.298-.066.599-.124.891-.208.132-.038.259-.119.366-.206.223-.182.275-.706-.115-.896-.204-.1-.423-.192-.645-.231-1.075-.187-2.091-.532-3.05-1.04-1.082-.572-2.04-1.306-2.917-2.146-.027-.027-.056-.052-.1-.093" transform="translate(-166 -297)"/>
        </g>
    </g>
</svg>
