<svg viewBox="0 0 20 20" fill="none" xmlns="http://www.w3.org/2000/svg">
<path d="M3.54102 14.6954C3.36393 14.6954 3.21549 14.6354 3.0957 14.5156C2.97591 14.3957 2.91602 14.2472 2.91602 14.0701C2.91602 13.8929 2.97591 13.7445 3.0957 13.6249C3.21549 13.5052 3.36393 13.4454 3.54102 13.4454H16.4576C16.6347 13.4454 16.7832 13.5053 16.903 13.6252C17.0227 13.745 17.0826 13.8935 17.0826 14.0707C17.0826 14.2478 17.0227 14.3962 16.903 14.5159C16.7832 14.6355 16.6347 14.6954 16.4576 14.6954H3.54102ZM3.54102 10.6248C3.36393 10.6248 3.21549 10.5649 3.0957 10.4451C2.97591 10.3252 2.91602 10.1767 2.91602 9.9996C2.91602 9.82243 2.97591 9.67402 3.0957 9.55437C3.21549 9.43471 3.36393 9.37489 3.54102 9.37489H16.4576C16.6347 9.37489 16.7832 9.4348 16.903 9.55464C17.0227 9.67448 17.0826 9.82298 17.0826 10.0001C17.0826 10.1773 17.0227 10.3257 16.903 10.4454C16.7832 10.565 16.6347 10.6248 16.4576 10.6248H3.54102ZM3.54102 6.55435C3.36393 6.55435 3.21549 6.49442 3.0957 6.37458C2.97591 6.25474 2.91602 6.10624 2.91602 5.92907C2.91602 5.75192 2.97591 5.60352 3.0957 5.48387C3.21549 5.3642 3.36393 5.30437 3.54102 5.30437H16.4576C16.6347 5.30437 16.7832 5.36429 16.903 5.48414C17.0227 5.60398 17.0826 5.75249 17.0826 5.92964C17.0826 6.1068 17.0227 6.25521 16.903 6.37487C16.7832 6.49452 16.6347 6.55435 16.4576 6.55435H3.54102Z" fill="currentColor"/>
</svg>
