<svg viewBox="0 0 32 32" fill="none" xmlns="http://www.w3.org/2000/svg">
<path d="M16.0019 17.4051L9.2378 24.1692C9.0532 24.3538 8.82116 24.4482 8.54167 24.4525C8.2622 24.4568 8.02589 24.3624 7.83274 24.1692C7.63956 23.976 7.54297 23.7418 7.54297 23.4666C7.54297 23.1914 7.63956 22.9573 7.83274 22.7641L14.5968 16L7.83274 9.23585C7.64811 9.05125 7.55367 8.8192 7.5494 8.53972C7.54511 8.26025 7.63956 8.02394 7.83274 7.83078C8.02589 7.6376 8.26007 7.54102 8.53527 7.54102C8.81047 7.54102 9.04465 7.6376 9.2378 7.83078L16.0019 14.5949L22.7661 7.83078C22.9507 7.64616 23.1827 7.55172 23.4622 7.54745C23.7417 7.54316 23.978 7.6376 24.1711 7.83078C24.3643 8.02394 24.4609 8.25812 24.4609 8.53332C24.4609 8.80852 24.3643 9.04269 24.1711 9.23585L17.407 16L24.1711 22.7641C24.3558 22.9487 24.4502 23.1808 24.4545 23.4603C24.4588 23.7397 24.3643 23.976 24.1711 24.1692C23.978 24.3624 23.7438 24.4589 23.4686 24.4589C23.1934 24.4589 22.9592 24.3624 22.7661 24.1692L16.0019 17.4051Z" fill="currentColor"/>
</svg>
