<svg xmlns="http://www.w3.org/2000/svg" width="49" height="64" viewBox="0 0 49 64">
    <g fill="none" fill-rule="evenodd">
        <g fill="#333" fill-rule="nonzero">
            <g>
                <g>
                    <g>
                        <g>
                            <path d="M24.381 63.291C11.209 63.275.535 52.601.518 39.43.518 24.907 22.027.335 24.381.335c2.354 0 23.863 24.572 23.863 39.094C48.227 52.6 37.554 63.275 24.38 63.29zm0-61.005c-3.33 2.392-22.027 23.74-22.027 37.158 0 12.173 9.869 22.042 22.042 22.042 12.174 0 22.042-9.869 22.042-22.042C46.423 25.859 27.246 4.57 24.381 2.286z" transform="translate(-271 -965) translate(0 800) translate(113 113) translate(0 52) translate(158)"/>
                            <path d="M26.56 56.815c-.458-.01-.837-.359-.883-.814-.047-.456.254-.874.7-.976 6.378-1.298 11.5-6.044 13.28-12.305.137-.482.638-.762 1.12-.625.482.137.762.638.625 1.12-1.965 6.911-7.619 12.15-14.66 13.585-.06.012-.12.017-.182.015z" transform="translate(-271 -965) translate(0 800) translate(113 113) translate(0 52) translate(158)"/>
                        </g>
                    </g>
                </g>
            </g>
        </g>
    </g>
</svg>
