<svg id="Layer_1" data-name="Layer 1" xmlns="http://www.w3.org/2000/svg" viewBox="0 0 344.11 68.82" width="300" height="60"><defs><style>.cls-1{fill:#fff;}.cls-2{fill:none;}</style></defs><title>Artboard 1</title><path class="cls-1" d="M235.95,34c0-6.87,10.15-12.43,22.67-12.43S281.29,27.16,281.29,34s-10.14,12.42-22.67,12.42S235.95,40.88,235.95,34Zm22.67,11.18c10.78,0,19.52-5,19.52-11.19s-8.74-11.18-19.52-11.18S239.1,27.84,239.1,34,247.83,45.21,258.62,45.21Z"/><path class="cls-1" d="M258.62,31.15c.37-2.1,9.51-2.38,9.51-4.54a.1.1,0,0,1,.1-.1.1.1,0,0,1,.1.1v2.28c0,2.7-9.19,2.36-9.63,5,0,.06,0,.11-.08.11s-.07-.05-.08-.11c-.44-2.59-9.64-2.25-9.64-5V26.62a.11.11,0,0,1,.11-.1.11.11,0,0,1,.1.1C249.11,28.77,258.25,29.06,258.62,31.15Z"/><path class="cls-1" d="M258.62,35.78c.37-2.1,9.51-2.39,9.51-4.54a.1.1,0,0,1,.1-.1.09.09,0,0,1,.1.1v2.27c0,2.71-9.19,2.36-9.63,5,0,.06,0,.11-.08.11s-.07,0-.08-.11c-.44-2.6-9.64-2.24-9.64-5V31.24a.1.1,0,0,1,.11-.1.1.1,0,0,1,.1.1C249.11,33.39,258.25,33.68,258.62,35.78Z"/><path class="cls-1" d="M258.62,40.53c.37-2.11,9.51-2.39,9.51-4.55a.1.1,0,0,1,.1-.1.1.1,0,0,1,.1.1v2.27c0,2.71-9.19,2.36-9.63,5,0,.05,0,.1-.08.1s-.07,0-.08-.1c-.44-2.61-9.64-2.25-9.64-5V36a.1.1,0,0,1,.11-.1.11.11,0,0,1,.1.1C249.11,38.13,258.25,38.42,258.62,40.53Z"/><path class="cls-1" d="M115.93,28.71V45h4.5V32.64h3.17V30h-3.17V28c0-1.68.91-2.93,2.48-2.93a5.9,5.9,0,0,1,3.29,1V23.21a9.31,9.31,0,0,0-3.9-.74C117.78,22.46,115.93,25.22,115.93,28.71Z"/><path class="cls-1" d="M105.25,26.82c-4.4,0-8.28,2.58-8.27,9.39s4,9.28,8.27,9.28,8.25-2.5,8.21-9.28S109.84,26.78,105.25,26.82Zm0,16.05c-2.52,0-3.5-2.08-3.5-6.66,0-4.8,1-6.79,3.5-6.8s3.46,2.16,3.51,6.8S107.74,42.87,105.21,42.87Z"/><path class="cls-1" d="M75.75,45V26.29A9,9,0,0,0,75.28,23h5V45Z"/><path class="cls-1" d="M85.95,27.28h4.74L85,34.19,91.64,45H86.1L80.42,35l4.07-5A6.91,6.91,0,0,0,85.95,27.28Z"/><path class="cls-1" d="M29.88,45H20.26V26.42A11.25,11.25,0,0,0,19.82,23h11c3.06,0,5.8,1.42,5.8,4.88S34.26,32.4,32,32.9c2.3.13,5.84,1.71,5.84,5.7C37.79,42.93,34.18,45,29.88,45ZM25.12,25.43v6.49H28c2.34,0,3.8-1,3.81-3.41S30,25.42,28,25.43Zm0,9v8.1h3.24c2.95,0,4.28-1.51,4.27-4.22s-1.79-3.88-4.27-3.88Z"/><path class="cls-1" d="M47.69,26.8c3.36,0,7.18.48,7.18,5.66v8.81a14.15,14.15,0,0,0,.4,3.7H51c-.07-.26-.21-.82-.31-1.24h0a9.35,9.35,0,0,1-5.51,1.76c-3.36,0-5.63-1.77-5.64-5.12s2.26-5,5.52-5.83c1.44-.36,4.59-1.09,5.29-1.29V32.13c0-2.27-1.27-2.91-2.66-2.91a3,3,0,0,0-3.22,3.07H40.42C40.42,29.94,42,26.8,47.69,26.8Zm.44,9.47c-2,.57-3.94,1.61-3.94,3.67a2.34,2.34,0,0,0,2.64,2.57,5.82,5.82,0,0,0,3.57-1.3V35.68C49.8,35.83,48.93,36,48.13,36.27Z"/><path class="cls-1" d="M67.37,26.82a9.64,9.64,0,0,0-5.06,1.77V27.28H57.4a12.28,12.28,0,0,1,.45,3.38c0,1.28,0,14.32,0,14.32h4.46V31.37a5.79,5.79,0,0,1,3.41-1.52c2.19,0,2.71,1.3,2.71,3.88V45h4.46V33.5C72.89,30.66,72.4,26.82,67.37,26.82Z"/><path class="cls-1" d="M145.17,29.56V27.28h-4.94a11.7,11.7,0,0,1,.45,3.38V45h4.49V34.85c0-3,1.87-4.54,5.08-4.52v-3.5A5.56,5.56,0,0,0,145.17,29.56Z"/><path class="cls-1" d="M223.68,23a9.6,9.6,0,0,1,.46,3.3v2.18a6.42,6.42,0,0,0-4.48-1.63c-2.7,0-7.21,1.55-7.22,9.25,0,7.35,3.57,9.43,7,9.41a7.7,7.7,0,0,0,4.75-1.85V45h4.5V23Zm.46,17.8a4.49,4.49,0,0,1-3.26,1.94c-2,0-3.69-1.13-3.68-6.65,0-5.28,1.8-6.47,3.65-6.47a4.18,4.18,0,0,1,3.29,1.89Z"/><path class="cls-1" d="M132.5,45V26.3a12.09,12.09,0,0,0-.41-3.33h5.27V45Z"/><path class="cls-1" d="M169.81,45s0-17.42,0-18.69a8.87,8.87,0,0,0-.48-3.31h5V45Z"/><path class="cls-1" d="M167.34,35.9c0,.26,0,.51,0,.77H155.68c0,3.83.78,6.2,3.49,6.21,2.17,0,3-1.57,3.27-3.88h4.67c-.93,4.9-4.4,6.48-7.94,6.48-4.51,0-8.25-2.37-8.24-9.56,0-6.21,3.68-9.1,8.24-9.11C163.58,26.82,167.35,29.7,167.34,35.9Zm-11.6-1.59h6.82c-.12-2.17-.79-4.9-3.39-4.9S156,32.22,155.74,34.31Z"/><path class="cls-1" d="M184.85,26.8c3.35,0,7.18.48,7.18,5.66v8.81a14.22,14.22,0,0,0,.4,3.7h-4.24c-.07-.26-.21-.82-.31-1.24h0a9.28,9.28,0,0,1-5.49,1.76c-3.37,0-5.63-1.77-5.65-5.12s2.25-5,5.52-5.83c1.43-.36,4.59-1.09,5.29-1.29V32.13c0-2.27-1.26-2.91-2.65-2.91a3,3,0,0,0-3.22,3.07h-4.12C177.57,29.94,179.13,26.8,184.85,26.8Zm.43,9.47c-2,.57-3.94,1.61-3.93,3.67A2.34,2.34,0,0,0,184,42.51a5.81,5.81,0,0,0,3.56-1.3V35.68C187,35.83,186.09,36,185.28,36.27Z"/><path class="cls-1" d="M204.52,26.82a9.67,9.67,0,0,0-5.06,1.77V27.28h-4.91a12.34,12.34,0,0,1,.45,3.38c0,1.28,0,14.32,0,14.32h4.46V31.37a5.81,5.81,0,0,1,3.4-1.52c2.19,0,2.71,1.3,2.71,3.88V45H210V33.5C210,30.66,209.56,26.82,204.52,26.82Z"/><path class="cls-1" d="M295.47,45.59a10.5,10.5,0,0,0,6.19-2.27V45h4.51V23h-4.51V39.88a5.71,5.71,0,0,1-4.14,2.42c-2.73,0-4.45-1.32-4.45-4.52V23h-5a16.29,16.29,0,0,1,.55,4.21v10c0,3.54.6,8.37,6.86,8.37"/><path class="cls-1" d="M310,45s0-17.44,0-18.72a8.85,8.85,0,0,0-.48-3.31h5V45Z"/><path class="cls-1" d="M320.94,23h4.74L319,33.22,326.37,45h-5l-6.63-11.36,5.08-7.75A8.32,8.32,0,0,0,320.94,23"/><rect class="cls-2" width="344.11" height="68.82" rx="8.59" ry="8.59"/></svg>
