<svg xmlns="http://www.w3.org/2000/svg" width="87" height="93" viewBox="0 0 87 93">
    <g fill="none" fill-rule="evenodd">
        <g fill="#00F">
            <path d="M483.152 411.815s.12 4.082-3.32 4.082c-3.438 0-3.318-4.082-3.318-4.082v-11.848h-4.118v11.848c0 7.232 7.436 7.185 7.436 7.185s7.438.047 7.438-7.185v-11.848h-4.118v11.848zm21.452 6.749l-6.233-10.194 5.19-8.395-3.425-.002-6.013 9.28v-9.286h-4.118v18.596h4.118v-9.286l5.274 9.287h5.207zm-3.75-79.254c0 2.81-12.22 3.116-12.22 6.14h-.269c0-3.024-12.219-3.33-12.219-6.14h-.272v2.933c0 3.502 12.24 3.174 12.491 6.541h.27c.25-3.367 12.49-3.039 12.49-6.541v-2.933h-.271zm0-6.655c0 2.81-12.22 3.116-12.22 6.14h-.269c0-3.024-12.219-3.33-12.219-6.14h-.272v2.933c0 3.502 12.24 3.174 12.491 6.542h.27c.25-3.368 12.49-3.04 12.49-6.542v-2.933h-.271zm0-6.655c0 2.81-12.22 3.115-12.22 6.14h-.269c0-3.025-12.219-3.33-12.219-6.14h-.272v2.932c0 3.503 12.24 3.175 12.491 6.543h.27c.25-3.368 12.49-3.04 12.49-6.543V326h-.271zm-45.127 55.395v-1.932h-3.801l.004 14.942h3.797v-8.545c0-3.669 3.18-3.915 4.99-3.838v-2.912c-2.915-.342-4.655 1.468-4.99 2.285zM445 394.405h4.113v-18.57H445v18.57zm78.301-11.39c-.356-.6-1.452-1.593-2.789-1.593-1.565 0-3.08 1.008-3.089 5.462-.007 4.664 1.434 5.618 3.118 5.618 1.269 0 2.481-1.145 2.76-1.635v-7.852zm0-7.18h3.808v18.57h-3.808v-1.126c-.143.126-1.762 1.545-4.021 1.563-2.868.008-5.903-1.742-5.89-7.947.009-6.495 3.827-7.804 6.116-7.804 1.763-.01 3 .66 3.795 1.375v-4.631zm-16.624 3.233c-2.001 0-3.71 1.137-4.283 1.503v-1.108h-3.775v14.942h3.775v-11.49c.605-.485 1.678-1.282 2.884-1.282 1.853 0 2.296 1.1 2.296 3.276v9.496h3.78v-9.688c0-2.403-.41-5.649-4.677-5.649zm-29.396 15.337h3.803v-18.57h-3.804v18.57zm15.026-7.84c-.496.125-1.239.305-1.921.497-1.671.484-3.335 1.357-3.333 3.096.006 1.45.818 2.17 2.237 2.17 1.315 0 2.538-.657 3.017-1.1v-4.663zm3.793 4.718c0 1.402.153 2.527.335 3.121h-3.588c-.06-.214-.177-.69-.263-1.045-.47.328-2.086 1.48-4.653 1.482-2.858 0-4.77-1.487-4.786-4.319-.015-2.868 1.908-4.256 4.681-4.92 1.213-.3 3.888-.916 4.481-1.093v-.937c0-1.92-1.07-2.456-2.245-2.456-1.432 0-2.725.887-2.728 2.59l-3.485.005c0-1.994 1.321-4.643 6.167-4.643 2.843 0 6.084.406 6.084 4.778v7.437zm-24.96-5.877c-.1-1.832-.673-4.153-2.868-4.153-2.2.011-2.718 2.385-2.91 4.153h5.778zm4.044 1.343c0 .217 0 .433-.011.65h-9.858c.005 3.234.66 5.23 2.957 5.24 1.833.006 2.54-1.328 2.767-3.278l3.96.008c-.785 4.137-3.721 5.473-6.727 5.473-3.818 0-6.99-2.002-6.982-8.072.013-5.236 3.12-7.698 6.982-7.702 3.733 0 6.928 2.445 6.912 7.68zm22.882-22.123l4.804-5.846h-3.26l-5.468 6.565 4.243 8.38h4.69l-5.01-9.1zm-7.727-9.473v18.572h3.803V355.153h-3.803zm-6.15 9.074v9.498h3.78v-9.69c0-2.402-.415-5.65-4.677-5.65-2 0-3.71 1.138-4.28 1.505v-1.11h-3.78v14.945h3.78v-11.492c.598-.485 1.677-1.283 2.883-1.283 1.854 0 2.3 1.1 2.294 3.277zm-30.105 3.846c-.027-2.288-1.518-3.28-3.616-3.273h-1.353v6.84h1.353c2.497 0 3.629-1.273 3.616-3.567zm-4.97-5.36h1.022c1.98-.007 3.22-.84 3.223-2.875.003-2.062-1.458-2.614-3.21-2.607h-1.034v5.481zm2.65 11.012H445v-18.572h7.581c2.593.007 4.914 1.198 4.914 4.123 0 2.811-2.022 3.836-3.978 4.263 1.952.107 4.944 1.444 4.944 4.812 0 3.65-3.064 5.385-6.697 5.374zm14.297-2.08c1.315 0 2.543-.656 3.02-1.097v-4.664c-.507.124-1.248.304-1.925.496-1.674.484-3.335 1.358-3.335 3.097.007 1.449.822 2.168 2.24 2.168zm-1.365 2.515c-2.847 0-4.767-1.487-4.777-4.319-.016-2.869 1.914-4.257 4.678-4.92 1.217-.3 3.892-.917 4.485-1.093v-.938c0-1.92-1.073-2.455-2.25-2.455-1.427 0-2.72.887-2.726 2.59l-3.482.005c0-1.995 1.31-4.644 6.16-4.644 2.845 0 6.082.406 6.082 4.778v7.438c0 1.4.157 2.526.34 3.121h-3.586c-.059-.214-.176-.69-.262-1.046-.476.33-2.092 1.48-4.662 1.483zm46.628-7.83c0 3.866.824 5.622 2.958 5.622 2.139 0 3.012-1.756 2.972-5.621-.04-3.921-.915-5.772-2.972-5.759-2.143.014-2.958 1.706-2.958 5.759zm-4.017 0c-.009-5.746 3.278-7.926 7.002-7.944 3.895-.031 6.928 2.195 6.954 7.945.03 5.717-3.347 7.83-6.954 7.83-3.6 0-6.982-2.086-7.002-7.83zm19.802-6.942v1.725h2.687v2.2h-2.687v10.412h-3.808V360c0-2.948 1.57-5.27 5.394-5.27 1.559 0 2.753.345 3.305.624v2.435c-.73-.505-1.726-.873-2.79-.873-1.328-.006-2.1 1.053-2.1 2.47z" transform="translate(-445 -326)"/>
        </g>
    </g>
</svg>
