<svg width="96" height="115" viewBox="0 0 96 115" fill="none" xmlns="http://www.w3.org/2000/svg">
<g clip-path="url(#clip0_2012_9828)">
<path d="M95.0023 93.3143C95.0023 103.487 48.7277 104.056 48.7277 115H47.737C47.737 104.056 0.999348 103.487 0.999348 93.3143H0V0L96 0V93.3143H95.0023Z" fill="#0000FF"/>
<path d="M72.8359 89.0699C73.3219 89.0699 73.7642 89.1578 74.2061 89.3775L73.9404 90.0367C73.4987 89.861 73.1452 89.773 72.8359 89.773C72.3943 89.7731 72.1738 89.9049 72.1738 90.1685C72.1738 90.3004 72.218 90.3883 72.3506 90.4762C72.4832 90.5641 72.7481 90.696 73.1455 90.8277C73.4989 90.9596 73.72 91.0914 73.8525 91.1793C73.9851 91.2672 74.1177 91.3991 74.2061 91.5309V91.9703C74.2061 92.3658 74.0729 92.6734 73.7637 92.8932C73.4986 93.1127 73.0572 93.2007 72.5273 93.2008C71.9974 93.2008 71.5554 93.1128 71.2461 92.981V92.234C71.7319 92.4536 72.1738 92.5855 72.5713 92.5855C73.1013 92.5855 73.3662 92.4097 73.3662 92.1021C73.3662 92.0143 73.3225 91.9263 73.2783 91.8385C73.2341 91.7506 73.1011 91.7066 73.0127 91.6187C72.9243 91.5309 72.7035 91.4429 72.4385 91.3551C71.9525 91.1793 71.6433 91.0035 71.5107 90.8277C71.334 90.652 71.2461 90.4322 71.2461 90.1246C71.2461 89.773 71.3782 89.5094 71.6875 89.3336C71.9526 89.1579 72.3501 89.0699 72.8359 89.0699ZM29.7139 89.0699H30.8623V89.7291H29.7139V91.8824C29.7139 92.1021 29.7581 92.234 29.8906 92.3219C29.979 92.4097 30.1115 92.4537 30.2881 92.4537C30.5089 92.4537 30.6855 92.4097 30.9062 92.3658V93.025C30.8179 93.0689 30.6851 93.1129 30.5527 93.1129C30.4203 93.1567 30.2439 93.1568 30.0674 93.1568C29.2721 93.1568 28.8301 92.7173 28.8301 91.8824V89.7291H28.2998V89.3336L28.874 89.026L29.1836 88.191H29.7139V89.0699ZM33.3369 89.026C33.867 89.026 34.3089 89.2018 34.6182 89.5094C34.9274 89.817 35.1035 90.3005 35.1035 90.8277V91.2672H32.4092C32.4092 91.6626 32.5411 91.9703 32.7178 92.1461C32.8945 92.3219 33.2042 92.4537 33.5576 92.4537C33.7785 92.4537 33.9998 92.4537 34.2207 92.4098C34.4414 92.3658 34.6621 92.2778 34.8828 92.19V92.8932C34.662 92.981 34.4413 93.0689 34.2646 93.1129C33.9996 93.1568 33.7338 93.1568 33.4688 93.1568C32.8504 93.1567 32.3641 92.981 32.0107 92.6295C31.6574 92.2779 31.4815 91.7504 31.4814 91.1353C31.4814 90.4762 31.6576 89.9488 31.9668 89.5973C32.2761 89.2457 32.7625 89.026 33.3369 89.026ZM48.0498 89.026C48.5799 89.026 49.0218 89.2018 49.3311 89.5094C49.6402 89.817 49.8164 90.3005 49.8164 90.8277V91.2672H47.1221C47.1221 91.6626 47.254 91.9703 47.4307 92.1461C47.6074 92.3219 47.917 92.4537 48.2705 92.4537C48.4914 92.4537 48.7127 92.4537 48.9336 92.4098C49.1543 92.3658 49.375 92.2778 49.5957 92.19V92.8932C49.3749 92.981 49.1542 93.0689 48.9775 93.1129C48.7124 93.1568 48.4909 93.1568 48.1816 93.1568C47.5633 93.1567 47.077 92.981 46.7236 92.6295C46.3703 92.2779 46.1943 91.7504 46.1943 91.1353C46.1943 90.4762 46.3705 89.9488 46.6797 89.5973C46.989 89.2457 47.4754 89.026 48.0498 89.026ZM54.2354 93.0689H53.5723L53.4395 92.5416H53.3955C53.0421 92.981 52.6444 93.1568 52.1143 93.1568C51.6282 93.1568 51.2302 92.981 50.9209 92.6295C50.6117 92.2779 50.4795 91.7505 50.4795 91.0914C50.4795 90.4324 50.6117 89.9049 50.9209 89.5533C51.2302 89.2018 51.6282 88.982 52.1143 88.982C52.6444 88.982 53.0423 89.1578 53.3516 89.5533H53.3955C53.3513 89.2457 53.3516 89.026 53.3516 88.8502V87.4H54.2354V93.0689ZM59.0947 89.026C59.6249 89.026 59.979 89.1139 60.2441 89.3775C60.5091 89.5973 60.6416 89.9489 60.6416 90.4322V93.1568H60.0234V93.1129L59.8467 92.5416H59.8018C59.625 92.8051 59.4042 92.9371 59.2275 93.025C59.0508 93.1128 58.7857 93.1568 58.4766 93.1568C58.079 93.1568 57.7697 93.0689 57.5488 92.8492C57.3279 92.6295 57.1953 92.3218 57.1953 91.9264C57.1953 91.5309 57.3724 91.1793 57.6816 91.0035C57.9909 90.8278 58.4765 90.6959 59.0947 90.6519H59.8018V90.4322C59.8018 90.1686 59.7575 89.9928 59.625 89.8609C59.4925 89.7292 59.3158 89.6852 59.0508 89.6852C58.83 89.6852 58.6534 89.7291 58.4326 89.773C58.2559 89.817 58.0349 89.9049 57.9023 89.9928L57.6367 89.3775C57.8575 89.2458 58.0788 89.1578 58.3438 89.1139C58.6087 89.0699 58.8298 89.026 59.0947 89.026ZM68.8154 89.026C69.3455 89.026 69.7875 89.2018 70.0967 89.5094C70.4059 89.817 70.5381 90.3005 70.5381 90.8277V91.2672H67.8428C67.8428 91.6627 67.9756 91.9703 68.1523 92.1461C68.3733 92.3658 68.6387 92.4537 68.9922 92.4537C69.2129 92.4537 69.4336 92.4536 69.6543 92.4098C69.8752 92.3658 70.0965 92.2779 70.3174 92.19V92.8932C70.0966 92.981 69.8759 93.0689 69.6992 93.1129C69.4783 93.1568 69.2124 93.1568 68.9473 93.1568C68.3289 93.1567 67.8426 92.981 67.4893 92.6295C67.1359 92.2779 66.96 91.7504 66.96 91.1353C66.96 90.4762 67.1361 89.9488 67.4453 89.5973C67.7546 89.2457 68.2411 89.026 68.8154 89.026ZM22.6885 93.1129H21.8047V87.7955H22.6885V93.1129ZM26.1348 88.9381C27.1066 88.9382 27.5928 89.4216 27.5928 90.4322L27.5479 93.1129H26.665V90.608C26.665 90.3005 26.6207 90.0806 26.4883 89.9049C26.3557 89.7291 26.1784 89.6852 25.8691 89.6852C25.5158 89.6852 25.2509 89.7731 25.0742 89.9928C24.8975 90.2125 24.8086 90.5641 24.8086 91.0475V93.0689H24.0137V89.026H24.6768L24.8086 89.5533H24.8535C24.9861 89.3776 25.1629 89.2017 25.3838 89.1139C25.6046 89.026 25.8698 88.9381 26.1348 88.9381ZM38.0635 88.982C38.2402 88.982 38.3733 88.982 38.5059 89.026L38.417 89.817C38.2845 89.7731 38.152 89.773 38.0195 89.773C37.6661 89.773 37.4006 89.8609 37.1797 90.1246C36.9589 90.3882 36.8711 90.652 36.8711 91.0035V93.1129H36.0312V89.0699H36.6943L36.8262 89.773H36.8711C37.0036 89.5534 37.1805 89.3336 37.4014 89.2018C37.578 89.0701 37.8427 88.9821 38.0635 88.982ZM43.8086 88.8941C44.2942 88.8942 44.6473 89.0262 44.8682 89.2457C45.0891 89.4654 45.2217 89.8609 45.2217 90.3443V92.981H44.3828V90.608C44.3828 90.3005 44.3385 90.0806 44.2061 89.9049C44.0735 89.7291 43.8966 89.6852 43.6758 89.6852C43.3224 89.6852 43.1015 89.7731 42.9248 89.9928C42.7481 90.2125 42.7031 90.5201 42.7031 90.9596L42.6592 93.1129H41.7754V90.608C41.7754 90.3004 41.7312 90.0807 41.5986 89.9049C41.4661 89.7292 41.2892 89.6852 41.0684 89.6852C40.7153 89.6852 40.4948 89.7733 40.3623 89.9928C40.1856 90.2125 40.1406 90.5641 40.1406 91.0475V93.0689H39.2578V89.026H39.9199L40.0527 89.5533H40.0967C40.185 89.3775 40.3621 89.2018 40.583 89.1139C40.8039 89.026 41.025 88.9381 41.29 88.9381C41.9083 88.9382 42.3055 89.158 42.5264 89.5533H42.5713C42.7038 89.3338 42.8359 89.2017 43.0566 89.0699C43.2776 88.9381 43.5435 88.8941 43.8086 88.8941ZM56.2676 93.1129H55.4287V89.0699H56.2676V93.1129ZM63.9111 88.982C64.0879 88.982 64.221 88.982 64.3535 89.026L64.2646 89.817C64.1322 89.7731 63.9997 89.773 63.8672 89.773C63.5137 89.773 63.2483 89.8609 63.0273 90.1246C62.8065 90.3882 62.7188 90.652 62.7188 91.0035V93.1129H61.8789V89.0699H62.542L62.6738 89.773C62.8063 89.5534 62.9833 89.3336 63.2041 89.2018C63.425 89.0699 63.6461 88.9821 63.9111 88.982ZM65.9434 93.1129H65.1045V89.0699H65.9434V93.1129ZM59.2275 91.1353C58.83 91.1354 58.5205 91.2233 58.3438 91.3551C58.1672 91.4869 58.0791 91.6628 58.0791 91.9264C58.0791 92.1021 58.1233 92.234 58.2559 92.3658C58.3884 92.4536 58.5655 92.4977 58.7422 92.4977C59.0513 92.4976 59.3165 92.4097 59.4932 92.234C59.6698 92.0582 59.7578 91.7944 59.7578 91.4869V91.1353H59.2275ZM52.335 89.6412C52.0258 89.6413 51.8046 89.7731 51.6279 89.9928C51.4513 90.2564 51.3633 90.6081 51.3633 91.0475C51.3633 91.4869 51.4514 91.8385 51.584 92.0582C51.8049 92.3657 52.0258 92.4537 52.335 92.4537C52.6884 92.4537 52.9541 92.3658 53.1309 92.1461C53.3075 91.9264 53.3955 91.6186 53.3955 91.1793V91.0475C53.3955 90.5642 53.3075 90.1686 53.1309 89.9488C52.9541 89.7291 52.6884 89.6412 52.335 89.6412ZM33.3369 89.6412C33.0718 89.6412 32.8506 89.7291 32.6738 89.9049C32.4971 90.0807 32.4084 90.3444 32.3643 90.6519H34.2207C34.2207 90.3004 34.1318 90.0807 33.9551 89.9049C33.8226 89.7292 33.6019 89.6413 33.3369 89.6412ZM48.0498 89.6412C47.7847 89.6412 47.5634 89.7291 47.3867 89.9049C47.21 90.0807 47.1213 90.3444 47.0771 90.6519H48.9336C48.9336 90.3004 48.8447 90.0807 48.668 89.9049C48.5355 89.7292 48.3148 89.6413 48.0498 89.6412ZM68.7705 89.6412C68.5056 89.6413 68.285 89.7292 68.1084 89.9049C67.9317 90.0807 67.843 90.3443 67.7988 90.6519H69.6543C69.6543 90.3004 69.5661 90.0807 69.4336 89.9049C69.2569 89.7291 69.0798 89.6412 68.7705 89.6412ZM55.8701 87.5318C56.0026 87.5318 56.1353 87.5758 56.2236 87.6637C56.312 87.7516 56.3564 87.8834 56.3564 88.0152C56.3564 88.1471 56.312 88.2789 56.2236 88.3668C56.1353 88.4546 56.0026 88.4986 55.8701 88.4986C55.6935 88.4986 55.6049 88.4547 55.5166 88.3668C55.4283 88.2789 55.3848 88.147 55.3848 88.0152C55.3848 87.8395 55.4283 87.7515 55.5166 87.6637C55.6049 87.5758 55.7376 87.5319 55.8701 87.5318ZM65.5459 87.5318C65.6784 87.5318 65.811 87.5758 65.8994 87.6637C65.9878 87.7516 66.0322 87.8834 66.0322 88.0152C66.0322 88.1471 65.9878 88.2789 65.8994 88.3668C65.811 88.4546 65.6784 88.4986 65.5459 88.4986C65.3693 88.4986 65.2807 88.4547 65.1924 88.3668C65.06 88.2789 65.0605 88.147 65.0605 88.0152C65.0606 87.8395 65.1041 87.7515 65.1924 87.6637C65.2807 87.5758 65.4134 87.5319 65.5459 87.5318Z" fill="white"/>
<path d="M59.8293 72.9255L55.8524 66.4728L59.1648 61.1591L56.9781 61.1582L53.1425 67.0322V61.1545H50.5159V72.9255H53.1425V67.0469L56.5077 72.9255H59.8293ZM46.1443 68.6539C46.1443 68.6539 46.221 71.2374 44.0269 71.2374C41.8328 71.2374 41.9095 68.6539 41.9095 68.6539V61.1545H39.2828V68.6539C39.2828 73.231 44.0269 73.2015 44.0269 73.2015C44.0269 73.2015 48.7719 73.231 48.7719 68.6539V61.1545H46.1443V68.6539Z" fill="white"/>
<path d="M75.5236 34.0275C76.202 34.0275 76.8378 34.2601 77.3037 34.5795V33.0381C76.9515 32.8618 76.19 32.643 75.1955 32.643C72.7555 32.643 71.7546 34.1134 71.7546 35.9797V44.667H74.1835V38.0767H75.8979V36.6839H74.1835V35.592C74.1835 34.6939 74.677 34.0238 75.5236 34.0275ZM66.0013 36.3415C67.3137 36.3323 67.871 37.5045 67.8969 39.9864C67.9218 42.4324 67.3654 43.5437 66.0013 43.5437C64.6399 43.5437 64.1131 42.4324 64.1131 39.9864C64.1131 37.4205 64.6334 36.3498 66.0013 36.3415ZM66.0179 44.942C68.3192 44.942 70.4727 43.6046 70.4542 39.9864C70.4376 36.3461 68.5032 34.9376 66.0179 34.957C63.6426 34.9681 61.5456 36.3489 61.5511 39.9864C61.5631 43.6221 63.7203 44.942 66.0179 44.942ZM33.8104 41.9773C33.8104 40.8771 34.8705 40.3233 35.938 40.0178C36.3705 39.896 36.8428 39.7815 37.1663 39.7031V42.6557C36.8622 42.9345 36.0785 43.3498 35.2393 43.3498C34.3344 43.3498 33.815 42.8948 33.8104 41.9773ZM37.3428 44.0033C37.3973 44.2276 37.4722 44.5294 37.5101 44.6651H39.7976C39.6802 44.2885 39.5804 43.576 39.5804 42.689V37.9817C39.5804 35.2145 37.5156 34.957 35.6995 34.957C32.608 34.957 31.7716 36.6341 31.7716 37.8967L33.9925 37.893C33.9971 36.8159 34.8215 36.2538 35.731 36.2538C36.4824 36.2538 37.1663 36.5925 37.1663 37.8081V38.4016C36.7883 38.5133 35.0821 38.9037 34.3058 39.0939C32.5424 39.5138 31.3113 40.3925 31.3215 42.2081C31.3279 44.0005 32.5525 44.942 34.3686 44.942C36.0082 44.9402 37.0387 44.2119 37.3428 44.0033ZM25.2927 43.3461H24.4295V39.0163H25.2927C26.631 39.0136 27.582 39.6403 27.5996 41.0894C27.6079 42.5413 26.8852 43.3461 25.2927 43.3461ZM24.4295 34.226H25.0894C26.2068 34.2214 27.1384 34.5712 27.1366 35.8763C27.1347 37.1639 26.3436 37.6918 25.0802 37.6955H24.4295V34.226ZM30.3908 41.2648C30.3908 39.1326 28.4822 38.2872 27.2382 38.2189C28.485 37.9484 29.7752 37.2996 29.7752 35.5209C29.7752 33.6694 28.2946 32.9153 26.6402 32.9107H21.8047V44.666H26.119C28.4369 44.6734 30.3908 43.576 30.3908 41.2648ZM46.8041 38.6545V44.666H49.2145V38.5336C49.2145 37.0125 48.9511 34.957 46.232 34.957C44.9557 34.957 43.8651 35.6769 43.5009 35.9095V35.2071H41.0896V44.666H43.5009V37.3928C43.8826 37.0854 44.5712 36.5805 45.3402 36.5805C46.5232 36.5805 46.8078 37.2774 46.8041 38.6545ZM50.7275 32.9107V44.666H53.1536V32.9107H50.7275ZM55.6564 38.9074L58.7211 35.2071H56.6416L53.1536 39.3625L55.8597 44.667H58.8514L55.6564 38.9074ZM34.7929 52.0611C34.9167 50.9415 35.2467 49.4389 36.6496 49.4315C38.0498 49.4315 38.4149 50.9009 38.4796 52.0611H34.7929ZM36.6496 48.0488C34.1856 48.0516 32.2041 49.6096 32.1958 52.9241C32.1902 56.7656 34.2143 58.0329 36.6496 58.0329C38.5674 58.0329 40.4408 57.1875 40.9418 54.5689L38.4149 54.5643C38.2707 55.7983 37.8197 56.6429 36.6496 56.6392C35.1847 56.6327 34.767 55.3691 34.7642 53.3219H41.0517C41.0591 53.1853 41.0591 53.0478 41.0591 52.9103C41.0693 49.5958 39.0314 48.0488 36.6496 48.0488ZM51.9826 55.7467C51.6767 56.0263 50.8966 56.4417 50.0583 56.4417C49.1526 56.4417 48.635 55.9857 48.6313 55.0682C48.6295 53.968 49.6905 53.4142 50.7561 53.1087C51.1924 52.9869 51.6656 52.8733 51.9826 52.7949V55.7467ZM54.4022 51.0735C54.4022 48.3054 52.3338 48.0488 50.5214 48.0488C47.4298 48.0488 46.5869 49.725 46.5869 50.9877L48.8106 50.984C48.8125 49.9059 49.6369 49.3447 50.55 49.3447C51.2996 49.3447 51.9826 49.6844 51.9826 50.8991V51.4925C51.6036 51.6042 49.8984 51.9947 49.1239 52.1848C47.355 52.6057 46.1285 53.4835 46.1387 55.299C46.1489 57.0915 47.3679 58.0329 49.1905 58.0329C50.8282 58.0311 51.8597 57.3028 52.1591 57.0952C52.2146 57.3194 52.2894 57.6203 52.3273 57.756H54.6157C54.4993 57.3804 54.4022 56.6678 54.4022 55.7799V51.0735ZM42.3965 57.7579H44.8235V46.0025H42.3965V57.7579ZM61.15 48.0488C59.8727 48.0488 58.7831 48.7678 58.4171 49.0004V48.298H56.0094V57.7579H58.4171V50.4837C58.8034 50.1763 59.4882 49.6724 60.2572 49.6724C61.4393 49.6724 61.7221 50.3683 61.7221 51.7454V57.7579H64.1316V51.6245C64.1316 50.1034 63.8718 48.0488 61.15 48.0488ZM71.7546 55.5177C71.5762 55.827 70.8036 56.5524 69.993 56.5524C68.9191 56.5524 67.9995 55.9479 68.005 52.9961C68.0105 50.1763 68.9773 49.5386 69.9755 49.5386C70.8285 49.5386 71.5272 50.168 71.7546 50.5474V55.5177ZM71.7546 48.934C71.2472 48.4808 70.4588 48.0562 69.3331 48.0636C67.8728 48.0636 65.4375 48.8924 65.4319 53.0035C65.4227 56.9299 67.3599 58.0394 69.188 58.0329C70.6298 58.0218 71.6631 57.1238 71.7546 57.0444V57.7579H74.1835V46.0025H71.7546V48.934ZM21.8047 57.7579H24.4276V46.0025H21.8047V57.7579ZM28.6477 49.521V48.298H26.2225L26.2243 57.7579H28.6477V52.3482C28.6477 50.0259 30.6754 49.869 31.8307 49.9188V48.0756C29.9712 47.8596 28.8612 49.0041 28.6477 49.521ZM57.4346 14.4571C57.4346 16.2358 49.6406 16.4296 49.6406 18.3439H49.4678C49.4678 16.4296 41.6737 16.2358 41.6737 14.4571H41.4991V16.3133C41.4991 18.5303 49.3088 18.3227 49.4678 20.4548H49.6406C49.7996 18.3227 57.6084 18.5303 57.6084 16.3133V14.4571H57.4346Z" fill="white"/>
<path d="M57.4346 18.6697C57.4346 20.4493 49.6406 20.6422 49.6406 22.5565H49.4678C49.4678 20.6422 41.6737 20.4493 41.6737 18.6697H41.4991V20.5259C41.4991 22.7438 49.3088 22.5362 49.4678 24.6674H49.6406C49.7996 22.5362 57.6084 22.7438 57.6084 20.5259V18.6697H57.4346Z" fill="white"/>
<path d="M49.6406 26.769C49.6406 24.8547 57.4346 24.6618 57.4346 22.8823H57.6084V24.7394C57.6084 26.9555 49.7995 26.7478 49.6406 28.8799H49.4678C49.3088 26.7478 41.4991 26.9555 41.4991 24.7394V22.8823H41.6737C41.6737 24.6618 49.4678 24.8547 49.4678 26.769H49.6406Z" fill="white"/>
<rect x="21.8047" y="79.5102" width="52.4008" height="1.82605" fill="white"/>
</g>
<defs>
<clipPath id="clip0_2012_9828">
<rect width="96" height="115" fill="white"/>
</clipPath>
</defs>
</svg>
