<svg width="128" height="182" viewBox="0 0 128 182" fill="none" xmlns="http://www.w3.org/2000/svg">
<g clip-path="url(#clip0_2013_6776)">
<path d="M117.695 172.364C118.816 172.364 119.836 172.567 120.854 173.077L120.243 174.605C119.224 174.198 118.409 173.994 117.695 173.994C116.677 173.994 116.167 174.3 116.167 174.911C116.167 175.217 116.269 175.421 116.575 175.625C116.881 175.829 117.493 176.134 118.409 176.439C119.224 176.745 119.733 177.051 120.039 177.255C120.345 177.458 120.651 177.764 120.854 178.07V179.089C120.854 180.006 120.549 180.72 119.836 181.229C119.225 181.739 118.205 181.942 116.982 181.942C115.76 181.942 114.741 181.738 114.027 181.432V179.701C115.148 180.21 116.167 180.515 117.084 180.515C118.307 180.515 118.919 180.108 118.919 179.394C118.919 179.191 118.817 178.987 118.715 178.783C118.613 178.579 118.307 178.478 118.104 178.274C117.9 178.07 117.39 177.867 116.778 177.663C115.657 177.255 114.944 176.847 114.639 176.439C114.231 176.032 114.027 175.523 114.027 174.809C114.027 173.994 114.333 173.383 115.046 172.975C115.657 172.568 116.575 172.364 117.695 172.364ZM18.2402 172.363H20.8896V173.892H18.2402V178.885C18.2402 179.394 18.3419 179.7 18.6475 179.904C18.8512 180.108 19.1571 180.21 19.5645 180.21C20.0739 180.21 20.4818 180.108 20.9912 180.006V181.535C20.7875 181.637 20.4821 181.738 20.1768 181.738C19.8711 181.84 19.4632 181.841 19.0557 181.841C17.2214 181.841 16.2021 180.821 16.2021 178.885V173.892H14.9795V172.974L16.3037 172.262L17.0176 170.325H18.2402V172.363ZM26.5967 172.262C27.8193 172.262 28.8385 172.669 29.5518 173.383C30.265 174.096 30.6719 175.217 30.6719 176.44V177.459H24.4561C24.4561 178.376 24.7623 179.089 25.1699 179.497C25.5775 179.904 26.2904 180.21 27.1055 180.21C27.6148 180.21 28.1244 180.21 28.6338 180.108C29.1433 180.006 29.6536 179.802 30.1631 179.598V181.229C29.6536 181.433 29.1439 181.637 28.7363 181.739C28.1251 181.841 27.5136 181.841 26.9023 181.841C25.4757 181.841 24.3543 181.433 23.5391 180.618C22.7239 179.803 22.3164 178.58 22.3164 177.153C22.3164 175.625 22.7242 174.402 23.4375 173.587C24.1508 172.772 25.272 172.262 26.5967 172.262ZM60.5293 172.262C61.752 172.262 62.7711 172.669 63.4844 173.383C64.1977 174.096 64.6055 175.217 64.6055 176.44V177.459H58.3896C58.3896 178.376 58.695 179.089 59.1025 179.497C59.5101 179.904 60.2239 180.21 61.0391 180.21C61.5484 180.21 62.058 180.21 62.5674 180.108C63.0768 180.006 63.5863 179.802 64.0957 179.598V181.229C63.5862 181.433 63.0765 181.637 62.6689 181.739C62.0576 181.841 61.5481 181.841 60.835 181.841C59.4083 181.841 58.2869 181.433 57.4717 180.618C56.6566 179.803 56.249 178.58 56.249 177.153C56.249 175.625 56.6569 174.402 57.3701 173.587C58.0834 172.772 59.2046 172.262 60.5293 172.262ZM74.7949 181.637H73.2666L72.9609 180.414H72.8594C72.0442 181.433 71.127 181.841 69.9043 181.841C68.7834 181.841 67.8656 181.433 67.1523 180.618C66.439 179.803 66.1338 178.579 66.1338 177.051C66.1338 175.522 66.4391 174.299 67.1523 173.484C67.8657 172.669 68.7834 172.16 69.9043 172.16C71.1268 172.16 72.0436 172.567 72.7568 173.484H72.8594C72.7575 172.771 72.7568 172.262 72.7568 171.854V168.491H74.7949V181.637ZM86.0049 172.262C87.2274 172.262 88.043 172.466 88.6543 173.077C89.2656 173.586 89.5713 174.402 89.5713 175.523V181.841H88.1445V181.739L87.7363 180.414H87.6348C87.2273 181.025 86.7181 181.331 86.3105 181.535C85.903 181.739 85.2913 181.841 84.5781 181.841C83.661 181.841 82.947 181.637 82.4375 181.128C81.928 180.618 81.623 179.904 81.623 178.987C81.6231 178.07 82.0301 177.255 82.7432 176.847C83.4565 176.44 84.5783 176.134 86.0049 176.032H87.6348V175.523C87.6348 174.912 87.5331 174.504 87.2275 174.198C86.9218 173.892 86.5137 173.791 85.9023 173.791C85.3929 173.791 84.985 173.892 84.4756 173.994C84.068 174.096 83.5586 174.3 83.2529 174.504L82.6416 173.077C83.1511 172.771 83.6611 172.568 84.2725 172.466C84.8837 172.364 85.3936 172.262 86.0049 172.262ZM108.423 172.262C109.646 172.262 110.665 172.669 111.378 173.383C112.091 174.096 112.396 175.217 112.396 176.44V177.459H106.181C106.181 178.376 106.487 179.089 106.895 179.497C107.404 180.006 108.015 180.21 108.83 180.21C109.339 180.21 109.849 180.21 110.358 180.108C110.868 180.006 111.378 179.802 111.888 179.598V181.229C111.378 181.433 110.869 181.637 110.461 181.739C109.951 181.841 109.34 181.841 108.729 181.841C107.302 181.841 106.18 181.433 105.365 180.618C104.55 179.803 104.143 178.58 104.143 177.153C104.143 175.625 104.55 174.402 105.264 173.587C105.977 172.772 107.098 172.262 108.423 172.262ZM2.03809 181.739H0V169.409H2.03809V181.739ZM50.7471 171.956C51.8678 171.956 52.6829 172.262 53.1924 172.771C53.7019 173.281 54.0078 174.198 54.0078 175.319V181.433H52.0713V175.93C52.0713 175.217 51.9698 174.707 51.6641 174.3C51.3585 173.892 50.9507 173.791 50.4414 173.791C49.6263 173.791 49.1166 173.994 48.709 174.504C48.3014 175.013 48.1992 175.727 48.1992 176.746L48.0977 181.739H46.0596V175.93C46.0596 175.217 45.9571 174.707 45.6514 174.3C45.3457 173.892 44.9381 173.791 44.4287 173.791C43.6136 173.791 43.1045 173.994 42.7988 174.504C42.3913 175.013 42.2891 175.828 42.2891 176.949V181.637H40.251V172.262H41.7793L42.085 173.484H42.1865C42.3903 173.077 42.7983 172.669 43.3076 172.466C43.8171 172.262 44.3271 172.058 44.9385 172.058C46.3649 172.058 47.2825 172.567 47.792 173.484H47.8936C48.1992 172.975 48.5053 172.67 49.0146 172.364C49.5241 172.058 50.1357 171.956 50.7471 171.956ZM9.98633 172.057C12.2281 172.057 13.3486 173.179 13.3486 175.522L13.2471 181.738H11.209V175.93C11.209 175.217 11.1074 174.707 10.8018 174.3C10.4961 173.892 10.0882 173.79 9.375 173.79C8.55979 173.79 7.94862 173.994 7.54102 174.504C7.13341 175.013 6.92969 175.828 6.92969 176.949V181.637H5.09473V172.262H6.62402L6.92969 173.484H7.03125C7.33691 173.077 7.74454 172.669 8.25391 172.466C8.76341 172.262 9.37492 172.057 9.98633 172.057ZM37.499 172.159C37.9066 172.159 38.2129 172.16 38.5186 172.262L38.3145 174.096C38.0088 173.994 37.7031 173.994 37.3975 173.994C36.5825 173.994 35.9713 174.197 35.4619 174.808C34.9525 175.42 34.7481 176.031 34.748 176.846V181.738H32.8125V172.363H34.3408L34.6465 173.994H34.748C35.0537 173.484 35.4612 172.974 35.9707 172.669C36.3782 172.363 36.9896 172.159 37.499 172.159ZM79.4824 181.738H77.5469V172.364H79.4824V181.738ZM97.1113 172.159C97.5189 172.159 97.8252 172.16 98.1309 172.262L97.9268 174.096C97.6211 173.994 97.3154 173.994 97.0098 173.994C96.1946 173.994 95.5827 174.197 95.0732 174.808C94.5638 175.42 94.3604 176.031 94.3604 176.846V181.738H92.4238V172.363H93.9531L94.2588 173.994C94.5645 173.484 94.9719 172.974 95.4814 172.669C95.9908 172.363 96.5002 172.159 97.1113 172.159ZM101.799 181.738H99.8633V172.364H101.799V181.738ZM86.3105 177.153C85.3936 177.153 84.6801 177.357 84.2725 177.663C83.8649 177.969 83.6612 178.376 83.6611 178.987C83.6611 179.395 83.7627 179.701 84.0684 180.007C84.374 180.21 84.7819 180.312 85.1895 180.312C85.9026 180.312 86.5143 180.109 86.9219 179.701C87.3294 179.293 87.5332 178.682 87.5332 177.969V177.153H86.3105ZM70.4141 173.688C69.7008 173.688 69.1908 173.994 68.7832 174.504C68.3757 175.115 68.1719 175.93 68.1719 176.949C68.1719 177.968 68.3759 178.783 68.6816 179.293C69.1911 180.006 69.7008 180.21 70.4141 180.21C71.229 180.21 71.8405 180.006 72.248 179.497C72.6556 178.987 72.8594 178.274 72.8594 177.255V176.949C72.8594 175.828 72.6556 174.911 72.248 174.401C71.8405 173.892 71.229 173.688 70.4141 173.688ZM26.5967 173.688C25.9853 173.688 25.475 173.892 25.0674 174.3C24.6598 174.707 24.4564 175.319 24.3545 176.032H28.6338C28.6337 175.217 28.43 174.707 28.0225 174.3C27.7168 173.892 27.2077 173.688 26.5967 173.688ZM60.5293 173.688C59.9181 173.688 59.4085 173.892 59.001 174.3C58.5934 174.707 58.389 175.319 58.2871 176.032H62.5674C62.5673 175.217 62.3636 174.707 61.9561 174.3C61.6504 173.892 61.1406 173.688 60.5293 173.688ZM108.32 173.688C107.709 173.688 107.199 173.892 106.792 174.3C106.384 174.707 106.181 175.319 106.079 176.032H110.358C110.358 175.217 110.155 174.707 109.85 174.3C109.442 173.892 109.034 173.688 108.32 173.688ZM78.5654 168.797C78.871 168.797 79.1771 168.899 79.3809 169.102C79.5846 169.306 79.6865 169.612 79.6865 169.918C79.6865 170.223 79.5846 170.529 79.3809 170.733C79.1771 170.937 78.8711 171.039 78.5654 171.039C78.158 171.039 77.9538 170.937 77.75 170.733C77.5463 170.529 77.4443 170.223 77.4443 169.918C77.4444 169.51 77.5462 169.306 77.75 169.102C77.9538 168.899 78.2598 168.797 78.5654 168.797ZM100.882 168.797C101.187 168.797 101.493 168.899 101.697 169.102C101.901 169.306 102.003 169.612 102.003 169.918C102.003 170.223 101.901 170.529 101.697 170.733C101.493 170.937 101.188 171.039 100.882 171.039C100.474 171.039 100.27 170.937 100.066 170.733C99.761 170.529 99.7607 170.223 99.7607 169.918C99.7608 169.51 99.8626 169.306 100.066 169.102C100.27 168.899 100.576 168.797 100.882 168.797Z" fill="#0000FF"/>
<path d="M87.6981 135.579L78.5259 120.616L86.1655 108.295L81.1222 108.293L72.276 121.913V108.284H66.2181V135.579H72.276V121.948L80.0372 135.579H87.6981ZM56.1356 125.674C56.1356 125.674 56.3125 131.665 51.2521 131.665C46.1917 131.665 46.3687 125.674 46.3687 125.674V108.284H40.3107V125.674C40.3107 136.288 51.2521 136.219 51.2521 136.219C51.2521 136.219 62.1957 136.288 62.1957 125.674V108.284H56.1356V125.674Z" fill="#0000FF"/>
<path d="M123.895 45.3809C125.459 45.3809 126.926 45.9202 128 46.6608V43.0865C127.188 42.6777 125.431 42.1704 123.138 42.1704C117.51 42.1704 115.202 45.5799 115.202 49.9076V70.052H120.804V54.7703H124.758V51.5406H120.804V49.0087C120.804 46.9262 121.942 45.3723 123.895 45.3809ZM101.933 50.7466C104.96 50.7252 106.245 53.4433 106.305 59.1986C106.362 64.8704 105.079 67.4473 101.933 67.4473C98.7929 67.4473 97.5779 64.8704 97.5779 59.1986C97.5779 53.2486 98.778 50.7658 101.933 50.7466ZM101.971 70.6898C107.279 70.6898 112.245 67.5885 112.203 59.1986C112.164 50.7573 107.703 47.4912 101.971 47.5361C96.4929 47.5618 91.6564 50.7637 91.6691 59.1986C91.6969 67.6292 96.672 70.6898 101.971 70.6898ZM27.6894 63.8152C27.6894 61.264 30.1343 59.9798 32.5963 59.2714C33.5939 58.9888 34.6831 58.7234 35.4292 58.5415V65.3883C34.7279 66.0347 32.9203 66.9978 30.9848 66.9978C28.898 66.9978 27.7 65.9427 27.6894 63.8152ZM35.8363 68.5132C35.9621 69.0332 36.1348 69.7331 36.2222 70.0477H41.4978C41.2271 69.1745 40.9969 67.5222 40.9969 65.4654V54.5499C40.9969 48.1333 36.2349 47.5361 32.0464 47.5361C24.9162 47.5361 22.9871 51.425 22.9871 54.353L28.1093 54.3444C28.12 51.8467 30.0214 50.5433 32.1188 50.5433C33.8518 50.5433 35.4292 51.3287 35.4292 54.1475V55.5237C34.5574 55.7827 30.6225 56.688 28.8319 57.1289C24.7648 58.1028 21.9256 60.1403 21.949 64.3503C21.9639 68.5067 24.7883 70.6898 28.9769 70.6898C32.7583 70.6855 35.135 68.9969 35.8363 68.5132ZM8.04463 66.9893H6.05372V56.9492H8.04463C11.1312 56.9427 13.3246 58.396 13.3651 61.7562C13.3843 65.1229 11.7174 66.9893 8.04463 66.9893ZM6.05372 45.841H7.57568C10.1528 45.8303 12.3014 46.6415 12.2972 49.6679C12.2929 52.6536 10.4683 53.8778 7.55437 53.8864H6.05372V45.841ZM19.8025 62.1629C19.8025 57.2188 15.4008 55.2583 12.5316 55.0999C15.4072 54.4728 18.3829 52.9682 18.3829 48.8439C18.3829 44.5504 14.968 42.8018 11.1525 42.7911H0V70.0499H9.95027C15.2963 70.067 19.8025 67.5222 19.8025 62.1629ZM57.6575 56.1102V70.0499H63.2166V55.8298C63.2166 52.3026 62.6091 47.5361 56.338 47.5361C53.3943 47.5361 50.879 49.2056 50.0391 49.7449V48.1162H44.4778V70.0499H50.0391V53.1844C50.9195 52.4717 52.5075 51.3009 54.281 51.3009C57.0094 51.3009 57.666 52.9168 57.6575 56.1102ZM66.7061 42.7911V70.0499H72.3015V42.7911H66.7061ZM78.0738 56.6966L85.1422 48.1162H80.3461L72.3015 57.7518L78.5428 70.052H85.4428L78.0738 56.6966ZM29.9553 87.1979C30.2409 84.6017 31.0019 81.1173 34.2376 81.1002C37.467 81.1002 38.309 84.5076 38.4582 87.1979H29.9553ZM34.2376 77.8941C28.5548 77.9005 23.9847 81.5133 23.9655 89.1991C23.9527 98.107 28.6209 101.046 34.2376 101.046C38.6607 101.046 42.9814 99.0851 44.1368 93.0131L38.309 93.0024C37.9765 95.864 36.9362 97.8223 34.2376 97.8138C30.8591 97.7988 29.8956 94.8687 29.8892 90.1216H44.3904C44.4075 89.8048 44.4075 89.4859 44.4075 89.167C44.4309 81.4812 39.7308 77.8941 34.2376 77.8941ZM69.6008 95.7441C68.8952 96.3926 67.0961 97.3557 65.1628 97.3557C63.0738 97.3557 61.8801 96.2984 61.8716 94.171C61.8674 91.6198 64.3144 90.3356 66.7721 89.6271C67.7783 89.3446 68.8696 89.0814 69.6008 88.8994V95.7441ZM75.1813 84.9078C75.1813 78.4891 70.4108 77.8941 66.2307 77.8941C59.1005 77.8941 57.1565 81.7808 57.1565 84.7087L62.2851 84.7002C62.2894 82.2003 64.1908 80.899 66.2968 80.899C68.0255 80.899 69.6008 81.6867 69.6008 84.5033V85.8795C68.7268 86.1385 64.794 87.0438 63.0077 87.4847C58.9279 88.4607 56.0993 90.4961 56.1227 94.7061C56.1462 98.8625 58.9577 101.046 63.1612 101.046C66.9384 101.041 69.3173 99.3526 70.0079 98.8711C70.1358 99.3912 70.3085 100.089 70.3959 100.404H75.6737C75.4051 99.5324 75.1813 97.8801 75.1813 95.8211V84.9078ZM47.4919 100.408H53.0894V73.149H47.4919V100.408ZM90.744 77.8941C87.7982 77.8941 85.285 79.5613 84.4409 80.1007V78.4719H78.8881V100.408H84.4409V83.5401C85.3319 82.8274 86.9114 81.6588 88.6849 81.6588C91.4112 81.6588 92.0635 83.2726 92.0635 86.4659V100.408H97.6206V86.1856C97.6206 82.6583 97.0216 77.8941 90.744 77.8941ZM115.202 95.2133C114.791 95.9303 113.009 97.6126 111.139 97.6126C108.662 97.6126 106.541 96.2107 106.554 89.366C106.567 82.8274 108.796 81.3485 111.099 81.3485C113.066 81.3485 114.678 82.8082 115.202 83.6878V95.2133ZM115.202 79.9466C114.032 78.8957 112.213 77.9112 109.617 77.9283C106.249 77.9283 100.632 79.8503 100.62 89.3831C100.598 98.488 105.066 101.061 109.282 101.046C112.608 101.02 114.991 98.9374 115.202 98.7533V100.408H120.804V73.149H115.202V79.9466ZM0 100.408H6.04946V73.149H0V100.408ZM15.7823 81.3078V78.4719H10.189L10.1933 100.408H15.7823V87.8635C15.7823 82.4786 20.459 82.1147 23.1235 82.2303V77.9561C18.8348 77.4553 16.2747 80.1093 15.7823 81.3078ZM82.175 0.000228882C82.175 4.12457 64.1993 4.57404 64.1993 9.01301H63.8007C63.8007 4.57404 45.825 4.12457 45.825 0.000228882H45.4221V4.30436C45.4221 9.44534 63.4341 8.96378 63.8007 13.9079H64.1993C64.5659 8.96378 82.5758 9.44534 82.5758 4.30436V0.000228882H82.175Z" fill="#0000FF"/>
<path d="M82.175 9.76852C82.175 13.895 64.1993 14.3423 64.1993 18.7813H63.8007C63.8007 14.3423 45.825 13.895 45.825 9.76852H45.4221V14.0727C45.4221 19.2158 63.4341 18.7342 63.8007 23.6761H64.1993C64.5659 18.7342 82.5758 19.2158 82.5758 14.0727V9.76852H82.175Z" fill="#0000FF"/>
<path d="M64.1993 28.5496C64.1993 24.1106 82.175 23.6633 82.175 19.5368H82.5758V23.8431C82.5758 28.9819 64.5659 28.5004 64.1993 33.4444H63.8007C63.4341 28.5004 45.4221 28.9819 45.4221 23.8431V19.5368H45.825C45.825 23.6633 63.8007 24.1106 63.8007 28.5496H64.1993Z" fill="#0000FF"/>
<rect y="150.848" width="120.855" height="4.23432" fill="#0000FF"/>
</g>
<defs>
<clipPath id="clip0_2013_6776">
<rect width="128" height="181.94" fill="white"/>
</clipPath>
</defs>
</svg>
