<svg xmlns="http://www.w3.org/2000/svg" width="17" height="17" viewBox="0 0 17 17">
    <g>
        <g>
            <path d="M127.662 523.25c4.094 0 7.412 3.318 7.412 7.412 0 1.867-.69 3.573-1.83 4.876l3.22 3.218c.195.196.195.512 0 .708-.174.173-.443.192-.638.057l-.07-.057-3.218-3.22c-1.303 1.14-3.01 1.83-4.876 1.83-4.094 0-7.412-3.318-7.412-7.412 0-4.094 3.318-7.412 7.412-7.412zm0 1c-3.541 0-6.412 2.87-6.412 6.412 0 3.541 2.87 6.412 6.412 6.412 3.541 0 6.412-2.87 6.412-6.412 0-3.541-2.87-6.412-6.412-6.412z" transform="translate(-120 -523)"/>
        </g>
    </g>
</svg>
