<svg xmlns="http://www.w3.org/2000/svg" width="16" height="16" viewBox="0 0 16 16">
    <path fill="#333" fill-rule="evenodd" d="M15.429 4h-2.286V.571c0-.151-.06-.297-.167-.404C12.869.06 12.723 0 12.57 0H3.43c-.316 0-.572.256-.572.571V4H.571C.256 4 0 4.256 0 4.571v6.858c0 .151.06.297.167.404.107.107.253.167.404.167h2.286v3.429c0 .151.06.297.167.404.107.107.253.167.405.167h9.142c.152 0 .298-.06.405-.167.107-.107.167-.253.167-.404V12h2.286c.151 0 .297-.06.404-.167.107-.107.167-.253.167-.404V4.57c0-.151-.06-.297-.167-.404C15.726 4.06 15.58 4 15.429 4zM4 1.143h8V4H4V1.143zm8 13.714H4V9.714h8v5.143zm2.857-4h-1.714V9.143c0-.152-.06-.297-.167-.404-.107-.108-.253-.168-.405-.168H3.43c-.316 0-.572.256-.572.572v1.714H1.143V5.143h13.714v5.714z"/>
</svg>
