<svg xmlns="http://www.w3.org/2000/svg" width="18" height="17" viewBox="0 0 18 17">
    <path fill="#666" d="M8.274 4.016c-2.34 0-4.226 1.887-4.226 4.227 0 2.34 1.887 4.226 4.226 4.226S12.5 10.582 12.5 8.243c0-2.34-1.887-4.227-4.226-4.227zm0 6.975c-1.512 0-2.747-1.233-2.747-2.748 0-1.516 1.232-2.748 2.747-2.748s2.747 1.232 2.747 2.748c0 1.515-1.236 2.748-2.747 2.748zm5.384-7.148c0 .548-.441.986-.986.986-.548 0-.985-.441-.985-.986 0-.544.441-.986.985-.986.545 0 .986.442.986.986zm2.799 1c-.063-1.32-.364-2.49-1.332-3.453C14.162.426 12.992.124 11.672.058c-1.36-.077-5.44-.077-6.8 0C3.555.12 2.386.422 1.419 1.386.45 2.35.154 3.519.087 4.84c-.077 1.361-.077 5.44 0 6.802.063 1.32.364 2.49 1.332 3.454.967.964 2.133 1.265 3.453 1.331 1.36.078 5.44.078 6.8 0 1.32-.062 2.49-.364 3.453-1.331.964-.964 1.266-2.134 1.332-3.454.077-1.361.077-5.437 0-6.798zm-1.758 8.259c-.287.721-.842 1.276-1.567 1.567-1.085.43-3.66.331-4.858.331-1.199 0-3.777.096-4.858-.331-.721-.287-1.277-.842-1.567-1.567-.43-1.085-.331-3.66-.331-4.86 0-1.199-.096-3.777.331-4.859.287-.72.842-1.276 1.567-1.567 1.085-.43 3.659-.33 4.858-.33 1.199 0 3.777-.096 4.858.33.721.287 1.276.843 1.567 1.567.43 1.085.33 3.66.33 4.86 0 1.199.1 3.777-.33 4.859z"/>
</svg>
