<svg width="18" height="18" viewBox="0 0 18 18" fill="none" xmlns="http://www.w3.org/2000/svg">
<g clip-path="url(#clip0_37_1072)">
<path d="M4.30527 17.6502H0.780804V6.30048H4.30527V17.6502ZM2.54114 4.75226C1.41413 4.75226 0.5 3.81878 0.5 2.69177C0.5 2.15043 0.715048 1.63126 1.09784 1.24847C1.48062 0.865683 1.99979 0.650635 2.54114 0.650635C3.08248 0.650635 3.60165 0.865683 3.98444 1.24847C4.36723 1.63126 4.58228 2.15043 4.58228 2.69177C4.58228 3.81878 3.66777 4.75226 2.54114 4.75226ZM17.4962 17.6502H13.9793V12.1252C13.9793 10.8085 13.9528 9.11989 12.1469 9.11989C10.3145 9.11989 10.0337 10.5505 10.0337 12.0304V17.6502H6.51299V6.30048H9.89326V7.84869H9.94259C10.4131 6.95695 11.5625 6.01588 13.2773 6.01588C16.8443 6.01588 17.5 8.36476 17.5 11.4157V17.6502H17.4962Z" fill="white"/>
</g>
<defs>
<clipPath id="clip0_37_1072">
<rect width="17" height="17" fill="white" transform="translate(0.5 0.650146)"/>
</clipPath>
</defs>
</svg>
