<svg xmlns="http://www.w3.org/2000/svg" width="23" height="23" viewBox="0 0 23 23">
    <g>
        <path d="M9.919 0C4.456 0 0 4.456 0 9.919c0 5.462 4.456 9.918 9.919 9.918 5.462 0 9.918-4.456 9.918-9.918C19.837 4.456 15.381 0 9.92 0zm0 18.688c-4.83 0-8.769-3.94-8.769-8.77S5.089 1.15 9.919 1.15s8.768 3.939 8.768 8.769-3.938 8.768-8.768 8.768z"/>
        <path d="M18.227 17.394c-.23-.23-.575-.23-.805 0-.23.23-.23.575 0 .805l4.63 4.628c.085.115.23.173.373.173.144 0 .287-.058.402-.172.23-.23.23-.575 0-.805l-4.6-4.63z"/>
    </g>
</svg>
