<svg xmlns="http://www.w3.org/2000/svg" width="16" height="16" viewBox="0 0 16 16">
    <g fill="#FFF" fill-rule="evenodd">
        <path d="M8 .083C3.633.083.083 3.633.083 8S3.633 15.917 8 15.917s7.917-3.55 7.917-7.917S12.367.083 8 .083zM8 14.95c-3.833 0-6.95-3.117-6.95-6.95S4.167 1.05 8 1.05 14.95 4.167 14.95 8 11.833 14.95 8 14.95z"/>
        <path d="M11.667 5.5l-4.684 4.684L4.6 7.8c-.234-.233-.617-.233-.85 0-.234.233-.234.617 0 .85l2.8 2.8c.116.117.266.184.433.184.167 0 .316-.066.434-.183l5.1-5.1c.233-.234.233-.617 0-.851-.234-.233-.6-.233-.85 0z"/>
    </g>
</svg>
