<svg width="20" height="16" viewBox="0 0 20 16" fill="none" xmlns="http://www.w3.org/2000/svg">
<path d="M17.3951 4.16615C17.407 4.33342 17.407 4.50073 17.407 4.668C17.407 9.76996 13.5238 15.6486 6.42643 15.6486C4.23986 15.6486 2.20863 15.0153 0.5 13.9161C0.810671 13.9519 1.10935 13.9639 1.43198 13.9639C3.23616 13.9639 4.89702 13.3545 6.2233 12.315C4.52662 12.2792 3.10475 11.168 2.61486 9.63855C2.85385 9.67437 3.0928 9.69828 3.34374 9.69828C3.69023 9.69828 4.03676 9.65047 4.35935 9.56687C2.59099 9.20838 1.26467 7.6551 1.26467 5.7792V5.73142C1.77843 6.01819 2.3759 6.19741 3.00913 6.22128C1.96961 5.52826 1.28857 4.34538 1.28857 3.00714C1.28857 2.29025 1.47971 1.63308 1.81429 1.05955C3.7141 3.40145 6.5698 4.93082 9.77194 5.09813C9.71222 4.81136 9.67636 4.51268 9.67636 4.21396C9.67636 2.08712 11.3969 0.354614 13.5357 0.354614C14.6469 0.354614 15.6506 0.820602 16.3555 1.57335C17.2277 1.40608 18.0641 1.08346 18.805 0.641379C18.5182 1.53753 17.9088 2.29028 17.1083 2.76819C17.885 2.68459 18.6377 2.46947 19.3307 2.17079C18.805 2.93546 18.1478 3.61649 17.3951 4.16615Z" fill="white"/>
</svg>
