<svg xmlns="http://www.w3.org/2000/svg" width="62" height="62" viewBox="0 0 62 62">
    <g fill="none" fill-rule="evenodd">
        <g fill="#333" fill-rule="nonzero">
            <g>
                <g>
                    <g>
                        <g>
                            <g>
                                <path d="M2.361 59H59.56c.797 0 1.514-.4 1.992-1.038s.557-1.436.318-2.155L49.442 19.97c-.319-.957-1.275-1.596-2.23-1.596h-7.648c1.752-2.075 2.629-4.71 2.629-7.423C42.033 5.203 37.253.254 31.518.015c-3.027-.16-5.975.958-8.206 3.113-2.23 2.155-3.425 5.028-3.425 8.061 0 2.634.956 5.189 2.629 7.184h-7.727c-1.036 0-1.912.639-2.231 1.596L.131 55.807c-.24.719-.16 1.517.318 2.235.398.639 1.115.958 1.912.958zM14.71 20.05h32.423c.318 0 .637.239.717.478l12.348 35.838c.08.24.08.479-.08.718-.16.24-.398.32-.637.32H2.36c-.239 0-.478-.16-.637-.32-.16-.24-.16-.479-.08-.718l12.348-35.838c.08-.32.398-.479.717-.479zm6.692-8.78c0-2.635 1.035-5.109 2.947-6.945 1.912-1.836 4.382-2.793 7.01-2.634 4.94.16 9.082 4.39 9.162 9.339.08 2.873-1.116 5.507-3.266 7.423H24.667c-2.071-1.836-3.266-4.47-3.266-7.184z" transform="translate(-1041 -967) translate(0 800) translate(113 113) translate(777 54) translate(151) translate(0 1)"/>
                                <path d="M31 5c-3.323 0-6 2.677-6 6s2.677 6 6 6 6-2.677 6-6-2.677-6-6-6zm0 10c-2.222 0-4-1.778-4-4s1.778-4 4-4 4 1.778 4 4-1.778 4-4 4z" transform="translate(-1041 -967) translate(0 800) translate(113 113) translate(777 54) translate(151) translate(0 1)"/>
                            </g>
                        </g>
                    </g>
                </g>
            </g>
        </g>
    </g>
</svg>
