<svg width="7" height="14" viewBox="0 0 7 14" fill="none" xmlns="http://www.w3.org/2000/svg">
<path d="M4.82329 6.99998C4.82329 6.99998 0.489309 2.66599 0.290593 2.46728C0.091876 2.26856 -0.00492401 2.03203 0.000192659 1.75768C0.00532599 1.48331 0.107251 1.24678 0.305967 1.04808C0.504684 0.849359 0.741217 0.75 1.01557 0.75C1.28992 0.75 1.52645 0.849359 1.72517 1.04808L6.38094 5.71923C6.56171 5.89999 6.69568 6.10255 6.78287 6.3269C6.87003 6.55127 6.91362 6.77563 6.91362 6.99998C6.91362 7.22433 6.87003 7.44868 6.78287 7.67305C6.69568 7.8974 6.56171 8.09996 6.38094 8.28073L1.70979 12.9519C1.51108 13.1506 1.2771 13.2474 1.00787 13.2423C0.73865 13.2371 0.504684 13.1352 0.305967 12.9365C0.107251 12.7378 0.00789213 12.5013 0.00789213 12.2269C0.00789213 11.9526 0.107251 11.716 0.305967 11.5173L4.82329 6.99998Z" fill="#0000FF"/>
</svg>
