<svg xmlns="http://www.w3.org/2000/svg" width="13" height="22" viewBox="0 0 13 22">
    <g>
        <g>
            <g>
                <g>
                    <path d="M1.055 22h10.313c.38 0 .687-.308.687-.688V15.29c.226-.119.368-.353.368-.608V8.79c0-.38-.308-.688-.687-.688H8.25l.36-5.64c.047-.637-.174-1.263-.608-1.73C7.568.266 6.959 0 6.322 0h-.22c-.638 0-1.246.264-1.68.73-.435.466-.656 1.092-.61 1.728l.375 5.644h-3.5c-.38 0-.687.308-.687.688v5.892c0 .255.142.49.368.608v6.023c0 .38.308.687.687.687zm9.625-1.375H8.938v-2.626c0-.38-.308-.688-.688-.688-.38 0-.688.308-.688.688v2.626H4.874v-2.626c0-.38-.307-.688-.687-.688-.38 0-.688.308-.688.688v2.626H1.743v-5.256h8.937v5.256zM1.375 9.477h3.548c.19 0 .371-.078.501-.216.131-.14.198-.326.186-.516l-.426-6.387c-.018-.253.07-.502.244-.687.175-.194.426-.302.687-.296h.22c.257 0 .502.106.676.294.175.188.262.44.242.696l-.436 6.38c-.014.19.052.376.182.516.13.138.312.216.502.216h3.547v4.517H1.375V9.477z" transform="translate(-142 -2429) translate(0 1787) translate(113 209) translate(29 433)"/>
                </g>
            </g>
        </g>
    </g>
</svg>
