<svg viewBox="0 0 20 20" fill="none" xmlns="http://www.w3.org/2000/svg">
<path d="M5.25642 17.9166C4.84082 17.9166 4.48585 17.7695 4.19152 17.4751C3.89717 17.1808 3.75 16.8258 3.75 16.4102V8.58977C3.75 8.17418 3.89717 7.81921 4.19152 7.52488C4.48585 7.23053 4.84082 7.08336 5.25642 7.08336H6.25V5.41669C6.25 4.37611 6.61485 3.49097 7.34454 2.76127C8.07425 2.03158 8.9594 1.66673 9.99998 1.66673C11.0406 1.66673 11.9257 2.03158 12.6554 2.76127C13.3851 3.49097 13.75 4.37611 13.75 5.41669V7.08336H14.7435C15.1591 7.08336 15.5141 7.23053 15.8084 7.52488C16.1028 7.81921 16.25 8.17418 16.25 8.58977V16.4102C16.25 16.8258 16.1028 17.1808 15.8084 17.4751C15.5141 17.7695 15.1591 17.9166 14.7435 17.9166H5.25642ZM5.25642 16.6667H14.7435C14.8183 16.6667 14.8798 16.6426 14.9279 16.5945C14.9759 16.5465 15 16.485 15 16.4102V8.58977C15 8.51498 14.9759 8.45354 14.9279 8.40546C14.8798 8.35738 14.8183 8.33334 14.7435 8.33334H5.25642C5.18162 8.33334 5.12019 8.35738 5.0721 8.40546C5.02402 8.45354 4.99998 8.51498 4.99998 8.58977V16.4102C4.99998 16.485 5.02402 16.5465 5.0721 16.5945C5.12019 16.6426 5.18162 16.6667 5.25642 16.6667ZM9.99998 13.9583C10.4049 13.9583 10.7492 13.8165 11.0328 13.5328C11.3165 13.2492 11.4583 12.9049 11.4583 12.5C11.4583 12.0951 11.3165 11.7508 11.0328 11.4672C10.7492 11.1835 10.4049 11.0417 9.99998 11.0417C9.59506 11.0417 9.25078 11.1835 8.96715 11.4672C8.68349 11.7508 8.54167 12.0951 8.54167 12.5C8.54167 12.9049 8.68349 13.2492 8.96715 13.5328C9.25078 13.8165 9.59506 13.9583 9.99998 13.9583ZM7.49998 7.08336H12.5V5.41669C12.5 4.72225 12.2569 4.13197 11.7708 3.64586C11.2847 3.15975 10.6944 2.91669 9.99998 2.91669C9.30553 2.91669 8.71526 3.15975 8.22915 3.64586C7.74303 4.13197 7.49998 4.72225 7.49998 5.41669V7.08336Z" fill="currentColor"/>
</svg>
