<svg xmlns="http://www.w3.org/2000/svg" width="18" height="18" viewBox="0 0 18 18">
    <g fill="none" fill-rule="evenodd">
        <g fill="#353535" fill-rule="nonzero">
            <path d="M230.12 629.12c.174-.173.443-.193.638-.058l.07.058 8.172 8.173 8.173-8.173c.195-.195.512-.195.707 0 .173.174.193.443.058.638l-.058.07-8.173 8.172 8.173 8.173.058.069c.135.195.115.464-.058.638-.174.173-.443.193-.638.058l-.07-.058-8.172-8.173-8.173 8.173c-.195.195-.512.195-.707 0-.173-.174-.193-.443-.058-.638l.058-.07 8.173-8.172-8.173-8.173-.058-.069c-.135-.195-.115-.464.058-.638z" transform="translate(-230 -629)"/>
        </g>
    </g>
</svg>
