<svg xmlns="http://www.w3.org/2000/svg" width="56" height="74" viewBox="0 0 56 74">
    <g>
        <g>
            <path d="M589.611 2058c.567 0 1.034.429 1.094.98l.006.12v71.347c0 .567-.429 1.034-.98 1.094l-.12.006H536.1c-.567 0-1.034-.429-1.094-.98l-.006-.12v-58.862c0-.25.086-.493.24-.687l.084-.093 12.474-12.41c.137-.162.32-.284.53-.346.068-.022.14-.036.213-.043l.11-.006h40.96zm-1.1 2.2l-38.771-.001.011 11.39c0 .567-.428 1.034-.979 1.094l-.12.007-11.453.009v56.648h51.312V2060.2zm-40.3 40.456c0 1.568 3.263 2.472 6.686 3.37l.71.187c3.548.931 7.04 1.905 7.04 3.651h.318c0-1.688 3.263-2.654 6.686-3.558l.71-.187.707-.185c3.29-.869 6.332-1.764 6.332-3.278h.322v3.443c0 2.023-3.502 2.957-7.094 3.855l-.695.174c-3.474.869-6.827 1.768-6.968 3.65h-.319c-.136-1.82-3.274-2.72-6.621-3.563l-.695-.174-.695-.174c-3.468-.872-6.747-1.81-6.747-3.768v-3.443zm0-7.812c0 1.568 3.263 2.472 6.686 3.37l.71.186c3.548.932 7.04 1.906 7.04 3.651h.318c0-1.687 3.263-2.653 6.686-3.557l.71-.187.707-.185c3.29-.869 6.332-1.764 6.332-3.278h.322v3.442c0 4.112-14.462 3.727-14.757 7.68h-.319c-.146-1.945-3.721-2.84-7.316-3.737l-.695-.174c-3.468-.872-6.747-1.81-6.747-3.769v-3.442zm0-7.812c0 3.299 14.435 3.658 14.435 7.208h.32c0-3.55 14.434-3.91 14.434-7.208h.322v3.443c0 2.022-3.502 2.957-7.094 3.855l-.695.174c-3.474.869-6.827 1.767-6.968 3.65h-.319c-.136-1.82-3.274-2.72-6.621-3.563l-.695-.174-.695-.174c-3.468-.873-6.747-1.81-6.747-3.768v-3.443zm-.67-23.279l-8.791 8.745 8.8-.007-.009-8.738z" transform="translate(-535 -2058)"/>
        </g>
    </g>
</svg>
