<svg width="19" height="19" viewBox="0 0 19 19" fill="none" xmlns="http://www.w3.org/2000/svg">
<path d="M9.59897 5.02324C7.07055 5.02324 5.03112 7.06267 5.03112 9.59109C5.03112 12.1195 7.07055 14.1589 9.59897 14.1589C12.1274 14.1589 14.1668 12.1195 14.1668 9.59109C14.1668 7.06267 12.1274 5.02324 9.59897 5.02324ZM9.59897 12.5608C7.96504 12.5608 6.62927 11.229 6.62927 9.59109C6.62927 7.95318 7.96106 6.62139 9.59897 6.62139C11.2369 6.62139 12.5687 7.95318 12.5687 9.59109C12.5687 11.229 11.2329 12.5608 9.59897 12.5608ZM15.4191 4.83639C15.4191 5.42874 14.942 5.90182 14.3537 5.90182C13.7613 5.90182 13.2882 5.42476 13.2882 4.83639C13.2882 4.24801 13.7653 3.77095 14.3537 3.77095C14.942 3.77095 15.4191 4.24801 15.4191 4.83639ZM18.4445 5.91773C18.3769 4.49052 18.0509 3.22631 17.0053 2.18473C15.9637 1.14315 14.6995 0.817157 13.2723 0.745598C11.8014 0.662112 7.39257 0.662112 5.92163 0.745598C4.4984 0.813181 3.23419 1.13917 2.18864 2.18075C1.14308 3.22234 0.821063 4.48654 0.749504 5.91375C0.666018 7.38469 0.666018 11.7935 0.749504 13.2645C0.817087 14.6917 1.14308 15.9559 2.18864 16.9974C3.23419 18.039 4.49443 18.365 5.92163 18.4366C7.39257 18.5201 11.8014 18.5201 13.2723 18.4366C14.6995 18.369 15.9637 18.043 17.0053 16.9974C18.0469 15.9559 18.3729 14.6917 18.4445 13.2645C18.5279 11.7935 18.5279 7.38866 18.4445 5.91773ZM16.5442 14.8427C16.2341 15.6219 15.6338 16.2222 14.8506 16.5363C13.6778 17.0014 10.895 16.8941 9.59897 16.8941C8.30296 16.8941 5.51613 16.9974 4.34733 16.5363C3.56813 16.2262 2.96783 15.6259 2.65377 14.8427C2.18864 13.67 2.29597 10.8871 2.29597 9.59109C2.29597 8.29508 2.19261 5.50825 2.65377 4.33945C2.96386 3.56025 3.56416 2.95995 4.34733 2.64589C5.5201 2.18075 8.30296 2.28809 9.59897 2.28809C10.895 2.28809 13.6818 2.18473 14.8506 2.64589C15.6298 2.95598 16.2301 3.55628 16.5442 4.33945C17.0093 5.51222 16.902 8.29508 16.902 9.59109C16.902 10.8871 17.0093 13.6739 16.5442 14.8427Z" fill="white"/>
</svg>
