<svg viewBox="0 0 18 18" fill="none" xmlns="http://www.w3.org/2000/svg">
<path d="M7.0216 12.6153C5.31392 12.6153 3.86777 12.023 2.68317 10.8384C1.49856 9.65383 0.90625 8.20768 0.90625 6.49999C0.90625 4.79231 1.49856 3.34616 2.68317 2.16154C3.86777 0.976943 5.31392 0.384644 7.0216 0.384644C8.72928 0.384644 10.1754 0.976943 11.3601 2.16154C12.5447 3.34616 13.137 4.79231 13.137 6.49999C13.137 7.21409 13.0171 7.89614 12.7774 8.54614C12.5376 9.19614 12.2177 9.76153 11.8177 10.2423L17.5716 15.9961C17.7101 16.1346 17.7809 16.3087 17.7841 16.5183C17.7873 16.7279 17.7165 16.9051 17.5716 17.05C17.4267 17.1948 17.2511 17.2673 17.0447 17.2673C16.8383 17.2673 16.6626 17.1948 16.5178 17.05L10.7639 11.2961C10.2639 11.7089 9.6889 12.032 9.0389 12.2653C8.3889 12.4987 7.71647 12.6153 7.0216 12.6153ZM7.0216 11.1154C8.31007 11.1154 9.40142 10.6683 10.2956 9.77404C11.1899 8.87981 11.637 7.78846 11.637 6.49999C11.637 5.21153 11.1899 4.12018 10.2956 3.22594C9.40142 2.33171 8.31007 1.88459 7.0216 1.88459C5.73313 1.88459 4.64178 2.33171 3.74755 3.22594C2.85333 4.12018 2.40623 5.21153 2.40623 6.49999C2.40623 7.78846 2.85333 8.87981 3.74755 9.77404C4.64178 10.6683 5.73313 11.1154 7.0216 11.1154Z" fill="currentColor"/>
</svg>
