<svg xmlns="http://www.w3.org/2000/svg" viewBox="0 0 16 16">
	<path d="M8.407 8.008a.605.605 0 0 0 .43-.179l5.74-5.74v2.968a.61.61 0 1 0 1.22 0V.617a.61.61 0 0 0-.61-.609h-4.439a.61.61 0 1 0 0 1.22h2.967l-5.78 5.74a.61.61 0 0 0 .431 1.04h.04z"/>
	<path d="M15.252 8.593a.61.61 0 0 0-.61.61v5.04a.4.4 0 0 1-.398.4H1.626a.4.4 0 0 1-.398-.4V1.627c0-.22.178-.398.398-.398h4.772a.61.61 0 1 0 0-1.22H1.626A1.625 1.625 0 0 0 0 1.634v12.61c0 .898.728 1.626 1.626 1.626h12.618c.898 0 1.626-.728 1.626-1.626v-5.04a.608.608 0 0 0-.618-.611z"/>
</svg>