<svg xmlns="http://www.w3.org/2000/svg" width="31" height="16" viewBox="0 0 31 16">
    <g>
        <g>
            <path d="M647.8 293c1.767 0 3.2 1.433 3.2 3.2v9.6c0 1.767-1.433 3.2-3.2 3.2h-24.6c-1.767 0-3.2-1.433-3.2-3.2v-9.6c0-1.767 1.433-3.2 3.2-3.2h24.6zm0 1h-24.6c-1.162 0-2.114.901-2.194 2.043l-.006.157v9.6c0 1.162.901 2.114 2.043 2.194l.157.006h24.6c1.162 0 2.114-.901 2.194-2.043l.006-.157v-9.6c0-1.162-.901-2.114-2.043-2.194L647.8 294zm-12.38 4.902c.712 0 1.275.216 1.689.65.372.389.577.91.614 1.564l.006.222v.62h-3.599l.012.191c.042.432.18.772.413 1.018.267.282.643.422 1.128.422.32 0 .616-.03.891-.09.207-.045.424-.113.653-.203l.233-.097v.932l-.21.093c-.211.086-.424.15-.64.19-.286.056-.613.084-.98.084-.84 0-1.497-.245-1.97-.735-.474-.49-.711-1.165-.711-2.024 0-.882.22-1.576.659-2.08.44-.505 1.043-.757 1.811-.757zm-8.443-1.64l3.501 5.659h.03l-.056-1.254-.012-.525-.001-3.88h1.07v7.138h-1.431l-3.511-5.688h-.04l.025.317.025.357c.022.35.035.683.04.996l.004.307v3.711h-1.06v-7.139h1.416zM639.482 299l.688 2.66.075.322c.094.417.168.792.221 1.126l.036.242h.03l.027-.185c.02-.127.046-.263.075-.409l.086-.399.071-.295.033-.12.03-.1.82-2.842h1.26l.853 3.047.126.527c.059.263.098.479.118.648l.011.118h.04l.02-.157.062-.36.085-.42.11-.48.064-.262.699-2.661h1.152l-1.524 5.4h-1.289l-.698-2.52-.076-.266-.102-.399-.28-1.195h-.045l-.208.932-.13.538-.077.282-.752 2.628h-1.27l-1.513-5.4h1.172zm-4.063.771c-.364 0-.656.116-.876.347-.188.198-.312.474-.37.827l-.023.184h2.451c-.006-.446-.114-.784-.322-1.014-.209-.23-.495-.344-.86-.344z" transform="translate(-620 -293)"/>
        </g>
    </g>
</svg>
