<svg viewBox="0 0 24 24" fill="none" xmlns="http://www.w3.org/2000/svg">
<path fill-rule="evenodd" clip-rule="evenodd" d="M9.11535 13.8846H7.88459V15.4423C7.88459 15.5603 7.84036 15.6635 7.75189 15.7519C7.66343 15.8404 7.56023 15.8846 7.4423 15.8846C7.32435 15.8846 7.22114 15.8404 7.13267 15.7519C7.0442 15.6635 6.99997 15.5603 6.99997 15.4423V11.4423C6.99997 11.3244 7.0442 11.2211 7.13267 11.1327C7.22114 11.0442 7.32435 11 7.4423 11H9.11535C9.36599 11 9.5761 11.0848 9.74565 11.2543C9.9152 11.4239 9.99997 11.634 9.99997 11.8846V13C9.99997 13.2506 9.9152 13.4607 9.74565 13.6303C9.5761 13.7998 9.36599 13.8846 9.11535 13.8846ZM7.88459 11.8846V13H9.11535V11.8846H7.88459Z" fill="#333333"/>
<path fill-rule="evenodd" clip-rule="evenodd" d="M9.11535 13.8846H7.88459V15.4423C7.88459 15.5603 7.84036 15.6635 7.75189 15.7519C7.66343 15.8404 7.56023 15.8846 7.4423 15.8846C7.32435 15.8846 7.22114 15.8404 7.13267 15.7519C7.0442 15.6635 6.99997 15.5603 6.99997 15.4423V11.4423C6.99997 11.3244 7.0442 11.2211 7.13267 11.1327C7.22114 11.0442 7.32435 11 7.4423 11H9.11535C9.36599 11 9.5761 11.0848 9.74565 11.2543C9.9152 11.4239 9.99997 11.634 9.99997 11.8846V13C9.99997 13.2506 9.9152 13.4607 9.74565 13.6303C9.5761 13.7998 9.36599 13.8846 9.11535 13.8846ZM7.88459 11.8846V13H9.11535V11.8846H7.88459Z" fill="currentColor"/>
<path fill-rule="evenodd" clip-rule="evenodd" d="M13.6303 15.4976C13.4607 15.6671 13.2506 15.7519 13 15.7519L11.3269 15.8846C11.2089 15.8846 11.1057 15.8404 11.0173 15.7519C10.9288 15.6635 10.8846 15.5603 10.8846 15.4423V11.4423C10.8846 11.3244 10.9288 11.2211 11.0173 11.1327C11.1057 11.0442 11.2089 11 11.3269 11L13 11.1327C13.2506 11.1327 13.4607 11.2175 13.6303 11.387C13.7998 11.5566 13.8846 11.7666 13.8846 12.0173V14.8673C13.8846 15.1179 13.7998 15.328 13.6303 15.4976ZM11.7692 11.8846V15L13 14.8673V12.0173L11.7692 11.8846Z" fill="#333333"/>
<path fill-rule="evenodd" clip-rule="evenodd" d="M13.6303 15.4976C13.4607 15.6671 13.2506 15.7519 13 15.7519L11.3269 15.8846C11.2089 15.8846 11.1057 15.8404 11.0173 15.7519C10.9288 15.6635 10.8846 15.5603 10.8846 15.4423V11.4423C10.8846 11.3244 10.9288 11.2211 11.0173 11.1327C11.1057 11.0442 11.2089 11 11.3269 11L13 11.1327C13.2506 11.1327 13.4607 11.2175 13.6303 11.387C13.7998 11.5566 13.8846 11.7666 13.8846 12.0173V14.8673C13.8846 15.1179 13.7998 15.328 13.6303 15.4976ZM11.7692 11.8846V15L13 14.8673V12.0173L11.7692 11.8846Z" fill="currentColor"/>
<path d="M16.2903 13.8846H15.6173V15.4423C15.6173 15.5603 15.573 15.6635 15.4846 15.7519C15.3961 15.8404 15.2929 15.8846 15.175 15.8846C15.057 15.8846 14.9538 15.8404 14.8653 15.7519C14.7769 15.6635 14.7326 15.5603 14.7326 15.4423V11.4423C14.7326 11.3244 14.7769 11.2211 14.8653 11.1327C14.9538 11.0442 15.057 11 15.175 11H16.5576C16.6756 11 16.7788 11.0442 16.8673 11.1327C16.9557 11.2211 17 11.3244 17 11.4423C17 11.5603 16.9557 11.6635 16.8673 11.7519C16.7788 11.8404 16.6756 11.8846 16.5576 11.8846H15.6173V13H16.2903C16.4083 13 16.5115 13.0442 16.5999 13.1327C16.6884 13.2211 16.7326 13.3244 16.7326 13.4423C16.7326 13.5603 16.6884 13.6635 16.5999 13.7519C16.5115 13.8404 16.4083 13.8846 16.2903 13.8846Z" fill="#333333"/>
<path d="M16.2903 13.8846H15.6173V15.4423C15.6173 15.5603 15.573 15.6635 15.4846 15.7519C15.3961 15.8404 15.2929 15.8846 15.175 15.8846C15.057 15.8846 14.9538 15.8404 14.8653 15.7519C14.7769 15.6635 14.7326 15.5603 14.7326 15.4423V11.4423C14.7326 11.3244 14.7769 11.2211 14.8653 11.1327C14.9538 11.0442 15.057 11 15.175 11H16.5576C16.6756 11 16.7788 11.0442 16.8673 11.1327C16.9557 11.2211 17 11.3244 17 11.4423C17 11.5603 16.9557 11.6635 16.8673 11.7519C16.7788 11.8404 16.6756 11.8846 16.5576 11.8846H15.6173V13H16.2903C16.4083 13 16.5115 13.0442 16.5999 13.1327C16.6884 13.2211 16.7326 13.3244 16.7326 13.4423C16.7326 13.5603 16.6884 13.6635 16.5999 13.7519C16.5115 13.8404 16.4083 13.8846 16.2903 13.8846Z" fill="currentColor"/>
<path fill-rule="evenodd" clip-rule="evenodd" d="M5.025 20.975C5.375 21.325 5.80257 21.5 6.3077 21.5H17.6922C18.1974 21.5 18.625 21.325 18.975 20.975C19.325 20.625 19.5 20.1974 19.5 19.6923V8.49803C19.5 8.25701 19.4531 8.02528 19.3595 7.80285C19.266 7.58042 19.1371 7.38714 18.973 7.22303L14.7769 3.02693C14.6128 2.86283 14.4195 2.73398 14.1971 2.6404C13.9747 2.5468 13.7429 2.5 13.5019 2.5H6.3077C5.80257 2.5 5.375 2.675 5.025 3.025C4.675 3.375 4.5 3.80257 4.5 4.3077V19.6923C4.5 20.1974 4.675 20.625 5.025 20.975ZM13.5 3.99998V7.5961C13.5 7.85378 13.5862 8.06884 13.7587 8.24128C13.9311 8.41373 14.1462 8.49995 14.4039 8.49995H18V19.6923C18 19.7692 17.9679 19.8397 17.9038 19.9038C17.8397 19.9679 17.7692 20 17.6922 20H6.3077C6.23077 20 6.16024 19.9679 6.09612 19.9038C6.03202 19.8397 5.99997 19.7692 5.99997 19.6923V4.3077C5.99997 4.23077 6.03202 4.16024 6.09612 4.09613C6.16024 4.03203 6.23077 3.99998 6.3077 3.99998H13.5Z" fill="#333333"/>
<path fill-rule="evenodd" clip-rule="evenodd" d="M5.025 20.975C5.375 21.325 5.80257 21.5 6.3077 21.5H17.6922C18.1974 21.5 18.625 21.325 18.975 20.975C19.325 20.625 19.5 20.1974 19.5 19.6923V8.49803C19.5 8.25701 19.4531 8.02528 19.3595 7.80285C19.266 7.58042 19.1371 7.38714 18.973 7.22303L14.7769 3.02693C14.6128 2.86283 14.4195 2.73398 14.1971 2.6404C13.9747 2.5468 13.7429 2.5 13.5019 2.5H6.3077C5.80257 2.5 5.375 2.675 5.025 3.025C4.675 3.375 4.5 3.80257 4.5 4.3077V19.6923C4.5 20.1974 4.675 20.625 5.025 20.975ZM13.5 3.99998V7.5961C13.5 7.85378 13.5862 8.06884 13.7587 8.24128C13.9311 8.41373 14.1462 8.49995 14.4039 8.49995H18V19.6923C18 19.7692 17.9679 19.8397 17.9038 19.9038C17.8397 19.9679 17.7692 20 17.6922 20H6.3077C6.23077 20 6.16024 19.9679 6.09612 19.9038C6.03202 19.8397 5.99997 19.7692 5.99997 19.6923V4.3077C5.99997 4.23077 6.03202 4.16024 6.09612 4.09613C6.16024 4.03203 6.23077 3.99998 6.3077 3.99998H13.5Z" fill="currentColor"/>
</svg>
