<svg xmlns="http://www.w3.org/2000/svg" width="56" height="65" viewBox="0 0 56 65">
    <g fill="none" fill-rule="evenodd">
        <g fill="#333" fill-rule="nonzero">
            <g>
                <g>
                    <g>
                        <g>
                            <path d="M55.98 16.578L28.189.549.41 16.603l.015 32.083 27.792 16.03L55.994 48.66l-.013-32.083zm-1.854 30.897l-.094.164-24.88 14.38V33.17l24.962-14.427.012 28.732zM27.256 3.87l1.868-.001v-.623l24.06 13.878-24.968 14.43L3.219 17.137 27.256 3.246v.623zM2.293 47.546L2.28 18.751l25.003 14.42v28.85L2.344 47.636l-.052-.09z" transform="translate(-654 -964) translate(0 800) translate(113 113) translate(387 51) translate(154)"/>
                            <path d="M23.239 33.921L25.451 33.921 25.451 35.789 23.239 35.789z" transform="translate(-654 -964) translate(0 800) translate(113 113) translate(387 51) translate(154) rotate(-30.026 24.345 34.855)"/>
                            <path d="M4.256 44.816L6.124 44.816 6.124 47.029 4.256 47.029z" transform="translate(-654 -964) translate(0 800) translate(113 113) translate(387 51) translate(154) rotate(-120.031 5.19 45.923)"/>
                            <path d="M11.919 40.388L13.786 40.388 13.786 42.6 11.919 42.6z" transform="translate(-654 -964) translate(0 800) translate(113 113) translate(387 51) translate(154) rotate(-120.031 12.853 41.494)"/>
                            <path d="M8.087 42.602L9.955 42.602 9.955 44.814 8.087 44.814z" transform="translate(-654 -964) translate(0 800) translate(113 113) translate(387 51) translate(154) rotate(-120.031 9.021 43.708)"/>
                            <path d="M15.749 38.173L17.617 38.173 17.617 40.386 15.749 40.386z" transform="translate(-654 -964) translate(0 800) translate(113 113) translate(387 51) translate(154) rotate(-120.031 16.683 39.28)"/>
                            <path d="M19.58 35.959L21.448 35.959 21.448 38.172 19.58 38.172z" transform="translate(-654 -964) translate(0 800) translate(113 113) translate(387 51) translate(154) rotate(-120.031 20.514 37.065)"/>
                            <path d="M34.762 36.13L36.974 36.13 36.974 37.997 34.762 37.997z" transform="translate(-654 -964) translate(0 800) translate(113 113) translate(387 51) translate(154) rotate(29.972 35.868 37.063)"/>
                            <path d="M38.594 38.336L40.807 38.336 40.807 40.204 38.594 40.204z" transform="translate(-654 -964) translate(0 800) translate(113 113) translate(387 51) translate(154) rotate(29.988 39.7 39.27)"/>
                            <path d="M46.261 42.763L48.474 42.763 48.474 44.631 46.261 44.631z" transform="translate(-654 -964) translate(0 800) translate(113 113) translate(387 51) translate(154) rotate(29.972 47.368 43.697)"/>
                            <path d="M50.095 44.974L52.307 44.974 52.307 46.842 50.095 46.842z" transform="translate(-654 -964) translate(0 800) translate(113 113) translate(387 51) translate(154) rotate(29.972 51.201 45.908)"/>
                            <path d="M42.429 40.549L44.642 40.549 44.642 42.418 42.429 42.418z" transform="translate(-654 -964) translate(0 800) translate(113 113) translate(387 51) translate(154) rotate(29.98 43.535 41.483)"/>
                            <path d="M31.101 33.749L32.969 33.749 32.969 35.961 31.101 35.961z" transform="translate(-654 -964) translate(0 800) translate(113 113) translate(387 51) translate(154) rotate(119.947 32.035 34.855)"/>
                            <path d="M27.26 6.11H29.128V8.351H27.26zM27.268 15.076H29.136V17.317H27.268zM27.264 10.593H29.131999999999998V12.834H27.264zM27.272 19.558H29.139999999999997V21.799H27.272zM27.276 24.041H29.144V26.282H27.276zM27.281 28.524H29.148999999999997V30.765H27.281z" transform="translate(-654 -964) translate(0 800) translate(113 113) translate(387 51) translate(154)"/>
                        </g>
                    </g>
                </g>
            </g>
        </g>
    </g>
</svg>
