<svg viewBox="0 0 74 77" fill="none" xmlns="http://www.w3.org/2000/svg">
<g filter="url(#filter0_d_2065_6447)">
<path d="M33.3828 46.0958L46.45 37.7018C47.092 37.2943 47.413 36.728 47.413 36.003C47.413 35.278 47.092 34.7098 46.45 34.2983L33.3828 25.9043C32.7098 25.4428 32.0193 25.4057 31.3113 25.7932C30.6038 26.1807 30.25 26.785 30.25 27.606V44.394C30.25 45.215 30.6038 45.8193 31.3113 46.2068C32.0193 46.5942 32.7098 46.5573 33.3828 46.0958ZM37.0053 64.5C33.0633 64.5 29.358 63.752 25.8895 62.256C22.421 60.76 19.404 58.7298 16.8385 56.1653C14.273 53.6008 12.2417 50.585 10.7447 47.118C9.24825 43.651 8.5 39.9468 8.5 36.0053C8.5 32.0633 9.248 28.358 10.744 24.8895C12.24 21.421 14.2703 18.404 16.8348 15.8385C19.3993 13.273 22.415 11.2417 25.882 9.74475C29.349 8.24825 33.0533 7.5 36.9948 7.5C40.9368 7.5 44.642 8.248 48.1105 9.744C51.579 11.24 54.596 13.2703 57.1615 15.8348C59.727 18.3993 61.7583 21.415 63.2553 24.882C64.7518 28.349 65.5 32.0533 65.5 35.9948C65.5 39.9368 64.752 43.642 63.256 47.1105C61.76 50.579 59.7298 53.596 57.1653 56.1615C54.6008 58.727 51.585 60.7583 48.118 62.2553C44.651 63.7518 40.9468 64.5 37.0053 64.5ZM37 60C43.7 60 49.375 57.675 54.025 53.025C58.675 48.375 61 42.7 61 36C61 29.3 58.675 23.625 54.025 18.975C49.375 14.325 43.7 12 37 12C30.3 12 24.625 14.325 19.975 18.975C15.325 23.625 13 29.3 13 36C13 42.7 15.325 48.375 19.975 53.025C24.625 57.675 30.3 60 37 60Z" fill="currentColor"/>
</g>
<defs>
<filter id="filter0_d_2065_6447" x="-7" y="-4" width="88" height="88" filterUnits="userSpaceOnUse" color-interpolation-filters="sRGB">
<feFlood flood-opacity="0" result="BackgroundImageFix"/>
<feColorMatrix in="SourceAlpha" type="matrix" values="0 0 0 0 0 0 0 0 0 0 0 0 0 0 0 0 0 0 127 0" result="hardAlpha"/>
<feOffset dy="4"/>
<feGaussianBlur stdDeviation="4"/>
<feComposite in2="hardAlpha" operator="out"/>
<feColorMatrix type="matrix" values="0 0 0 0 0 0 0 0 0 0 0 0 0 0 0 0 0 0 0.24 0"/>
<feBlend mode="normal" in2="BackgroundImageFix" result="effect1_dropShadow_2065_6447"/>
<feBlend mode="normal" in="SourceGraphic" in2="effect1_dropShadow_2065_6447" result="shape"/>
</filter>
</defs>
</svg>
