<svg xmlns="http://www.w3.org/2000/svg" width="36" height="59" viewBox="0 0 36 59">
    <g>
        <g>
            <path d="M552.88 2437.006l-.478.013-.316.358c-6.25 7.076-9.279 19.795-5.279 34.241 2.486 7.81 6.55 13.676 11.793 17.893 3.876 3.118 8.035 5.08 12.251 6.241l.46.127.408-.25c3.725-2.287 6.37-5.861 8.357-10.074l.423-.92-.22-.463c-2.116-4.435-6.914-9-11.408-10.837l-.332-.135-.348.086-.247.065c-.368.104-.804.25-1.277.424l-.736.282c-1.26.5-2.665 1.14-3.746 1.71l-.286.152-.115-.132c-1.36-1.626-2.584-4.399-3.691-8.118l-.13-.443c-1.015-3.514-1.456-6.353-1.217-8.374l.024-.174.323-.028c.434-.04.907-.096 1.397-.163l.744-.109c.5-.077 1.006-.164 1.493-.257l.714-.144c.81-.171 1.53-.355 2.037-.532l.338-.118.204-.295c2.76-3.995 4.282-10.44 3.629-15.31l-.069-.508-.433-.274c-3.311-2.1-9.577-4.064-14.267-3.934zm.539 2.195l.306.004c3.87.099 8.78 1.614 11.675 3.252l.126.073.026.289c.304 3.958-.874 8.943-2.909 12.293l-.227.362-.113.034c-.835.237-2.072.486-3.29.678l-.803.119c-.923.127-1.778.211-2.365.22l-.83.012-.216.801c-.608 2.258-.322 5.286.66 9.079l.25.925c.087.313.179.631.275.954 1.394 4.684 2.975 8.015 4.997 9.823l.62.553.701-.444.204-.125c1.37-.815 4.183-2.062 5.76-2.553l.113-.034.328.15c3.573 1.691 7.338 5.274 9.25 8.794l.106.203-.183.384c-1.659 3.39-3.793 6.288-6.597 8.24l-.315.21-.56-.167c-3.592-1.113-7.124-2.875-10.43-5.533-4.909-3.949-8.721-9.452-11.063-16.806-3.688-13.324-1.087-25.004 4.371-31.631l.133-.16z" transform="translate(-545 -2437)"/>
        </g>
    </g>
</svg>
