<svg viewBox="0 0 33 33" fill="none" xmlns="http://www.w3.org/2000/svg">
<path d="M16.6532 12.7512L6.60963 22.7948C6.34468 23.0597 6.03271 23.1888 5.67374 23.182C5.31478 23.1751 5.00282 23.0392 4.73787 22.7743C4.47291 22.5093 4.34044 22.1974 4.34044 21.8384C4.34044 21.4794 4.47291 21.1675 4.73787 20.9025L14.9456 10.6743C15.1866 10.4333 15.4567 10.2546 15.7558 10.1384C16.055 10.0222 16.3541 9.96405 16.6532 9.96405C16.9524 9.96405 17.2515 10.0222 17.5507 10.1384C17.8498 10.2546 18.1199 10.4333 18.3609 10.6743L28.5891 20.9025C28.8541 21.1675 28.9831 21.4828 28.9763 21.8487C28.9695 22.2145 28.8336 22.5298 28.5686 22.7948C28.3036 23.0597 27.9917 23.1922 27.6327 23.1922C27.2738 23.1922 26.9618 23.0597 26.6968 22.7948L16.6532 12.7512Z" fill="currentColor"/>
</svg>
