<svg xmlns="http://www.w3.org/2000/svg" width="16" height="16" viewBox="0 0 16 16">
    <g>
        <g>
            <g>
                <g>
                    <g>
                        <g>
                            <g>
                                <path d="M6.312 16h-.4l-.079-.032c-.229-.101-.422-.268-.556-.48l-1.504-2.123c-.91-1.28-1.816-2.56-2.72-3.84-.58-.83-.93-1.797-1.018-2.805C-.246 4.113 1.193 1.624 3.593.568c2.293-.993 4.528-.68 6.463.907 1.199.972 1.96 2.38 2.117 3.916.19 1.523-.21 3.062-1.12 4.299-1.362 1.92-2.722 3.84-4.082 5.76-.137.23-.344.413-.59.52l-.07.03zm-.197-.87c.055-.055.103-.116.146-.18l4.081-5.76c.781-1.063 1.125-2.384.96-3.692-.13-1.311-.776-2.516-1.797-3.349C7.815.762 5.942.5 3.941 1.367 1.887 2.273.656 4.405.9 6.637c.073.855.37 1.676.859 2.38.9 1.28 1.807 2.56 2.72 3.84.503.71 1.006 1.418 1.507 2.129.037.053.08.101.128.144zm-.016-6.687h-.022c-1.27-.033-2.283-1.07-2.287-2.34.016-1.286 1.068-2.316 2.354-2.304 1.269.03 2.284 1.063 2.29 2.332C8.425 7.413 7.38 8.445 6.1 8.443zm.016-3.776c-.384 0-.753.151-1.026.421-.275.268-.432.635-.435 1.02 0 .793.633 1.442 1.426 1.463.389.006.764-.144 1.042-.416.278-.273.436-.644.44-1.033-.005-.793-.639-1.438-1.431-1.456h-.016v.001z" transform="translate(-1027 -619) translate(114 275) translate(677) translate(206 324) translate(30 20) translate(2)"/>
                            </g>
                        </g>
                    </g>
                </g>
            </g>
        </g>
    </g>
</svg>
