<svg xmlns="http://www.w3.org/2000/svg" width="15" height="19" viewBox="0 0 15 19">
    <path fill="#666" d="M7.24.14C3.616.14.036 2.514.036 6.356c0 2.444 1.398 3.832 2.245 3.832.35 0 .551-.958.551-1.229 0-.323-.837-1.01-.837-2.353 0-2.79 2.161-4.769 4.957-4.769 2.405 0 4.184 1.343 4.184 3.811 0 1.843-.752 5.3-3.188 5.3-.88 0-1.631-.625-1.631-1.52 0-1.312.932-2.583.932-3.936 0-2.298-3.315-1.881-3.315.895 0 .583.074 1.229.338 1.76-.487 2.062-1.482 5.134-1.482 7.258 0 .656.095 1.301.159 1.957.12.132.06.118.243.052 1.78-2.395 1.716-2.863 2.521-5.997.434.812 1.557 1.25 2.447 1.25 3.75 0 5.433-3.593 5.433-6.832C13.594 2.39 10.565.14 7.24.14z"/>
</svg>
