<svg xmlns="http://www.w3.org/2000/svg" width="22" height="22" viewBox="0 0 22 22">
    <g>
        <g>
            <path d="M291.068 942.43l.265.013c1.591.114 3.055.913 4.01 2.191.166.221.121.535-.1.7-.221.165-.534.12-.7-.101-.782-1.045-1.98-1.7-3.282-1.793-1.22-.087-2.42.326-3.327 1.14l-.177.167-2.994 2.994c-1.705 1.766-1.68 4.572.055 6.308 1.68 1.68 4.363 1.757 6.129.22l.173-.159 1.71-1.71c.195-.195.512-.195.707 0 .174.174.193.443.058.638l-.058.07-1.716 1.715c-2.158 2.085-5.589 2.055-7.71-.067-2.061-2.06-2.148-5.357-.235-7.527l.174-.189 3-3c1.065-1.066 2.519-1.645 4.018-1.61zm10.708-5.32c2.061 2.062 2.148 5.358.235 7.529l-.174.188-3 3c-1.128 1.129-2.69 1.712-4.283 1.598-1.591-.114-3.055-.914-4.01-2.192-.166-.221-.121-.534.1-.7.221-.165.535-.12.7.101.782 1.046 1.98 1.7 3.282 1.793 1.22.088 2.421-.326 3.327-1.14l.177-.167 2.994-2.994c1.705-1.766 1.68-4.572-.055-6.308-1.68-1.68-4.362-1.757-6.13-.219l-.173.16-1.72 1.71c-.196.194-.512.193-.707-.003-.173-.174-.192-.443-.056-.638l.058-.069 1.725-1.715c2.158-2.084 5.589-2.055 7.71.067z" transform="translate(-282 -935)"/>
        </g>
    </g>
</svg>
