<svg xmlns="http://www.w3.org/2000/svg" width="16" height="16" viewBox="0 0 16 16">
    <path fill="currentColor" fill-rule="evenodd" d="M14.756 2.486h-3.481V.316c0-.176-.125-.316-.298-.316H5.964c-.173 0-.298.14-.298.316v2.17H2.185c-.174 0-.303.131-.303.303v2.553c0 .177.134.308.303.308h1.033v9.13c0 .673.552 1.22 1.215 1.22h8.075c.663 0 1.215-.547 1.215-1.22V5.65h1.033c.174 0 .303-.136.303-.308V2.79c0-.177-.134-.303-.303-.303zM6.289.633h4.363v1.853H6.289V.633zM13.1 14.78c0 .325-.272.587-.592.587H4.433c-.32 0-.592-.262-.592-.587V5.65H13.1v9.13zm1.335-9.763H2.505V3.119h11.93v1.898z"/>
</svg>
