<svg xmlns="http://www.w3.org/2000/svg" viewBox="0 0 20 20">
    <g fill="none" fill-rule="evenodd">
        <g fill="currentColor" fill-rule="nonzero">
            <path d="M128.75 291c5.385 0 9.75 4.365 9.75 9.75s-4.365 9.75-9.75 9.75-9.75-4.365-9.75-9.75 4.365-9.75 9.75-9.75zm0 1.5c-4.556 0-8.25 3.694-8.25 8.25s3.694 8.25 8.25 8.25 8.25-3.694 8.25-8.25-3.694-8.25-8.25-8.25zm.009 10.85c.552 0 1 .448 1 1 0 .513-.386.936-.883.993l-.117.007c-.561 0-1.009-.448-1.009-1 0-.513.386-.936.883-.993l.126-.007zm-.009-6.95c.38 0 .693.282.743.648l.007.102v4.6c0 .414-.336.75-.75.75-.38 0-.693-.282-.743-.648l-.007-.102v-4.6c0-.414.336-.75.75-.75z" transform="translate(-119 -291)"/>
        </g>
    </g>
</svg>
