<?xml version="1.0" encoding="utf-8"?>
<!-- Generator: Adobe Illustrator 24.3.0, SVG Export Plug-In . SVG Version: 6.00 Build 0)  -->
<svg version="1.1" id="Layer_1" xmlns="http://www.w3.org/2000/svg" xmlns:xlink="http://www.w3.org/1999/xlink" x="0px" y="0px"
	 width="20px" height="20px" viewBox="0 0 20 20" style="enable-background:new 0 0 20 20;" xml:space="preserve">
		<path fill="#FFFFFF" d="M9.8,0c5.4,0,9.8,4.4,9.8,9.8s-4.4,9.8-9.8,9.8S0,15.1,0,9.8S4.4,0,9.8,0z M9.8,1.5c-4.6,0-8.3,3.7-8.3,8.3
			S5.2,18,9.8,18S18,14.3,18,9.8S14.3,1.5,9.8,1.5z M9.8,12.4c0.6,0,1,0.4,1,1c0,0.5-0.4,0.9-0.9,1l-0.1,0c-0.6,0-1-0.4-1-1
			c0-0.5,0.4-0.9,0.9-1L9.8,12.4z M9.8,5.4c0.4,0,0.7,0.3,0.7,0.6l0,0.1v4.6c0,0.4-0.3,0.8-0.8,0.8c-0.4,0-0.7-0.3-0.7-0.6l0-0.1
			V6.1C9,5.7,9.3,5.4,9.8,5.4z"/>
</svg>
