<svg viewBox="0 0 20 20" fill="none" xmlns="http://www.w3.org/2000/svg">
<circle cx="10" cy="10" r="10" fill="currentColor"/>
<path d="M10 6.875C10.7767 6.875 11.4062 6.2454 11.4062 5.46875C11.4062 4.6921 10.7767 4.0625 10 4.0625C9.22335 4.0625 8.59375 4.6921 8.59375 5.46875C8.59375 6.2454 9.22335 6.875 10 6.875Z" fill="#eceef6"/>
<path d="M11.4062 9.21875C11.6651 9.21875 11.875 9.00888 11.875 8.75C11.875 8.49112 11.6651 8.28125 11.4062 8.28125H8.59375C8.33487 8.28125 8.125 8.49112 8.125 8.75C8.125 9.00888 8.33487 9.21875 8.59375 9.21875H8.94531V14.8438H8.59375C8.33487 14.8438 8.125 15.0536 8.125 15.3125C8.125 15.5714 8.33487 15.7812 8.59375 15.7812H11.4062C11.6651 15.7812 11.875 15.5714 11.875 15.3125C11.875 15.0536 11.6651 14.8438 11.4062 14.8438H11.0547V9.21875H11.4062Z" fill="#eceef6"/>
</svg>
