<svg width="20" height="20" viewBox="0 0 20 20" fill="none" xmlns="http://www.w3.org/2000/svg">
<g clip-path="url(#clip0_37_1070)">
<path d="M16.3992 3.36749C14.6502 1.61437 12.3211 0.650146 9.84583 0.650146C4.73672 0.650146 0.579308 4.80756 0.579308 9.91667C0.579308 11.5487 1.00507 13.1433 1.81484 14.5499L0.5 19.3502L5.41293 18.0604C6.76534 18.7992 8.28889 19.1874 9.84165 19.1874H9.84583C14.9508 19.1874 19.2 15.0299 19.2 9.92084C19.2 7.44559 18.1481 5.12062 16.3992 3.36749ZM9.84583 17.6262C8.46002 17.6262 7.10344 17.2547 5.92217 16.5535L5.6425 16.3865L2.72897 17.1504L3.50536 14.3078L3.3217 14.0156C2.54949 12.7885 2.1446 11.3734 2.1446 9.91667C2.1446 5.6716 5.60076 2.21544 9.85 2.21544C11.9078 2.21544 13.8404 3.01687 15.293 4.47363C16.7456 5.93039 17.6389 7.86301 17.6347 9.92084C17.6347 14.1701 14.0909 17.6262 9.84583 17.6262ZM14.07 11.8576C13.8404 11.7408 12.7009 11.1814 12.488 11.1063C12.2752 11.027 12.1207 10.9894 11.9663 11.2232C11.8118 11.4569 11.3694 11.9745 11.2316 12.1331C11.0981 12.2876 10.9603 12.3084 10.7307 12.1916C9.36998 11.5112 8.47672 10.9769 7.57929 9.43664C7.34136 9.02758 7.81721 9.0568 8.25967 8.17189C8.3348 8.01745 8.29723 7.88388 8.2388 7.767C8.18036 7.65013 7.71703 6.51059 7.52502 6.04727C7.33719 5.59646 7.14518 5.65908 7.00326 5.65073C6.86969 5.64238 6.71525 5.64238 6.5608 5.64238C6.40636 5.64238 6.15592 5.70082 5.94304 5.93039C5.73016 6.16414 5.13326 6.72347 5.13326 7.86301C5.13326 9.00254 5.96391 10.1045 6.07661 10.2589C6.19348 10.4134 7.70868 12.7509 10.0337 13.7568C11.5029 14.3913 12.079 14.4456 12.8136 14.337C13.2602 14.2703 14.1827 13.7777 14.3747 13.2351C14.5667 12.6924 14.5667 12.2291 14.5083 12.1331C14.454 12.0288 14.2996 11.9703 14.07 11.8576Z" fill="white"/>
</g>
<defs>
<clipPath id="clip0_37_1070">
<rect width="18.7" height="18.7" fill="white" transform="translate(0.5 0.650146)"/>
</clipPath>
</defs>
</svg>
