<svg viewBox="0 0 24 24" fill="none" xmlns="http://www.w3.org/2000/svg">
<path d="M16.0005 8.30771V5.30771H8.00054V8.30771H6.50056V4.70756C6.50056 4.45255 6.58719 4.23882 6.76044 4.06639C6.93367 3.89396 7.14833 3.80774 7.40441 3.80774H16.5927C16.853 3.80774 17.0694 3.89399 17.2418 4.06649C17.4143 4.23899 17.5005 4.45274 17.5005 4.70774V8.30771H16.0005ZM17.8082 12.3077C18.0915 12.3077 18.329 12.2118 18.5207 12.0202C18.7124 11.8285 18.8082 11.591 18.8082 11.3077C18.8082 11.0243 18.7124 10.7868 18.5207 10.5952C18.329 10.4035 18.0915 10.3077 17.8082 10.3077C17.5249 10.3077 17.2874 10.4035 17.0957 10.5952C16.904 10.7868 16.8082 11.0243 16.8082 11.3077C16.8082 11.591 16.904 11.8285 17.0957 12.0202C17.2874 12.2118 17.5249 12.3077 17.8082 12.3077ZM8.30826 19H15.6928C15.7826 19 15.8563 18.9711 15.914 18.9134C15.9717 18.8557 16.0005 18.782 16.0005 18.6923V14.7307H8.00054V18.6923C8.00054 18.782 8.02939 18.8557 8.08709 18.9134C8.14479 18.9711 8.21851 19 8.30826 19ZM8.30826 20.5C7.81115 20.5 7.38559 20.323 7.03159 19.9689C6.67757 19.6149 6.50056 19.1894 6.50056 18.6923V16.5H3.69289C3.4368 16.5 3.22215 16.4133 3.04891 16.2401C2.87568 16.0669 2.78906 15.8522 2.78906 15.5961V10.8077C2.78906 10.0993 3.03105 9.50561 3.51501 9.02644C3.99898 8.54729 4.59031 8.30771 5.28901 8.30771H18.7121C19.4204 8.30771 20.0141 8.54729 20.4933 9.02644C20.9724 9.50561 21.212 10.0993 21.212 10.8077V15.5961C21.212 15.8522 21.1254 16.0669 20.9522 16.2401C20.7789 16.4133 20.5643 16.5 20.3082 16.5H17.5005V18.6923C17.5005 19.1894 17.3235 19.6149 16.9695 19.9689C16.6155 20.323 16.1899 20.5 15.6928 20.5H8.30826ZM19.7121 15V10.8077C19.7121 10.5243 19.6162 10.2868 19.4246 10.0952C19.2329 9.9035 18.9954 9.80766 18.7121 9.80766H5.28901C5.00568 9.80766 4.76818 9.9035 4.57651 10.0952C4.38485 10.2868 4.28901 10.5243 4.28901 10.8077V15H6.50056V13.2308H17.5005V15H19.7121Z" fill="currentColor"/>
<path d="M16.0005 8.30771V5.30771H8.00054V8.30771H6.50056V4.70756C6.50056 4.45255 6.58719 4.23882 6.76044 4.06639C6.93367 3.89396 7.14833 3.80774 7.40441 3.80774H16.5927C16.853 3.80774 17.0694 3.89399 17.2418 4.06649C17.4143 4.23899 17.5005 4.45274 17.5005 4.70774V8.30771H16.0005ZM17.8082 12.3077C18.0915 12.3077 18.329 12.2118 18.5207 12.0202C18.7124 11.8285 18.8082 11.591 18.8082 11.3077C18.8082 11.0243 18.7124 10.7868 18.5207 10.5952C18.329 10.4035 18.0915 10.3077 17.8082 10.3077C17.5249 10.3077 17.2874 10.4035 17.0957 10.5952C16.904 10.7868 16.8082 11.0243 16.8082 11.3077C16.8082 11.591 16.904 11.8285 17.0957 12.0202C17.2874 12.2118 17.5249 12.3077 17.8082 12.3077ZM8.30826 19H15.6928C15.7826 19 15.8563 18.9711 15.914 18.9134C15.9717 18.8557 16.0005 18.782 16.0005 18.6923V14.7307H8.00054V18.6923C8.00054 18.782 8.02939 18.8557 8.08709 18.9134C8.14479 18.9711 8.21851 19 8.30826 19ZM8.30826 20.5C7.81115 20.5 7.38559 20.323 7.03159 19.9689C6.67757 19.6149 6.50056 19.1894 6.50056 18.6923V16.5H3.69289C3.4368 16.5 3.22215 16.4133 3.04891 16.2401C2.87568 16.0669 2.78906 15.8522 2.78906 15.5961V10.8077C2.78906 10.0993 3.03105 9.50561 3.51501 9.02644C3.99898 8.54729 4.59031 8.30771 5.28901 8.30771H18.7121C19.4204 8.30771 20.0141 8.54729 20.4933 9.02644C20.9724 9.50561 21.212 10.0993 21.212 10.8077V15.5961C21.212 15.8522 21.1254 16.0669 20.9522 16.2401C20.7789 16.4133 20.5643 16.5 20.3082 16.5H17.5005V18.6923C17.5005 19.1894 17.3235 19.6149 16.9695 19.9689C16.6155 20.323 16.1899 20.5 15.6928 20.5H8.30826ZM19.7121 15V10.8077C19.7121 10.5243 19.6162 10.2868 19.4246 10.0952C19.2329 9.9035 18.9954 9.80766 18.7121 9.80766H5.28901C5.00568 9.80766 4.76818 9.9035 4.57651 10.0952C4.38485 10.2868 4.28901 10.5243 4.28901 10.8077V15H6.50056V13.2308H17.5005V15H19.7121Z" fill="currentColor"/>
</svg>
