<?xml version="1.0" encoding="UTF-8"?>
<svg width="37px" height="23px" viewBox="0 0 37 23" version="1.1" xmlns="http://www.w3.org/2000/svg" xmlns:xlink="http://www.w3.org/1999/xlink">
    <title>icon-closing-soon</title>
    <g id="Page-1" stroke="none" stroke-width="1" fill="none" fill-rule="evenodd">
        <path d="M34.02,0.45 C35.6105801,0.45 36.9,1.73941994 36.9,3.33000004 L36.9,19.17 C36.9,20.7605801 35.6105801,22.05 34.02,22.05 L2.88000004,22.05 C1.28941994,22.05 1.16422427e-11,20.7605801 1.16422427e-11,19.17 L1.16422427e-11,3.33000004 C1.16422427e-11,1.73941994 1.28941994,0.45 2.88000004,0.45 L34.02,0.45 Z M34.02,1.45 L2.88000004,1.45 C1.89114733,1.45 1.08060814,2.21345097 1.00565622,3.18307915 L1,3.33000004 L1,19.17 C1,20.1588527 1.76345097,20.9693919 2.73307915,21.0443438 L2.88000004,21.05 L34.02,21.05 C35.0088527,21.05 35.8193919,20.286549 35.8943438,19.3169209 L35.9,19.17 L35.9,3.33000004 C35.9,2.34114733 35.136549,1.53060814 34.1669209,1.45565622 L34.02,1.45 Z M10.582251,13.374582 C11.0964111,13.374582 11.5828857,13.4787324 12.0416748,13.6870332 L12.0416748,13.6870332 L11.7410889,14.387082 L11.5434157,14.3094334 C11.1572709,14.166082 10.8263358,14.0944062 10.5506104,14.0944062 C10.0601807,14.0944062 9.81496582,14.2341523 9.81496582,14.5136445 C9.81496582,14.6507539 9.87890625,14.7667695 10.0067871,14.8616914 C10.134668,14.9566133 10.413501,15.0871309 10.8432861,15.2532441 C11.2045166,15.3929902 11.4668701,15.5208711 11.6303467,15.6368867 C11.7938232,15.7529023 11.9151123,15.8867158 11.9942139,16.0383271 C12.0733154,16.1899385 12.1128662,16.3712129 12.1128662,16.5821504 C12.1128662,17.0092988 11.9572998,17.3369111 11.646167,17.5649873 C11.3350342,17.7930635 10.8894287,17.9071016 10.3093506,17.9071016 C9.72663574,17.9071016 9.25861816,17.8187715 8.90529785,17.6421113 L8.90529785,17.6421113 L8.90529785,16.8392305 L9.12347288,16.933668 C9.55546427,17.1080143 9.96130371,17.1951875 10.3409912,17.1951875 C10.9131592,17.1951875 11.1992432,17.0224824 11.1992432,16.6770723 C11.1992432,16.5663301 11.1676025,16.4740449 11.1043213,16.4002168 C11.04104,16.3263887 10.9368896,16.2499238 10.7918701,16.1708223 C10.6468506,16.0917207 10.4451416,16.0020723 10.1867432,15.901877 C9.68312988,15.7067598 9.34233398,15.5116426 9.16435547,15.3165254 C8.98637695,15.1214082 8.8973877,14.8682832 8.8973877,14.5571504 C8.8973877,14.1827363 9.04833984,13.8920381 9.35024414,13.6850557 C9.65214844,13.4780732 10.0628174,13.374582 10.582251,13.374582 Z M14.9407471,13.374582 C15.5735596,13.374582 16.0745361,13.5782686 16.4436768,13.9856416 C16.8128174,14.3930146 16.9973877,14.9421113 16.9973877,15.6329316 C16.9973877,16.3474824 16.8141357,16.9051484 16.4476318,17.3059297 C16.0811279,17.7067109 15.5709229,17.9071016 14.9170166,17.9071016 C14.5083252,17.9071016 14.1470947,17.8148164 13.8333252,17.6302461 C13.5195557,17.4456758 13.2782959,17.1806855 13.1095459,16.8352754 C12.9407959,16.4898652 12.8564209,16.089084 12.8564209,15.6329316 C12.8564209,14.9236543 13.0383545,14.3699434 13.4022217,13.9717988 C13.7660889,13.5736543 14.2789307,13.374582 14.9407471,13.374582 Z M19.8885498,13.374582 C20.5213623,13.374582 21.0223389,13.5782686 21.3914795,13.9856416 C21.7606201,14.3930146 21.9451904,14.9421113 21.9451904,15.6329316 C21.9451904,16.3474824 21.7619385,16.9051484 21.3954346,17.3059297 C21.0289307,17.7067109 20.5187256,17.9071016 19.8648193,17.9071016 C19.4561279,17.9071016 19.0948975,17.8148164 18.7811279,17.6302461 C18.4673584,17.4456758 18.2260986,17.1806855 18.0573486,16.8352754 C17.8885986,16.4898652 17.8042236,16.089084 17.8042236,15.6329316 C17.8042236,14.9236543 17.9861572,14.3699434 18.3500244,13.9717988 C18.7138916,13.5736543 19.2267334,13.374582 19.8885498,13.374582 Z M25.2872314,13.374582 C26.3366455,13.374582 26.8613525,13.9085176 26.8613525,14.9763887 L26.8613525,14.9763887 L26.8613525,17.828 L25.9279541,17.828 L25.9279541,15.1385469 L25.9222961,14.976938 C25.9034363,14.7194917 25.8374268,14.5215547 25.7242676,14.383127 C25.5884766,14.2170137 25.3729248,14.133957 25.0776123,14.133957 C24.6847412,14.133957 24.3973389,14.2499727 24.2154053,14.4820039 C24.0334717,14.7140352 23.9425049,15.1029512 23.9425049,15.648752 L23.9425049,15.648752 L23.9425049,17.828 L23.0130615,17.828 L23.0130615,13.4536836 L23.7407959,13.4536836 L23.8713135,14.0271699 L23.9187744,14.0271699 L24.0045205,13.9078848 C24.127708,13.7564316 24.286333,13.6353535 24.4803955,13.5446504 C24.7229736,13.4312715 24.9919189,13.374582 25.2872314,13.374582 Z M14.9249268,14.133957 C14.5346924,14.133957 14.2519043,14.2631562 14.0765625,14.5215547 C13.9012207,14.7799531 13.8135498,15.1504121 13.8135498,15.6329316 C13.8135498,16.6427949 14.1866455,17.1477266 14.9328369,17.1477266 C15.6711182,17.1477266 16.0402588,16.6427949 16.0402588,15.6329316 C16.0402588,14.6336152 15.6684814,14.133957 14.9249268,14.133957 Z M19.8727295,14.133957 C19.4824951,14.133957 19.199707,14.2631562 19.0243652,14.5215547 C18.8490234,14.7799531 18.7613525,15.1504121 18.7613525,15.6329316 C18.7613525,16.6427949 19.1344482,17.1477266 19.8806396,17.1477266 C20.6189209,17.1477266 20.9880615,16.6427949 20.9880615,15.6329316 C20.9880615,14.6336152 20.6162842,14.133957 19.8727295,14.133957 Z M29.7366943,5.76058203 C29.8606201,5.76058203 29.9904785,5.76915137 30.1262695,5.78629004 C30.2620605,5.80342871 30.3642334,5.82122656 30.4327881,5.83968359 L30.4327881,5.83968359 L31.947583,5.83968359 L31.947583,6.34988867 L31.2000732,6.48831641 L31.2646729,6.58763281 C31.3051025,6.65853125 31.3402588,6.73880469 31.3701416,6.82845312 C31.4149658,6.96292578 31.4373779,7.10530859 31.4373779,7.25560156 C31.4373779,7.70648047 31.2818115,8.06111914 30.9706787,8.31951758 C30.6595459,8.57791602 30.2310791,8.70711523 29.6852783,8.70711523 C29.5455322,8.70711523 29.4189697,8.69656836 29.3055908,8.67547461 C29.1052002,8.79940039 29.0050049,8.94441992 29.0050049,9.1105332 C29.0050049,9.21072852 29.0518066,9.285875 29.1454102,9.33597266 C29.2390137,9.38607031 29.4110596,9.41111914 29.6615479,9.41111914 L29.6615479,9.41111914 L30.4248779,9.41111914 L30.6003845,9.41593939 C30.9972107,9.4384339 31.3052124,9.53965918 31.5243896,9.71961523 C31.7748779,9.9252793 31.9001221,10.2219102 31.9001221,10.6095078 C31.9001221,11.1052109 31.6957764,11.4875352 31.287085,11.7564805 C30.8783936,12.0254258 30.2877686,12.1598984 29.51521,12.1598984 C28.9193115,12.1598984 28.4644775,12.0544297 28.150708,11.8434922 C27.8369385,11.6325547 27.6800537,11.3319687 27.6800537,10.9417344 C27.6800537,10.6727891 27.7650879,10.4466904 27.9351562,10.2634385 C28.1052246,10.0801865 28.3431885,9.95296484 28.6490479,9.88177344 C28.5251221,9.82903906 28.4229492,9.74400488 28.3425293,9.6266709 C28.2621094,9.50933691 28.2218994,9.38607031 28.2218994,9.25687109 C28.2218994,9.09339453 28.268042,8.9549668 28.3603271,8.84158789 C28.4526123,8.72820898 28.5897217,8.61614844 28.7716553,8.50540625 C28.5448975,8.40784766 28.3609863,8.24898535 28.2199219,8.02881934 C28.0788574,7.80865332 28.0083252,7.55091406 28.0083252,7.25560156 C28.0083252,6.78099219 28.157959,6.41316992 28.4572266,6.15213477 C28.7564941,5.89109961 29.1829834,5.76058203 29.7366943,5.76058203 Z M30.0847412,10.1981797 L29.3807373,10.1981797 L29.2275176,10.2056943 C29.0319785,10.2257334 28.8714551,10.2858506 28.7459473,10.3860459 C28.5890625,10.51129 28.5106201,10.6806992 28.5106201,10.8942734 C28.5106201,11.0946641 28.6009277,11.2489121 28.781543,11.3570176 C28.9621582,11.465123 29.2159424,11.5191758 29.5428955,11.5191758 C30.0491455,11.5191758 30.4261963,11.446666 30.6740479,11.3016465 C30.9218994,11.156627 31.0458252,10.9641465 31.0458252,10.7242051 C31.0458252,10.5343613 30.9779297,10.3992295 30.8421387,10.3188096 C30.7063477,10.2383896 30.4538818,10.1981797 30.0847412,10.1981797 L30.0847412,10.1981797 Z M7.13737793,4.34861914 C7.72800293,4.34861914 8.27380371,4.47254492 8.77478027,4.72039648 L8.77478027,4.72039648 L8.43464355,5.50745703 L8.23579102,5.41890723 C8.10073242,5.36236426 7.96069336,5.31080176 7.81567383,5.26421973 C7.59814453,5.19434668 7.36940918,5.15941016 7.12946777,5.15941016 C6.58630371,5.15941016 6.15915527,5.35189062 5.84802246,5.73685156 C5.53688965,6.1218125 5.38132324,6.65311133 5.38132324,7.33074805 C5.38132324,8.04002539 5.53095703,8.57659766 5.83022461,8.94046484 C6.12949219,9.30433203 6.56257324,9.48626562 7.12946777,9.48626562 C7.37468262,9.48626562 7.6119873,9.46187598 7.84138184,9.41309668 C8.07077637,9.36431738 8.30939941,9.30169531 8.55725098,9.22523047 L8.55725098,9.22523047 L8.55725098,10.0360215 L8.32543945,10.1145737 C7.93066406,10.2335923 7.49377441,10.2931016 7.01477051,10.2931016 C6.16838379,10.2931016 5.51843262,10.0366807 5.06491699,9.52383887 C4.61140137,9.01099707 4.38464355,8.27733008 4.38464355,7.32283789 C4.38464355,6.72166602 4.49472656,6.19564062 4.71489258,5.74476172 C4.93505859,5.29388281 5.25344238,4.94847266 5.67004395,4.70853125 C6.08664551,4.46858984 6.57575684,4.34861914 7.13737793,4.34861914 Z M13.7858643,5.76058203 C14.4186768,5.76058203 14.9196533,5.96426855 15.2887939,6.3716416 C15.6579346,6.77901465 15.8425049,7.32811133 15.8425049,8.01893164 C15.8425049,8.73348242 15.6592529,9.29114844 15.292749,9.69192969 C14.9262451,10.0927109 14.41604,10.2931016 13.7621338,10.2931016 C13.3534424,10.2931016 12.9922119,10.2008164 12.6784424,10.0162461 C12.3646729,9.83167578 12.1234131,9.56668555 11.9546631,9.22127539 C11.7859131,8.87586523 11.7015381,8.47508398 11.7015381,8.01893164 C11.7015381,7.3096543 11.8834717,6.75594336 12.2473389,6.35779883 C12.6112061,5.9596543 13.1240479,5.76058203 13.7858643,5.76058203 Z M18.3183838,5.76058203 C18.8325439,5.76058203 19.3190186,5.86473242 19.7778076,6.0730332 L19.7778076,6.0730332 L19.4772217,6.77308203 L19.2795485,6.69543335 C18.8934037,6.55208195 18.5624686,6.48040625 18.2867432,6.48040625 C17.7963135,6.48040625 17.5510986,6.62015234 17.5510986,6.89964453 C17.5510986,7.03675391 17.6150391,7.15276953 17.7429199,7.24769141 C17.8708008,7.34261328 18.1496338,7.47313086 18.5794189,7.63924414 C18.9406494,7.77899023 19.2030029,7.90687109 19.3664795,8.02288672 C19.5299561,8.13890234 19.6512451,8.27271582 19.7303467,8.42432715 C19.8094482,8.57593848 19.848999,8.75721289 19.848999,8.96815039 C19.848999,9.39529883 19.6934326,9.72291113 19.3822998,9.9509873 C19.071167,10.1790635 18.6255615,10.2931016 18.0454834,10.2931016 C17.4627686,10.2931016 16.994751,10.2047715 16.6414307,10.0281113 L16.6414307,10.0281113 L16.6414307,9.22523047 L16.8596057,9.31966805 C17.2915971,9.49401435 17.6974365,9.5811875 18.077124,9.5811875 C18.649292,9.5811875 18.935376,9.40848242 18.935376,9.06307227 C18.935376,8.95233008 18.9037354,8.86004492 18.8404541,8.7862168 C18.7771729,8.71238867 18.6730225,8.63592383 18.5280029,8.55682227 C18.3829834,8.4777207 18.1812744,8.38807227 17.922876,8.28787695 C17.4192627,8.09275977 17.0784668,7.89764258 16.9004883,7.70252539 C16.7225098,7.5074082 16.6335205,7.2542832 16.6335205,6.94315039 C16.6335205,6.56873633 16.7844727,6.27803809 17.086377,6.07105566 C17.3882812,5.86407324 17.7989502,5.76058203 18.3183838,5.76058203 Z M10.633667,4.05989844 L10.633667,10.214 L9.70422363,10.214 L9.70422363,4.05989844 L10.633667,4.05989844 Z M21.7830322,5.83968359 L21.7830322,10.214 L20.8535889,10.214 L20.8535889,5.83968359 L21.7830322,5.83968359 Z M25.3861084,5.76058203 C26.4355225,5.76058203 26.9602295,6.29451758 26.9602295,7.36238867 L26.9602295,7.36238867 L26.9602295,10.214 L26.0268311,10.214 L26.0268311,7.52454687 L26.0211731,7.36293799 C26.0023132,7.1054917 25.9363037,6.90755469 25.8231445,6.76912695 C25.6873535,6.60301367 25.4718018,6.51995703 25.1764893,6.51995703 C24.7836182,6.51995703 24.4962158,6.63597266 24.3142822,6.86800391 C24.1323486,7.10003516 24.0413818,7.48895117 24.0413818,8.03475195 L24.0413818,8.03475195 L24.0413818,10.214 L23.1119385,10.214 L23.1119385,5.83968359 L23.8396729,5.83968359 L23.9701904,6.41316992 L24.0176514,6.41316992 L24.1033975,6.29388477 C24.226585,6.14243164 24.38521,6.02135352 24.5792725,5.93065039 C24.8218506,5.81727148 25.0907959,5.76058203 25.3861084,5.76058203 Z M13.7700439,6.51995703 C13.3798096,6.51995703 13.0970215,6.64915625 12.9216797,6.90755469 C12.7463379,7.16595312 12.658667,7.53641211 12.658667,8.01893164 C12.658667,9.02879492 13.0317627,9.53372656 13.7779541,9.53372656 C14.5162354,9.53372656 14.885376,9.02879492 14.885376,8.01893164 C14.885376,7.01961523 14.5135986,6.51995703 13.7700439,6.51995703 Z M29.7287842,6.35779883 C29.4598389,6.35779883 29.2561523,6.43426367 29.1177246,6.58719336 C28.9792969,6.74012305 28.910083,6.96292578 28.910083,7.25560156 C28.910083,7.52982031 28.9806152,7.74075781 29.1216797,7.88841406 C29.2627441,8.03607031 29.4651123,8.10989844 29.7287842,8.10989844 C30.2666748,8.10989844 30.5356201,7.82249609 30.5356201,7.24769141 C30.5356201,6.96292578 30.469043,6.74341895 30.3358887,6.5891709 C30.2027344,6.43492285 30.0003662,6.35779883 29.7287842,6.35779883 Z M21.3242432,4.16273047 C21.4877197,4.16273047 21.6149414,4.20755469 21.7059082,4.29720312 C21.796875,4.38685156 21.8423584,4.51473242 21.8423584,4.6808457 C21.8423584,4.83904883 21.796875,4.96363379 21.7059082,5.05460059 C21.6149414,5.14556738 21.4877197,5.19105078 21.3242432,5.19105078 C21.1554932,5.19105078 21.0256348,5.14556738 20.934668,5.05460059 C20.8437012,4.96363379 20.7982178,4.83904883 20.7982178,4.6808457 C20.7982178,4.51473242 20.8437012,4.38685156 20.934668,4.29720312 C21.0256348,4.20755469 21.1554932,4.16273047 21.3242432,4.16273047 Z" id="icon-closing-soon" fill="#0000FF" fill-rule="nonzero"></path>
    </g>
</svg>