<svg xmlns="http://www.w3.org/2000/svg" width="100%" height="100%" viewBox="0 0 16 16">
    <g>
        <g>
            <g>
                <g>
                    <g>
                        <g fill="currentColor" fill-rule="nonzero">
                            <path d="M14.188 15.835H.848c-.448 0-.824-.376-.824-.823 0-.447.376-.824.823-.824h13.341c.447 0 .824.377.824.824 0 .447-.377.823-.824.823zM7.53 12.282c-.448 0-.824-.376-.824-.823V.94c0-.447.376-.823.823-.823.447 0 .824.376.824.823V11.46c0 .447-.377.823-.824.823z" transform="translate(-774 -335) translate(709 240) translate(65 76) translate(0 19)"/>
                            <path d="M7.53 12.282c-.212 0-.424-.07-.589-.235L3.082 8.165c-.33-.33-.33-.847 0-1.153.33-.33.847-.33 1.153 0l3.86 3.859c.329.329.329.847 0 1.153-.142.188-.354.258-.566.258z" transform="translate(-774 -335) translate(709 240) translate(65 76) translate(0 19)"/>
                            <path d="M7.53 12.282c-.212 0-.424-.07-.589-.235-.33-.33-.33-.847 0-1.153l3.883-3.882c.329-.33.847-.33 1.152 0 .33.33.33.847 0 1.153l-3.858 3.882c-.165.165-.377.235-.589.235z" transform="translate(-774 -335) translate(709 240) translate(65 76) translate(0 19)"/>
                        </g>
                    </g>
                </g>
            </g>
        </g>
    </g>
</svg>
