<svg xmlns="http://www.w3.org/2000/svg" width="64" height="64" viewBox="0 0 64 64">
    <g fill="none" fill-rule="evenodd">
        <g fill="#353535" fill-rule="nonzero">
            <path d="M217.327 2060c14.54 0 26.328 11.787 26.328 26.327 0 6.875-2.635 13.134-6.95 17.823l18.095 18.093-1.556 1.556-18.095-18.094c-4.689 4.315-10.948 6.949-17.822 6.949-14.54 0-26.327-11.787-26.327-26.327 0-14.54 11.787-26.327 26.327-26.327zm-.003 29.296c-5.71 0-12.322 3.3-12.54 7.227l-.006.2v10.104h-.18c3.696 2.3 8.057 3.627 12.729 3.627 4.672 0 9.034-1.328 12.729-3.627h-.186v-10.104c0-4.014-6.739-7.427-12.546-7.427zm.003-27.096c-13.325 0-24.127 10.802-24.127 24.127 0 7.77 3.673 14.683 9.378 19.095v-8.698c0-5.637 7.88-9.629 14.746-9.629 6.763 0 14.511 3.874 14.74 9.377l.006.251.001 8.704c5.708-4.413 9.384-11.327 9.384-19.1 0-13.325-10.802-24.127-24.128-24.127zm-.003 4.428c4.603 0 7.923 3.299 7.923 7.923v3.412c0 4.624-3.32 7.922-7.923 7.922-4.604 0-7.922-3.298-7.922-7.923v-3.41c0-4.625 3.318-7.924 7.922-7.924zm0 2.2c-3.392 0-5.722 2.317-5.722 5.724v3.41c0 3.407 2.33 5.724 5.722 5.724 3.391 0 5.723-2.317 5.723-5.724v-3.41c0-3.407-2.332-5.724-5.723-5.724z" transform="translate(-191 -2060)"/>
        </g>
    </g>
</svg>
