<svg xmlns="http://www.w3.org/2000/svg" width="18" height="18" viewBox="0 0 18 18">
    <g>
        <g>
            <path d="M565 291.5c4.694 0 8.5 3.805 8.5 8.5 0 4.694-3.806 8.5-8.5 8.5-4.695 0-8.5-3.806-8.5-8.5 0-4.695 3.805-8.5 8.5-8.5zm0 1c-4.142 0-7.5 3.357-7.5 7.5 0 4.142 3.358 7.5 7.5 7.5 4.142 0 7.5-3.358 7.5-7.5 0-4.142-3.358-7.5-7.5-7.5zm0 2.2c.245 0 .45.176.492.41l.008.09v4.491l2.924 1.461c.22.11.323.36.256.587l-.033.084c-.11.22-.36.323-.587.257l-.084-.033-3.2-1.6c-.14-.07-.239-.203-.267-.354L564.5 300v-4.8c0-.277.224-.5.5-.5z" transform="translate(-556 -291)"/>
        </g>
    </g>
</svg>
