<svg viewBox="0 0 20 21" fill="none" xmlns="http://www.w3.org/2000/svg">
<path d="M15.4571 4.21338H4.54806C3.87836 4.21338 3.33594 4.7558 3.33594 5.4255V16.3346C3.33594 17.0043 3.87836 17.5467 4.54806 17.5467H15.4571C16.1268 17.5467 16.6693 17.0043 16.6693 16.3346V5.4255C16.6693 4.7558 16.1268 4.21338 15.4571 4.21338ZM7.55048 15.1225H5.7626V9.36974H7.55048V15.1225ZM6.63836 8.54732C6.062 8.54732 5.59594 8.08005 5.59594 7.50489C5.59594 6.92974 6.0626 6.46308 6.63836 6.46308C7.21291 6.46308 7.68018 6.93035 7.68018 7.50489C7.68018 8.08005 7.21291 8.54732 6.63836 8.54732ZM14.2475 15.1225H12.4608V12.3249C12.4608 11.6576 12.4487 10.7994 11.5317 10.7994C10.6014 10.7994 10.4584 11.5261 10.4584 12.2764V15.1225H8.67169V9.36974H10.3868V10.1558H10.4111C10.6499 9.70368 11.2329 9.22671 12.1026 9.22671C13.9129 9.22671 14.2475 10.4182 14.2475 11.9673V15.1225Z" fill="currentColor"/>
</svg>
