<svg xmlns="http://www.w3.org/2000/svg" width="16" height="16" viewBox="0 0 16 16">
    <g fill="" fill-rule="evenodd">
        <path d="M11.354 4.646c-.195-.195-.512-.195-.707 0L8 7.293 5.354 4.646c-.195-.195-.512-.195-.707 0-.195.195-.195.512 0 .707L7.293 8l-2.647 2.646c-.195.195-.195.512 0 .707.098.098.226.147.354.147.128 0 .256-.049.354-.146L8 8.707l2.646 2.646c.098.098.226.147.354.147.128 0 .256-.049.354-.146.195-.195.195-.512 0-.707L8.707 8l2.646-2.646c.196-.196.196-.512 0-.708z"/>
        <path d="M8 0C3.589 0 0 3.589 0 8s3.589 8 8 8 8-3.589 8-8-3.589-8-8-8zm0 15c-3.86 0-7-3.14-7-7s3.14-7 7-7 7 3.14 7 7-3.14 7-7 7z"/>
    </g>
</svg>
