<svg xmlns="http://www.w3.org/2000/svg" width="87" height="95" viewBox="0 0 87 95">
    <g>
        <g>
            <path d="M247.051 3223v18.444h14.598c2.864 0 5.199 2.265 5.314 5.1l.004.22v38.654c0 2.864-2.263 5.2-5.099 5.314l-.219.005-15.303-.001v25.327c0 .567-.429 1.034-.98 1.094l-.12.006h-33.3c-.091 0-.181-.011-.268-.033-.228-.055-.428-.18-.576-.353l-10.136-10.084c-.207-.206-.324-.487-.324-.78v-15.177h-15.323c-2.864 0-5.2-2.263-5.315-5.1l-.004-.218v-38.654c0-2.864 2.264-5.2 5.1-5.315l.219-.004 14.597-.001V3223h47.135zm-2.906 45.402h-41.304v36.399l9.106.008c.567.001 1.033.43 1.092.982l.007.12-.009 9.051 31.108.001v-46.561zm-39.748 38.6l6.441 6.408.006-6.402-6.447-.006zm34.263-10.907c.586 0 1.06.474 1.06 1.06 0 .545-.413.995-.944 1.053l-.116.006h-30.986c-.585 0-1.06-.475-1.06-1.06 0-.546.414-.995.945-1.053l.115-.006h30.986zm0-7.508c.586 0 1.06.474 1.06 1.06 0 .546-.413.995-.944 1.053l-.116.006h-30.986c-.585 0-1.06-.474-1.06-1.06 0-.546.414-.995.945-1.053l.115-.006h30.986zm22.989-44.942h-76.33c-1.663 0-3.022 1.302-3.114 2.942l-.005.177v38.654c0 1.663 1.302 3.022 2.942 3.114l.177.005 15.323-.001v-21.234c0-.567.43-1.034.98-1.093l.12-.007h43.504c.608 0 1.1.493 1.1 1.1v21.234h15.303c1.663 0 3.021-1.3 3.113-2.941l.005-.177v-38.654c0-1.664-1.301-3.023-2.941-3.114l-.177-.005zm-22.989 37.434c.586 0 1.06.474 1.06 1.06 0 .546-.413.995-.944 1.053l-.116.006h-30.986c-.585 0-1.06-.474-1.06-1.06 0-.546.414-.995.945-1.053l.115-.006h30.986zm-15.176-32.266c2.269 0 4.11 1.84 4.11 4.109 0 2.268-1.841 4.109-4.11 4.109s-4.109-1.84-4.109-4.11c0-2.269 1.84-4.108 4.11-4.108zm0 2.2c-1.054 0-1.909.854-1.909 1.909 0 1.054.855 1.909 1.91 1.909 1.053 0 1.908-.856 1.908-1.91 0-1.053-.855-1.908-1.909-1.908zm21.367-25.813h-42.735v16.049h42.735V3225.2z" transform="translate(-180 -3223)"/>
        </g>
    </g>
</svg>
