<?xml version="1.0" encoding="utf-8"?>
<!-- Generator: Adobe Illustrator 24.3.0, SVG Export Plug-In . SVG Version: 6.00 Build 0)  -->
<svg version="1.1" id="Layer_1" xmlns="http://www.w3.org/2000/svg" xmlns:xlink="http://www.w3.org/1999/xlink" x="0px" y="0px"
	 width="18px" height="18px" viewBox="0 0 18 18" style="enable-background:new 0 0 18 18;" xml:space="preserve">
<style type="text/css">
	.st0{fill:#FF0000;}
</style>
<g>
	<g>
		<path class="st0" d="M0.1,0.1c0.2-0.2,0.4-0.2,0.6-0.1l0.1,0.1L9,8.3l8.2-8.2c0.2-0.2,0.5-0.2,0.7,0c0.2,0.2,0.2,0.4,0.1,0.6
			l-0.1,0.1L9.7,9l8.2,8.2l0.1,0.1c0.1,0.2,0.1,0.5-0.1,0.6c-0.2,0.2-0.4,0.2-0.6,0.1l-0.1-0.1L9,9.7l-8.2,8.2
			c-0.2,0.2-0.5,0.2-0.7,0c-0.2-0.2-0.2-0.4-0.1-0.6l0.1-0.1L8.3,9L0.1,0.8L0.1,0.8C-0.1,0.6-0.1,0.3,0.1,0.1z"/>
	</g>
</g>
</svg>
