<svg xmlns="http://www.w3.org/2000/svg" width="16" height="16" viewBox="0 0 16 16">
    <g>
        <g>
            <g>
                <g>
                    <g>
                        <g>
                            <path d="M1.43 6.195c.731-2.859 3.336-4.867 6.315-4.867 2.553 0 4.833 1.464 5.906 3.744h-2.247V6.4h4.545V1.923h-1.345v1.992c-1.413-2.4-4-3.915-6.86-3.915C4.103 0 .869 2.57.069 6.094L0 6.366h1.379l.05-.17zM14.62 8.954l-.05.17c-.732 2.859-3.336 4.867-6.315 4.867-2.553 0-4.834-1.464-5.906-3.744h2.247V8.919H.05v4.493h1.345v-2.008c1.395 2.4 4 3.915 6.842 3.915 3.66 0 6.894-2.57 7.693-6.094L16 8.953h-1.378z" transform="translate(-352 -466) translate(0 125) translate(114 83) translate(208 238) translate(30 20.68)"/>
                        </g>
                    </g>
                </g>
            </g>
        </g>
    </g>
</svg>
