<svg xmlns="http://www.w3.org/2000/svg" width="110" height="130" viewBox="0 0 110 130">
    <g fill="none" fill-rule="evenodd">
        <g>
            <g>
                <path fill="#00F" d="M108.613 103.038c0 12.14-53.126 13.462-53.126 26.525h-1.175c0-13.063-53.127-14.384-53.127-26.525H0V0h109.798v103.038h-1.185z" transform="translate(-119 -326) translate(119 326)"/>
                <path fill="#FFF" d="M21.641 91.743h66.516v-2.516H21.64v2.516zm29.17-18.104s.09 3.101-2.539 3.101-2.537-3.1-2.537-3.1v-9.001h-3.148v9c0 5.493 5.685 5.458 5.685 5.458s5.686.035 5.686-5.458v-9H50.81v9zm16.4 5.126l-4.766-7.743 3.97-6.377-2.62-.001-4.597 7.049v-7.054H56.05v14.126h3.148V71.71l4.032 7.054h3.981zm-2.867-60.204c0 2.135-9.342 2.367-9.342 4.664h-.206c0-2.297-9.342-2.529-9.342-4.664h-.208v2.228c0 2.66 9.359 2.411 9.55 4.97h.206c.191-2.559 9.55-2.31 9.55-4.97v-2.228h-.208zm0-5.055c0 2.134-9.342 2.367-9.342 4.664h-.206c0-2.297-9.342-2.53-9.342-4.664h-.208v2.227c0 2.661 9.359 2.412 9.55 4.97h.206c.191-2.558 9.55-2.309 9.55-4.97v-2.227h-.208zm0-5.056c0 2.135-9.342 2.366-9.342 4.664h-.206c0-2.298-9.342-2.53-9.342-4.664h-.208v2.228c0 2.661 9.359 2.411 9.55 4.97h.206c.191-2.559 9.55-2.309 9.55-4.97V8.45h-.208zM29.842 50.53v-1.467h-2.906l.003 11.35h2.903v-6.49c0-2.787 2.432-2.975 3.816-2.916v-2.212c-2.23-.26-3.56 1.115-3.816 1.736zm-8.2 9.884h3.144V46.307H21.64v14.107zm59.864-8.653c-.272-.455-1.11-1.21-2.132-1.21-1.196 0-2.355.765-2.362 4.15-.006 3.542 1.096 4.267 2.384 4.267.97 0 1.897-.87 2.11-1.242v-5.965zm0-5.454h2.912v14.107h-2.912v-.856c-.11.096-1.347 1.174-3.074 1.187-2.193.007-4.513-1.323-4.503-6.037.006-4.933 2.926-5.927 4.676-5.927 1.348-.008 2.293.5 2.901 1.044v-3.518zm-12.71 2.456c-1.53 0-2.836.863-3.274 1.142v-.842h-2.886v11.35h2.886v-8.728c.462-.369 1.283-.974 2.205-.974 1.416 0 1.755.836 1.755 2.489v7.214h2.89v-7.36c0-1.825-.313-4.291-3.576-4.291zm-22.475 11.65h2.908V46.308h-2.908v14.107zm11.489-5.955c-.38.095-.948.231-1.47.377-1.277.368-2.549 1.031-2.548 2.352.005 1.102.626 1.648 1.711 1.648 1.005 0 1.94-.498 2.307-.834v-3.543zm2.9 3.584c0 1.065.117 1.92.255 2.371h-2.743c-.045-.163-.135-.525-.2-.794-.36.25-1.595 1.124-3.558 1.126-2.185 0-3.646-1.13-3.659-3.28-.012-2.18 1.459-3.234 3.579-3.738.927-.229 2.972-.697 3.426-.83v-.713c0-1.458-.819-1.866-1.717-1.866-1.095 0-2.083.674-2.085 1.968l-2.665.004c0-1.515 1.01-3.527 4.715-3.527 2.174 0 4.652.308 4.652 3.63v5.649zm-19.084-4.464c-.077-1.392-.514-3.155-2.192-3.155-1.683.008-2.078 1.811-2.226 3.155h4.418zm3.092 1.02c0 .165 0 .329-.008.493h-7.537c.004 2.457.505 3.974 2.26 3.98 1.402.005 1.943-1.008 2.116-2.489l3.028.006c-.6 3.142-2.845 4.157-5.143 4.157-2.92 0-5.345-1.52-5.339-6.132.01-3.977 2.386-5.847 5.339-5.85 2.854 0 5.296 1.857 5.284 5.835zm17.494-16.806l3.674-4.44h-2.493l-4.18 4.986 3.244 6.366h3.585l-3.83-6.912zm-5.907-7.196v14.108h2.908V30.596h-2.908zm-4.702 6.893v7.215h2.89v-7.36c0-1.826-.317-4.292-3.576-4.292-1.53 0-2.836.863-3.273 1.143v-.843h-2.89v11.352h2.89v-8.73c.458-.368 1.283-.974 2.205-.974 1.418 0 1.759.836 1.754 2.489zm-23.017 2.922c-.02-1.738-1.16-2.492-2.764-2.487h-1.035v5.196h1.035c1.909 0 2.774-.967 2.764-2.709zm-3.8-4.073h.782c1.514-.004 2.462-.637 2.464-2.183.002-1.566-1.115-1.986-2.454-1.98h-.791v4.163zm2.026 8.366h-5.17V30.596h5.795c1.983.005 3.757.91 3.757 3.132 0 2.136-1.546 2.914-3.04 3.239 1.491.081 3.779 1.096 3.779 3.655 0 2.773-2.343 4.09-5.12 4.082zm10.93-1.58c1.007 0 1.946-.498 2.31-.833v-3.543c-.387.094-.954.231-1.471.376-1.28.368-2.55 1.032-2.55 2.353.005 1.1.628 1.647 1.712 1.647zm-1.042 1.91c-2.177 0-3.645-1.13-3.652-3.28-.013-2.18 1.463-3.234 3.576-3.737.93-.229 2.975-.698 3.429-.831v-.712c0-1.459-.82-1.865-1.72-1.865-1.091 0-2.08.673-2.084 1.966l-2.663.005c0-1.516 1.003-3.528 4.71-3.528 2.175 0 4.65.308 4.65 3.63v5.65c0 1.064.12 1.919.26 2.37h-2.742c-.045-.162-.135-.524-.2-.794-.364.25-1.6 1.124-3.564 1.127zm35.649-5.947c0 2.936.63 4.27 2.262 4.27 1.635 0 2.302-1.334 2.272-4.27-.03-2.978-.7-4.385-2.272-4.374-1.639.01-2.262 1.295-2.262 4.374zm-3.071 0c-.007-4.365 2.506-6.021 5.353-6.035 2.978-.024 5.297 1.668 5.317 6.035.023 4.343-2.559 5.948-5.317 5.948-2.753 0-5.338-1.585-5.353-5.948zm15.14-5.274v1.31h2.054v1.672h-2.054v7.91h-2.912V34.278c0-2.24 1.2-4.004 4.124-4.004 1.192 0 2.105.263 2.527.474v1.85c-.558-.383-1.32-.663-2.133-.663-1.016-.004-1.606.8-1.606 1.877zM21.92 107.156L23.021 107.156 23.021 100.426 21.92 100.426zM29.162 107.157h-1.087v-3.131c0-.393-.079-.686-.237-.88-.158-.192-.41-.29-.753-.29-.457 0-.791.136-1.003.406-.212.27-.318.722-.318 1.358v2.537h-1.082v-5.092h.848l.151.668h.056c.153-.243.37-.43.653-.562.282-.132.596-.199.939-.199 1.222 0 1.833.622 1.833 1.865v3.32zM32.563 106.374c.265 0 .529-.041.793-.124v.814c-.12.053-.274.096-.463.131-.189.036-.384.053-.587.053-1.025 0-1.538-.54-1.538-1.62v-2.744h-.694v-.478l.745-.397.369-1.076h.666v1.132h1.452v.82h-1.452v2.724c0 .261.066.454.197.578.13.124.301.187.512.187M36.399 102.792c-.344 0-.62.109-.827.327-.206.218-.33.536-.37.953h2.31c-.005-.42-.106-.74-.303-.955-.196-.217-.466-.325-.81-.325m.198 4.456c-.792 0-1.412-.23-1.858-.692-.446-.462-.67-1.098-.67-1.908 0-.832.207-1.486.622-1.962.414-.476.983-.713 1.708-.713.672 0 1.203.204 1.592.612.39.408.585.97.585 1.684v.585h-3.393c.016.495.15.874.401 1.14.251.266.606.398 1.063.398.301 0 .581-.028.84-.085.26-.057.538-.15.836-.283v.88c-.264.125-.531.214-.801.266-.27.052-.579.078-.925.078M42.388 101.972c.219 0 .398.016.539.047l-.106 1.008c-.154-.037-.313-.055-.478-.055-.434 0-.785.141-1.053.423-.268.283-.402.65-.402 1.1v2.662h-1.082v-5.092h.847l.143.897h.055c.168-.304.39-.544.66-.722.272-.178.564-.268.877-.268M48.161 107.157h-1.086v-3.14c0-.39-.074-.68-.221-.872-.148-.192-.378-.288-.69-.288-.418 0-.725.135-.92.407-.194.272-.292.724-.292 1.356v2.537h-1.081v-5.092h.847l.152.668h.055c.14-.243.346-.43.614-.562.27-.132.564-.199.887-.199.783 0 1.3.268 1.556.802h.073c.15-.252.362-.448.635-.59.273-.14.586-.212.94-.212.607 0 1.05.155 1.327.461.279.307.417.775.417 1.404v3.32h-1.082v-3.14c0-.39-.074-.68-.223-.872-.148-.192-.38-.288-.692-.288-.421 0-.73.131-.924.393-.195.262-.292.666-.292 1.208v2.699zM54.91 102.792c-.345 0-.62.109-.827.327-.207.218-.331.536-.37.953h2.31c-.005-.42-.107-.74-.303-.955-.197-.217-.467-.325-.81-.325m.198 4.456c-.792 0-1.412-.23-1.858-.692-.446-.462-.67-1.098-.67-1.908 0-.832.207-1.486.621-1.962.414-.476.983-.713 1.708-.713.672 0 1.203.204 1.593.612.39.408.585.97.585 1.684v.585h-3.393c.016.495.15.874.4 1.14.252.266.607.398 1.064.398.301 0 .58-.028.84-.085.26-.057.538-.15.836-.283v.88c-.264.125-.532.214-.802.266-.27.052-.578.078-.924.078M60.324 106.374c.445 0 .769-.125.97-.375.203-.25.308-.656.314-1.218v-.152c0-.641-.105-1.098-.313-1.367-.209-.27-.536-.405-.98-.405-.38 0-.674.154-.88.462-.205.309-.308.748-.308 1.32 0 .564.1.995.3 1.29.198.296.498.445.897.445m-.29.874c-.636 0-1.131-.23-1.488-.69-.355-.46-.534-1.106-.534-1.938 0-.835.18-1.484.541-1.95.361-.464.86-.698 1.5-.698.668 0 1.178.247 1.528.742h.054c-.052-.365-.078-.654-.078-.865v-1.856h1.087v7.164h-.848l-.188-.668h-.05c-.347.506-.855.759-1.524.759M64.19 107.156h1.082v-5.092H64.19v5.092zm-.064-6.44c0-.194.053-.342.16-.447.104-.104.256-.157.452-.157.19 0 .338.053.445.157.105.105.158.253.158.447 0 .185-.053.33-.158.435-.107.106-.255.159-.445.159-.196 0-.348-.053-.453-.159-.106-.106-.159-.25-.159-.435zM68.393 106.42c.394 0 .709-.11.947-.33.238-.219.357-.527.357-.922v-.442l-.654.027c-.51.019-.88.104-1.112.256-.232.152-.348.384-.348.697 0 .228.068.403.203.528.135.124.338.186.607.186zm1.611.736l-.216-.709h-.036c-.246.31-.492.521-.741.634-.249.111-.568.167-.958.167-.5 0-.89-.134-1.172-.404-.28-.271-.421-.653-.421-1.147 0-.525.194-.92.585-1.188.39-.267.983-.412 1.781-.437l.88-.028v-.272c0-.324-.077-.567-.228-.73-.152-.16-.387-.24-.707-.24-.26 0-.51.038-.75.114-.24.077-.47.168-.69.272l-.351-.773c.276-.145.579-.254.907-.33.328-.075.638-.112.93-.112.648 0 1.136.142 1.466.423.33.282.495.726.495 1.33v3.43h-.774zM74.87 101.972c.219 0 .398.016.539.047l-.106 1.008c-.154-.037-.313-.055-.478-.055-.434 0-.784.141-1.052.423-.269.283-.403.65-.403 1.1v2.662h-1.082v-5.092h.847l.143.897h.054c.17-.304.39-.544.662-.722.27-.178.563-.268.877-.268M76.353 107.156h1.082v-5.092h-1.082v5.092zm-.064-6.44c0-.194.053-.342.159-.447.105-.104.256-.157.453-.157.19 0 .338.053.444.157.106.105.159.253.159.447 0 .185-.053.33-.159.435-.106.106-.255.159-.444.159-.197 0-.348-.053-.453-.159-.106-.106-.16-.25-.16-.435zM81.007 102.792c-.344 0-.619.109-.826.327-.207.218-.331.536-.37.953h2.31c-.005-.42-.107-.74-.304-.955-.196-.217-.466-.325-.81-.325m.199 4.456c-.792 0-1.412-.23-1.859-.692-.445-.462-.669-1.098-.669-1.908 0-.832.207-1.486.621-1.962.414-.476.983-.713 1.708-.713.672 0 1.203.204 1.592.612.391.408.586.97.586 1.684v.585h-3.393c.015.495.149.874.4 1.14.252.266.607.398 1.064.398.301 0 .58-.028.84-.085.26-.057.538-.15.836-.283v.88c-.265.125-.532.214-.802.266-.27.052-.578.078-.924.078M87.835 105.706c0 .498-.181.879-.544 1.144-.362.266-.88.398-1.556.398-.678 0-1.222-.102-1.633-.308v-.935c.597.277 1.155.415 1.67.415.666 0 1-.201 1-.603 0-.129-.038-.236-.111-.322-.074-.086-.195-.176-.364-.268-.169-.091-.403-.196-.704-.313-.587-.227-.983-.454-1.19-.68-.207-.228-.311-.522-.311-.885 0-.435.176-.774.527-1.015.351-.241.83-.361 1.434-.361.598 0 1.164.12 1.699.363l-.35.815c-.55-.227-1.012-.34-1.386-.34-.57 0-.856.162-.856.488 0 .16.074.294.223.405.15.11.474.262.974.455.42.163.726.312.916.447.19.135.331.29.424.468.091.176.138.386.138.632" transform="translate(-119 -326) translate(119 326)"/>
            </g>
        </g>
    </g>
</svg>
