<?xml version="1.0" encoding="utf-8"?>
<!-- Generator: Adobe Illustrator 26.0.1, SVG Export Plug-In . SVG Version: 6.00 Build 0)  -->
<svg version="1.1" id="Layer_1" xmlns="http://www.w3.org/2000/svg" xmlns:xlink="http://www.w3.org/1999/xlink" x="0px" y="0px"
	 viewBox="0 0 119.7 177.8" style="enable-background:new 0 0 119.7 177.8;" xml:space="preserve">
<style type="text/css">
	.st0{fill:#0000FF;}
</style>
<g>
	<path class="st0" d="M113,45.7V48h3.7v3H113v14.2h-5.2V46.5c0-4,2.2-7.2,7.4-7.2c2.1,0,3.8,0.5,4.5,0.9v3.3c-1-0.7-2.4-1.2-3.8-1.2
		C114.1,42.3,113,43.7,113,45.7z M85.7,55.2c0-7.9,4.5-10.8,9.6-10.9c5.4,0,9.5,3,9.6,10.9c0,7.8-4.6,10.7-9.6,10.7
		C90.4,65.8,85.8,63,85.7,55.2z M91.3,55.2c0,5.3,1.1,7.7,4.1,7.7s4.1-2.4,4.1-7.7c0-5.4-1.3-7.9-4.1-7.9
		C92.4,47.3,91.3,49.6,91.3,55.2z M27.1,65.8c-3.9,0-6.6-2-6.6-5.9c0-3.9,2.6-5.8,6.4-6.7c1.7-0.4,5.4-1.2,6.2-1.5v-1.3
		c0-2.6-1.5-3.4-3.1-3.4c-2,0-3.7,1.2-3.8,3.5l-4.8,0c0-2.7,1.8-6.4,8.5-6.4c3.9,0,8.4,0.6,8.4,6.5V61c0,1.9,0.2,3.5,0.5,4.3h-4.9
		c-0.1-0.3-0.2-0.9-0.4-1.4C32.9,64.3,30.6,65.8,27.1,65.8z M29,62.4c1.8,0,3.5-0.9,4.2-1.5v-6.4c-0.7,0.2-1.7,0.4-2.6,0.7
		c-2.3,0.7-4.6,1.9-4.6,4.2C25.9,61.4,27,62.4,29,62.4z M9.3,65.3H0V39.9h10.4c3.6,0,6.8,1.6,6.8,5.6c0,3.8-2.8,5.2-5.5,5.8
		c2.7,0.1,6.8,2,6.8,6.6C18.5,62.9,14.3,65.3,9.3,65.3z M5.7,50.2h1.4c2.7,0,4.4-1.1,4.4-3.9c0-2.8-2-3.6-4.4-3.6H5.7V50.2z
		 M12.5,57.5c0-3.1-2.1-4.5-5-4.5H5.7v9.4h1.9C11,62.4,12.5,60.7,12.5,57.5z M53.9,52.3v13h5.2V52c0-3.3-0.6-7.7-6.4-7.7
		c-2.8,0-5.1,1.6-5.9,2.1v-1.5h-5.2v20.4h5.2V49.5c0.8-0.7,2.3-1.8,4-1.8C53.3,47.8,53.9,49.3,53.9,52.3z M62.4,39.9v25.4h5.2V53.8
		V39.9H62.4z M73,52.8l6.6-8h-4.5l-7.5,9l5.8,11.5h6.4L73,52.8z M41.5,83.1c0,0.3,0,0.6,0,0.9H28c0,4.4,0.9,7.1,4.1,7.2
		c2.5,0,3.5-1.8,3.8-4.5l5.4,0c-1.1,5.7-5.1,7.5-9.3,7.5c-5.2,0-9.6-2.7-9.6-11c0-7.2,4.3-10.5,9.6-10.5
		C37.2,72.6,41.6,75.9,41.5,83.1z M36,81.2c-0.1-2.5-0.9-5.7-3.9-5.7c-3,0-3.7,3.3-4,5.7H36z M70.3,89.3c0,1.9,0.2,3.5,0.5,4.3h-4.9
		c-0.1-0.3-0.2-0.9-0.4-1.4c-0.6,0.4-2.9,2-6.4,2c-3.9,0-6.6-2-6.6-5.9c0-3.9,2.6-5.8,6.4-6.7c1.7-0.4,5.4-1.2,6.2-1.5v-1.3
		c0-2.6-1.5-3.4-3.1-3.4c-2,0-3.8,1.2-3.8,3.5l-4.8,0c0-2.7,1.8-6.4,8.5-6.4c3.9,0,8.4,0.6,8.4,6.5L70.3,89.3L70.3,89.3z M65.1,82.8
		c-0.7,0.2-1.7,0.4-2.6,0.7c-2.3,0.7-4.6,1.9-4.6,4.2c0,2,1.1,3,3.1,3c1.8,0,3.5-0.9,4.1-1.5L65.1,82.8L65.1,82.8z M44.4,93.5h5.2
		V68.1h-5.2V93.5z M84.9,72.6c-2.8,0-5.1,1.6-5.9,2.1v-1.5h-5.2v20.4l0,0H79V77.8c0.8-0.7,2.3-1.8,4-1.8c2.6,0,3.2,1.5,3.2,4.5v13
		h5.2V80.3C91.3,77,90.7,72.6,84.9,72.6z M107.7,68.1h5.2v25.4h-5.2V92c-0.2,0.2-2.4,2.1-5.5,2.1c-3.9,0-8.1-2.4-8.1-10.9
		c0-8.9,5.3-10.7,8.4-10.7c2.4,0,4.1,0.9,5.2,1.9L107.7,68.1L107.7,68.1z M107.7,78c-0.5-0.8-2-2.2-3.8-2.2c-2.1,0-4.2,1.4-4.2,7.5
		c0,6.4,2,7.7,4.3,7.7c1.8,0,3.4-1.6,3.8-2.2V78z M0,93.5h5.7V68.1H0V93.5z M14.8,75.7v-2.6H9.5v20.4h5.2V81.8c0-5,4.4-5.4,6.9-5.2
		v-4C17.6,72.2,15.2,74.6,14.8,75.7z M76.9,0c0,3.8-16.8,4.3-16.8,8.4h-0.4c0-4.1-16.8-4.6-16.8-8.4h-0.4v4c0,4.8,16.8,4.3,17.2,8.9
		h0.4C60.4,8.3,77.2,8.8,77.2,4V0H76.9z M76.9,9.1c0,3.8-16.8,4.3-16.8,8.4h-0.4c0-4.1-16.8-4.6-16.8-8.4h-0.4v4
		c0,4.8,16.8,4.3,17.2,8.9h0.4c0.3-4.6,17.2-4.2,17.2-8.9v-4H76.9z M76.9,18.2c0,3.8-16.8,4.3-16.8,8.4h-0.4
		c0-4.1-16.8-4.6-16.8-8.4h-0.4v4c0,4.8,16.8,4.3,17.2,8.9h0.4c0.3-4.6,17.2-4.2,17.2-8.9v-4H76.9z M82,126.6l-8.6-13.9l7.1-11.5
		h-4.7l-8.3,12.7v-12.7h-5.7v25.4h5.7v-12.7l7.3,12.7L82,126.6L82,126.6z M52.5,117.3c0,0,0.2,5.6-4.6,5.6c-4.7,0-4.6-5.6-4.6-5.6
		v-16.2h-5.7v16.2c0,9.9,10.2,9.8,10.2,9.8s10.2,0.1,10.2-9.8v-16.2h-5.7L52.5,117.3L52.5,117.3z M119.7,149.9v-4.5H0v4.5H119.7z"/>
	<g>
		<path class="st0" d="M0.5,177.7v-12.1h2v12.1H0.5z"/>
		<path class="st0" d="M13.5,177.7h-2V172c0-0.7-0.1-1.2-0.4-1.6c-0.3-0.4-0.7-0.5-1.4-0.5c-0.8,0-1.4,0.2-1.8,0.7s-0.6,1.3-0.6,2.4
			v4.6H5.5v-9.2H7l0.3,1.2h0.1c0.3-0.4,0.7-0.8,1.2-1s1.1-0.4,1.7-0.4c2.2,0,3.3,1.1,3.3,3.4L13.5,177.7L13.5,177.7z"/>
		<path class="st0" d="M19.7,176.2c0.5,0,0.9-0.1,1.4-0.2v1.5c-0.2,0.1-0.5,0.2-0.8,0.2c-0.3,0.1-0.7,0.1-1.1,0.1
			c-1.8,0-2.8-1-2.8-2.9V170h-1.2v-0.9l1.3-0.7l0.7-1.9h1.2v2H21v1.5h-2.6v4.9c0,0.5,0.1,0.8,0.4,1C19,176.1,19.3,176.2,19.7,176.2z
			"/>
		<path class="st0" d="M26.9,177.8c-1.4,0-2.5-0.4-3.3-1.2s-1.2-2-1.2-3.4c0-1.5,0.4-2.7,1.1-3.5s1.8-1.3,3.1-1.3
			c1.2,0,2.2,0.4,2.9,1.1s1.1,1.8,1.1,3v1h-6.1c0,0.9,0.3,1.6,0.7,2s1.1,0.7,1.9,0.7c0.5,0,1,0,1.5-0.1s1-0.3,1.5-0.5v1.6
			c-0.5,0.2-1,0.4-1.4,0.5C28.1,177.8,27.5,177.8,26.9,177.8z M26.6,169.8c-0.6,0-1.1,0.2-1.5,0.6c-0.4,0.4-0.6,1-0.7,1.7h4.2
			c0-0.8-0.2-1.3-0.6-1.7C27.7,170,27.2,169.8,26.6,169.8z"/>
		<path class="st0" d="M37.3,168.3c0.4,0,0.7,0,1,0.1l-0.2,1.8c-0.3-0.1-0.6-0.1-0.9-0.1c-0.8,0-1.4,0.2-1.9,0.8s-0.7,1.2-0.7,2v4.8
			h-1.9v-9.2h1.5l0.3,1.6h0.1c0.3-0.5,0.7-1,1.2-1.3C36.2,168.5,36.8,168.3,37.3,168.3z"/>
		<path class="st0" d="M47.7,177.7h-2V172c0-0.7-0.1-1.2-0.4-1.6c-0.3-0.4-0.7-0.5-1.2-0.5c-0.8,0-1.3,0.2-1.6,0.7
			c-0.4,0.5-0.5,1.3-0.5,2.4v4.6H40v-9.2h1.5l0.3,1.2h0.1c0.2-0.4,0.6-0.8,1.1-1s1-0.4,1.6-0.4c1.4,0,2.3,0.5,2.8,1.4h0.1
			c0.3-0.5,0.6-0.8,1.1-1.1s1.1-0.4,1.7-0.4c1.1,0,1.9,0.3,2.4,0.8s0.8,1.4,0.8,2.5v6h-1.9V172c0-0.7-0.1-1.2-0.4-1.6
			c-0.3-0.4-0.7-0.5-1.2-0.5c-0.8,0-1.3,0.2-1.7,0.7s-0.5,1.2-0.5,2.2L47.7,177.7L47.7,177.7z"/>
		<path class="st0" d="M60.2,177.8c-1.4,0-2.5-0.4-3.3-1.2s-1.2-2-1.2-3.4c0-1.5,0.4-2.7,1.1-3.5s1.8-1.3,3.1-1.3
			c1.2,0,2.2,0.4,2.9,1.1s1.1,1.8,1.1,3v1h-6.1c0,0.9,0.3,1.6,0.7,2s1.1,0.7,1.9,0.7c0.5,0,1,0,1.5-0.1s1-0.3,1.5-0.5v1.6
			c-0.5,0.2-1,0.4-1.4,0.5C61.4,177.8,60.9,177.8,60.2,177.8z M59.9,169.8c-0.6,0-1.1,0.2-1.5,0.6c-0.4,0.4-0.6,1-0.7,1.7h4.2
			c0-0.8-0.2-1.3-0.6-1.7C61,170,60.5,169.8,59.9,169.8z"/>
		<path class="st0" d="M69.1,177.8c-1.1,0-2-0.4-2.7-1.2s-1-2-1-3.5s0.3-2.7,1-3.5s1.6-1.3,2.7-1.3c1.2,0,2.1,0.4,2.8,1.3H72
			c-0.1-0.7-0.1-1.2-0.1-1.6v-3.3h2v12.9h-1.5l-0.3-1.2h-0.1C71.2,177.4,70.3,177.8,69.1,177.8z M69.6,176.2c0.8,0,1.4-0.2,1.8-0.7
			c0.4-0.5,0.6-1.2,0.6-2.2v-0.3c0-1.1-0.2-2-0.6-2.5s-1-0.7-1.8-0.7c-0.7,0-1.2,0.3-1.6,0.8c-0.4,0.6-0.6,1.4-0.6,2.4
			s0.2,1.8,0.5,2.3C68.4,176,68.9,176.2,69.6,176.2z"/>
		<path class="st0" d="M76.5,166.1c0-0.4,0.1-0.6,0.3-0.8c0.2-0.2,0.5-0.3,0.8-0.3c0.3,0,0.6,0.1,0.8,0.3s0.3,0.5,0.3,0.8
			c0,0.3-0.1,0.6-0.3,0.8s-0.5,0.3-0.8,0.3c-0.4,0-0.6-0.1-0.8-0.3C76.6,166.7,76.5,166.4,76.5,166.1z M78.5,177.7h-1.9v-9.2h1.9
			V177.7z"/>
		<path class="st0" d="M87,177.7l-0.4-1.3h-0.1c-0.4,0.6-0.9,0.9-1.3,1.1c-0.4,0.2-1,0.3-1.7,0.3c-0.9,0-1.6-0.2-2.1-0.7
			c-0.5-0.5-0.8-1.2-0.8-2.1c0-0.9,0.4-1.7,1.1-2.1s1.8-0.7,3.2-0.8l1.6,0v-0.5c0-0.6-0.1-1-0.4-1.3s-0.7-0.4-1.3-0.4
			c-0.5,0-0.9,0.1-1.4,0.2c-0.4,0.1-0.9,0.3-1.2,0.5l-0.6-1.4c0.5-0.3,1-0.5,1.6-0.6c0.6-0.1,1.1-0.2,1.7-0.2c1.2,0,2,0.2,2.6,0.8
			c0.6,0.5,0.9,1.3,0.9,2.4v6.2H87z M84.1,176.3c0.7,0,1.3-0.2,1.7-0.6c0.4-0.4,0.6-1,0.6-1.7v-0.8l-1.2,0c-0.9,0-1.6,0.2-2,0.5
			s-0.6,0.7-0.6,1.3c0,0.4,0.1,0.7,0.4,1C83.3,176.2,83.7,176.3,84.1,176.3z"/>
		<path class="st0" d="M95.8,168.3c0.4,0,0.7,0,1,0.1l-0.2,1.8c-0.3-0.1-0.6-0.1-0.9-0.1c-0.8,0-1.4,0.2-1.9,0.8s-0.7,1.2-0.7,2v4.8
			h-1.9v-9.2h1.5l0.3,1.6H93c0.3-0.5,0.7-1,1.2-1.3C94.7,168.5,95.2,168.3,95.8,168.3z"/>
		<path class="st0" d="M98.4,166.1c0-0.4,0.1-0.6,0.3-0.8c0.2-0.2,0.5-0.3,0.8-0.3c0.3,0,0.6,0.1,0.8,0.3s0.3,0.5,0.3,0.8
			c0,0.3-0.1,0.6-0.3,0.8s-0.5,0.3-0.8,0.3c-0.4,0-0.6-0.1-0.8-0.3C98.4,166.7,98.4,166.4,98.4,166.1z M100.4,177.7h-1.9v-9.2h1.9
			V177.7z"/>
		<path class="st0" d="M107.2,177.8c-1.4,0-2.5-0.4-3.3-1.2s-1.2-2-1.2-3.4c0-1.5,0.4-2.7,1.1-3.5s1.8-1.3,3.1-1.3
			c1.2,0,2.2,0.4,2.9,1.1c0.7,0.7,1,1.8,1,3v1h-6.1c0,0.9,0.3,1.6,0.7,2c0.5,0.5,1.1,0.7,1.9,0.7c0.5,0,1,0,1.5-0.1s1-0.3,1.5-0.5
			v1.6c-0.5,0.2-1,0.4-1.4,0.5C108.4,177.8,107.8,177.8,107.2,177.8z M106.8,169.8c-0.6,0-1.1,0.2-1.5,0.6c-0.4,0.4-0.6,1-0.7,1.7
			h4.2c0-0.8-0.2-1.3-0.5-1.7C107.9,170,107.5,169.8,106.8,169.8z"/>
		<path class="st0" d="M119.1,175.1c0,0.9-0.3,1.6-1,2.1c-0.6,0.5-1.6,0.7-2.8,0.7c-1.2,0-2.2-0.2-2.9-0.5v-1.7
			c1.1,0.5,2.1,0.8,3,0.8c1.2,0,1.8-0.4,1.8-1.1c0-0.2-0.1-0.4-0.2-0.6s-0.4-0.3-0.6-0.5s-0.7-0.4-1.3-0.6c-1.1-0.4-1.8-0.8-2.1-1.2
			c-0.4-0.4-0.6-0.9-0.6-1.6c0-0.8,0.3-1.4,1-1.8c0.6-0.4,1.5-0.6,2.6-0.6c1.1,0,2.1,0.2,3.1,0.7l-0.6,1.5c-1-0.4-1.8-0.6-2.5-0.6
			c-1,0-1.5,0.3-1.5,0.9c0,0.3,0.1,0.5,0.4,0.7s0.9,0.5,1.8,0.8c0.8,0.3,1.3,0.6,1.6,0.8s0.6,0.5,0.8,0.8
			C119.1,174.2,119.1,174.6,119.1,175.1z"/>
	</g>
</g>
</svg>
