<svg xmlns="http://www.w3.org/2000/svg" width="56" height="71" viewBox="0 0 56 71">
    <g fill="none" fill-rule="evenodd">
        <g>
            <g>
                <path fill="#00F" d="M55.17 57.105c0 6.167-26.986 6.838-26.986 13.473h-.596c0-6.635-26.986-7.306-26.986-13.473H0V0h55.771v57.105h-.602z" transform="translate(-309 -326) translate(309 326)"/>
                <path fill="#FFF" d="M47.53 38.32c0 4.439-19.43 4.922-19.43 9.7h-.43c0-4.778-19.429-5.261-19.429-9.7h-.433v4.633c0 5.533 19.465 5.015 19.863 10.336h.43c.397-5.321 19.862-4.803 19.862-10.336v-4.634h-.433z" transform="translate(-309 -326) translate(309 326)"/>
                <path fill="#FFF" d="M47.53 27.804c0 4.44-19.43 4.923-19.43 9.7h-.43c0-4.777-19.429-5.26-19.429-9.7h-.433v4.634c0 5.534 19.465 5.015 19.863 10.335h.43c.397-5.32 19.862-4.801 19.862-10.335v-4.634h-.433z" transform="translate(-309 -326) translate(309 326)"/>
                <path fill="#FFF" d="M47.963 17.29v4.633c0 5.534-19.465 5.016-19.863 10.336h-.43c-.397-5.32-19.862-4.802-19.862-10.336v-4.634h.433c0 4.44 19.43 4.923 19.43 9.7h.43c0-4.777 19.429-5.26 19.429-9.7h.433z" transform="translate(-309 -326) translate(309 326)"/>
            </g>
        </g>
    </g>
</svg>
